<?xml version="1.0" encoding="utf-8"?>
<!-- Generator: Adobe Illustrator 16.0.4, SVG Export Plug-In . SVG Version: 6.00 Build 0)  -->
<!DOCTYPE svg PUBLIC "-//W3C//DTD SVG 1.1//EN" "http://www.w3.org/Graphics/SVG/1.1/DTD/svg11.dtd">
<svg version="1.1" id="Layer_1" xmlns="http://www.w3.org/2000/svg" xmlns:xlink="http://www.w3.org/1999/xlink" x="0px" y="0px"
	 width="960px" height="111.578px" viewBox="0 0 960 111.578" enable-background="new 0 0 960 111.578" xml:space="preserve">
<g>
	<path fill="#EAEAEA" d="M0,1.851h26.536l23.323,73.047L75.115,1.543h21.229l25.254,73.355l23.321-73.047h25.898L132.373,110.5
		H110.82L85.409,39.916L59.994,110.5H38.44L0,1.851z"/>
	<path fill="#EAEAEA" d="M213.266,1.08h22.839l48.254,108.65h-25.896L248.17,85.531h-47.612l-10.294,24.199h-25.251L213.266,1.08z
		 M239.322,64.576l-14.96-34.986l-14.957,34.986H239.322z"/>
	<path fill="#EAEAEA" d="M313.455,23.733h-34.259V1.851h93.288v21.883h-34.26v85.997h-24.77V23.733z"/>
	<path fill="#EAEAEA" d="M391.463,1.851h84.923v21.117h-60.317v21.884h53.08v21.111h-53.08v22.654h61.122v21.113h-85.728V1.851z"/>
	<path fill="#EAEAEA" d="M499.219,1.851h51.471c14.314,0,25.412,3.856,32.812,10.941c6.271,6.014,9.646,14.489,9.646,24.659v0.309
		c0,17.412-9.811,28.353-24.127,33.437l27.504,38.533h-28.953l-24.121-34.525h-19.463v34.525h-24.77V1.851z M549.08,54.251
		c12.061,0,18.977-6.165,18.977-15.257v-0.312c0-10.17-7.4-15.406-19.461-15.406h-24.607v30.976H549.08z"/>
	<path fill="#EAEAEA" d="M615.496,1.851h24.77v86.303h56.133v21.576h-80.902V1.851z"/>
	<path fill="#EAEAEA" d="M703.629,56.099v-0.306C703.629,25.125,728.877,0,763.619,0s59.678,24.812,59.678,55.479v0.314
		c0,30.667-25.256,55.785-59.998,55.785C728.555,111.578,703.629,86.767,703.629,56.099z M797.402,56.099v-0.306
		c0-18.496-14.158-33.909-34.104-33.909c-19.947,0-33.773,15.104-33.773,33.595v0.314c0,18.492,14.152,33.902,34.094,33.902
		C783.566,89.695,797.402,74.591,797.402,56.099z"/>
	<path fill="#EAEAEA" d="M840.33,56.099v-0.306C840.33,25.125,865.578,0,900.32,0C935.064,0,960,24.812,960,55.479v0.314
		c0,30.667-25.256,55.785-59.998,55.785S840.33,86.767,840.33,56.099z M934.104,56.099v-0.306c0-18.496-14.156-33.909-34.102-33.909
		c-19.947,0-33.775,15.104-33.775,33.595v0.314c0,18.492,14.154,33.902,34.094,33.902C920.268,89.695,934.104,74.591,934.104,56.099
		z"/>
</g>
</svg>
