<?xml version="1.0" encoding="iso-8859-1"?>
<!-- Generator: Adobe Illustrator 18.0.0, SVG Export Plug-In . SVG Version: 6.00 Build 0)  -->
<!DOCTYPE svg PUBLIC "-//W3C//DTD SVG 1.1//EN" "http://www.w3.org/Graphics/SVG/1.1/DTD/svg11.dtd">
<svg version="1.1" id="Layer_1" xmlns="http://www.w3.org/2000/svg" xmlns:xlink="http://www.w3.org/1999/xlink" x="0px" y="0px"
	 viewBox="0 0 431.77 209.32" style="enable-background:new 0 0 431.77 209.32;" xml:space="preserve">
<g id="Layer_1">
	<g>
		<polygon points="108.37,3.002 431.77,3.002 431.77,69.692 426.89,69.692 426.89,107.072 431.77,107.072 431.77,115.706 427.88,115.706 427.88,128.138 431.77,128.138 431.77,190.388 403,190.388 403,150.632 347.03,150.632 347.03,133.208 202.49,133.208 202.49,154.988 95.83,154.988 95.83,209.318 0,209.318 0,136.298 26.66,136.298 26.66,74.6 108.37,74.6"/>
	</g>
	<g>
		<g>
			<polygon style="fill:#FFFFFF;" points="108.37,0.002 431.77,0.002 431.77,66.692 426.89,66.692 426.89,104.072 431.77,104.072 431.77,112.706 427.88,112.706 427.88,125.138 431.77,125.138 431.77,187.388 403,187.388 403,147.632 347.03,147.632 347.03,130.208 202.49,130.208 202.49,151.988 95.83,151.988 95.83,206.318 0,206.318 0,133.298 26.66,133.298 26.66,71.6 108.37,71.6"/>
		</g>
	</g>
</g>
</svg>
