<?xml version="1.0" encoding="iso-8859-1"?>
<!-- Generator: Adobe Illustrator 18.0.0, SVG Export Plug-In . SVG Version: 6.00 Build 0)  -->
<!DOCTYPE svg PUBLIC "-//W3C//DTD SVG 1.1//EN" "http://www.w3.org/Graphics/SVG/1.1/DTD/svg11.dtd">
<svg version="1.1" id="Layer_1" xmlns="http://www.w3.org/2000/svg" xmlns:xlink="http://www.w3.org/1999/xlink" x="0px" y="0px"
	 viewBox="0 0 433.19 176.845" style="enable-background:new 0 0 433.19 176.845;" xml:space="preserve">
<g>
	<g>
		<polygon style="fill:#464C56;" points="105.6,3 433.19,3 433.19,161.135 399.3,161.135 399.3,129.29 343.6,129.29 343.6,113.485 
			204.47,113.485 204.47,131.635 98.64,131.635 98.64,176.845 0,176.845 0,114.08 24.42,114.08 24.42,62.665 105.6,62.665 		"/>
	</g>
	<g>
		<polygon style="fill:#808080;" points="105.6,0 433.19,0 433.19,158.135 399.3,158.135 399.3,126.29 343.6,126.29 343.6,110.485 
			204.47,110.485 204.47,128.635 98.64,128.635 98.64,173.845 0,173.845 0,111.08 24.42,111.08 24.42,59.665 105.6,59.665 		"/>
	</g>
</g>
</svg>
