<?xml version="1.0" encoding="iso-8859-1"?>
<!-- Generator: Adobe Illustrator 18.0.0, SVG Export Plug-In . SVG Version: 6.00 Build 0)  -->
<!DOCTYPE svg PUBLIC "-//W3C//DTD SVG 1.1//EN" "http://www.w3.org/Graphics/SVG/1.1/DTD/svg11.dtd">
<svg version="1.1" id="Layer_1" xmlns="http://www.w3.org/2000/svg" xmlns:xlink="http://www.w3.org/1999/xlink" x="0px" y="0px"
	 viewBox="0 0 65.803 77.416" style="enable-background:new 0 0 65.803 77.416;" xml:space="preserve">
<path style="fill:#EEEEEE;" d="M15.483,13.55h25.161c1.064,0,1.933-0.875,1.933-1.936V9.677c0-1.065-0.868-1.935-1.933-1.935H15.483
	c-1.063,0-1.936,0.87-1.936,1.935v1.936C13.548,12.675,14.421,13.55,15.483,13.55z M40.645,1.936C40.645,0.87,38.913,0,36.772,0
	C34.636,0,32.9,0.87,32.9,1.936v3.965h7.744V1.936z M27.097,15.39H15.483V29.03h11.613V15.39z M21.29,42.58l1.934-1.938v-2.029
	h-3.869v2.029L21.29,42.58z M25.162,30.87h-7.741v5.903h7.741V30.87z M8.709,28.217c0.535,0,0.968-0.774,0.968-1.732v-4.229h1.936
	v2.904h2.03v-7.74h-2.03v2.901H9.677v-4.226c0-0.96-0.433-1.73-0.968-1.73c-0.534,0-0.967,0.769-0.967,1.73v10.39
	C7.742,27.442,8.175,28.217,8.709,28.217z M28.938,25.16h32.994v-7.74H28.938V25.16z M50.322,27.001v15.673h7.737V27.001H50.322z
	 M6.773,59.997c0.536,0,0.969-0.432,0.969-0.966v-1.937h1.935v2.902h32.999v-7.741H9.677v2.906H7.742v-1.938
	c0-0.534-0.433-0.969-0.969-0.969c-0.533,0-0.966,0.435-0.966,0.969v5.807C5.808,59.565,6.24,59.997,6.773,59.997z M42.676,61.839
	H14.212l28.464,6.917V61.839z M0,73.544v3.872h65.803v-3.872H0z M52.821,53.057c-0.757,0.758-0.757,1.983,0,2.738
	c0.756,0.754,1.983,0.754,2.739,0c0.756-0.755,0.756-1.98,0-2.738C54.805,52.304,53.577,52.304,52.821,53.057z M46.931,44.515
	c-1.327,0-2.416,0.872-2.416,1.934v25.163c0,0.032,0.009,0.062,0.012,0.092h19.328c0.004-0.03,0.012-0.06,0.012-0.092V46.449
	c0-1.062-1.086-1.934-2.419-1.934H46.931z M51.288,65.805c-1.071,0-1.935-0.863-1.935-1.939c0-1.068,0.863-1.931,1.935-1.931
	c1.07,0,1.937,0.862,1.937,1.931C53.225,64.941,52.358,65.805,51.288,65.805z M51.454,57.163c-1.512-1.513-1.512-3.961,0-5.475
	c1.253-1.253,3.144-1.45,4.618-0.626l2.223-0.742l-0.74,2.224c0.824,1.474,0.627,3.366-0.628,4.619
	C55.417,58.673,52.967,58.673,51.454,57.163z M57.092,65.805c-1.066,0-1.934-0.863-1.934-1.939c0-1.068,0.868-1.931,1.934-1.931
	c1.069,0,1.936,0.862,1.936,1.931C59.027,64.941,58.161,65.805,57.092,65.805z M13.548,50.415H29.03v-3.872H13.548V50.415z"/>
</svg>
