<svg xmlns="http://www.w3.org/2000/svg" xmlns:xlink="http://www.w3.org/1999/xlink" viewBox="0 0 149.975 35.805"><path fill="#FFF" d="M34.73 11.55h3.226l2.83 9.26 3.07-9.3h2.578l3.068 9.3 2.832-9.26h3.146l-4.67 13.774h-2.617l-3.084-8.947-3.092 8.947H39.4M60.245 11.547h2.776l5.86 13.777h-3.146l-1.25-3.07H58.7l-1.25 3.07h-3.07l5.865-13.777zm3.167 8.05l-1.814-4.435-1.816 4.434h3.63zM72.16 14.42H68v-2.775h11.335v2.775h-4.16v10.904h-3.014M81.624 11.646H91.94v2.672h-7.327v2.778h6.45v2.68h-6.45v2.87h7.425v2.678H81.624M95.275 11.646h6.254c1.737 0 3.086.486 3.985 1.388.762.762 1.172 1.834 1.172 3.123v.04c0 2.21-1.19 3.6-2.93 4.242l3.338 4.885h-3.518l-2.93-4.378h-2.362v4.378h-3.012l.002-13.68zm6.058 6.643c1.467 0 2.308-.782 2.308-1.936v-.04c0-1.29-.9-1.954-2.366-1.954h-2.986v3.93h3.045z"/><path fill="none" d="M0 0h149.807v35.805H0z"/><path fill="#FFF" d="M110.008 11.646h3.01v10.942h6.402v2.736h-9.412M119.883 18.523v-.04c0-3.886 3.068-7.074 7.293-7.074 4.218 0 7.25 3.146 7.25 7.035v.037c0 3.892-3.07 7.076-7.29 7.076s-7.253-3.146-7.253-7.035m11.392 0v-.04c0-2.343-1.718-4.3-4.14-4.3-2.424 0-4.104 1.916-4.104 4.262v.037c0 2.347 1.72 4.304 4.147 4.304 2.42 0 4.098-1.915 4.098-4.263M135.268 18.523v-.04c0-3.886 3.068-7.074 7.287-7.074 4.223 0 7.25 3.146 7.25 7.035v.037c0 3.892-3.065 7.076-7.287 7.076-4.22 0-7.25-3.146-7.25-7.035m11.394 0v-.04c0-2.343-1.722-4.3-4.146-4.3-2.42 0-4.104 1.916-4.104 4.262v.037c0 2.347 1.72 4.304 4.14 4.304 2.427 0 4.11-1.915 4.11-4.263M42.363 4.725V1.123h1.388v3.563c0 1.027.515 1.558 1.36 1.558.845 0 1.36-.513 1.36-1.513V1.124h1.387v3.555c0 1.91-1.07 2.846-2.765 2.846-1.694 0-2.73-.946-2.73-2.8"/><path fill="none" d="M0 0h149.807v35.805H0z"/><path fill="#FFF" d="M51.543 1.123h1.28l2.952 3.88v-3.88h1.368v6.3h-1.18L52.912 3.42v4.006h-1.367M61.086 1.123h1.387v6.3h-1.387zM65.876 1.123h1.53l1.648 4.438L70.7 1.124h1.495L69.648 7.47h-1.224M75.535 1.123h4.756v1.232h-3.376v1.28h2.97v1.232h-2.97V6.19h3.42v1.234h-4.8M86.73 4.184c.673 0 1.06-.358 1.06-.89v-.02c0-.595-.413-.9-1.088-.9h-1.377v1.81h1.404zm-2.793-3.06h2.882c.8 0 1.422.224 1.835.638.353.353.54.846.54 1.44v.02c0 1.018-.55 1.655-1.35 1.952l1.538 2.25h-1.62l-1.35-2.016h-1.09v2.016h-1.388l.002-6.3zM92.38 6.506l.82-.98c.566.47 1.16.767 1.882.767.566 0 .91-.228.91-.594v-.022c0-.35-.218-.53-1.27-.8-1.272-.325-2.09-.677-2.09-1.927v-.02c0-1.142.92-1.896 2.206-1.896.918 0 1.7.286 2.34.8l-.72 1.046c-.558-.388-1.106-.622-1.638-.622-.53 0-.812.242-.812.55v.018c0 .414.27.55 1.36.827 1.277.334 2 .793 2 1.892v.018c0 1.252-.956 1.953-2.315 1.953-.953-.002-1.916-.334-2.672-1.01"/><path fill="none" d="M0 0h149.807v35.805H0z"/><path fill="#FFF" d="M101.007 1.123h1.386v6.3h-1.386zM107.803 2.4h-1.916V1.123h5.22V2.4h-1.918v5.024h-1.387M116.31 4.94l-2.42-3.817h1.62l1.504 2.53 1.53-2.53h1.575l-2.422 3.79v2.51h-1.387M133.246 4.29v-.017c0-1.08-.79-1.98-1.908-1.98-1.116 0-1.892.882-1.892 1.964v.018c0 1.08.79 1.98 1.908 1.98s1.892-.882 1.892-1.964m-5.248 0v-.017c0-1.79 1.414-3.258 3.356-3.258 1.945 0 3.342 1.447 3.342 3.24v.018c0 1.79-1.413 3.26-3.358 3.26s-3.34-1.45-3.34-3.242"/><path fill="none" d="M0 0h149.807v35.805H0z"/><path fill="#FFF" d="M137.674 1.123h4.8v1.26h-3.413v1.342h3.007v1.26h-3.006v2.44h-1.386"/><defs><path id="a" d="M0 0h149.807v35.805H0z"/></defs><clipPath id="b"><use xlink:href="#a" overflow="visible"/></clipPath><path clip-path="url(#b)" fill="#FFF" d="M15.504 35.805l-.367-.172c-4.092-1.893-7.393-4.643-9.55-7.95C.418 19.747.248 11.55.066 2.874.05 2.217.037 1.56.02.898L0 0h30.992l-.023.897c-.017.664-.03 1.326-.044 1.988-.182 8.672-.354 16.865-5.522 24.795-2.15 3.303-5.446 6.053-9.53 7.95l-.37.175z"/><defs><path id="c" d="M0 0h149.807v35.805H0z"/></defs><clipPath id="d"><use xlink:href="#c" overflow="visible"/></clipPath><path clip-path="url(#d)" fill="#FFD74F" d="M15.434 10.684L3.29 20.242C1.34 14.196 1.393 7.88 1.235 1.442h28.33c-.156 6.45-.084 12.746-2.05 18.806l-12.08-9.564z"/><defs><path id="e" d="M0 0h149.807v35.805H0z"/></defs><clipPath id="f"><use xlink:href="#e" overflow="visible"/></clipPath><path clip-path="url(#f)" fill="#FFD74F" d="M25.266 25.402c-.3.53-.618 1.06-.963 1.59-2.16 3.312-5.366 5.77-8.895 7.408-3.542-1.64-6.75-4.096-8.908-7.41-.338-.516-.943-1.55-.943-1.55l9.877-7.884 9.832 7.846z"/><defs><path id="g" d="M0 0h149.807v35.805H0z"/></defs><clipPath id="h"><use xlink:href="#g" overflow="visible"/></clipPath><path clip-path="url(#h)" fill="#CD1F45" d="M7.12 6.295C5.687 5.992 4.41 4.925 4.718 3.57c.003-.012-.055-.35-.18-.396-.01-.004-.03-.04-.05-.047-.056-.015-.1-.04-.147-.07-.016-.014-.082-.036-.082-.06-.027.058-.022.108-.06.157-.012.018-.034.047-.053.057-.026.015-.028.038-.048.056-.107.11-.05.27-.033.396.004.03.02.07-.02.075-.046.01-.01-.012-.063-.045-.01-.006-.03-.026-.043-.034-.023-.01-.113-.02-.127-.043-.017-.025-.01-.033-.032-.05-.05-.045-.053-.133-.09-.227-.006-.017-.02-.096-.02-.113 0-.092-.235-.238-.146-.164.032.026-.005-.036-.13-.066-.08-.02-.17-.015-.26-.004-.02.004-.035.018-.048.028-.09.068-.174.152-.293.16.02-.014.03.01.04.02.057.074.016.164.05.244.032.078.09.138.157.193.064.05.18-.018.23.072 0 0 .105.024 0 .13-.19.196-.407.038-.566.4.24-.105.27.264.37.277.465.064.816.146 1.07.613.155.287-.278.3.112.367.2.034.333.135.435.275.105.147.12.346.232.483.08.1.112.12.21.2.045.038.188.074.242.09.053.013.084.04.135.06.056.02.112.04.157.077.04.03.137.064.16.11.04.077.008.16.05.236.014.02.075.002.1.01.024.01.08.013.094.01.094-.02.117-.026.186-.034.106-.014.095.02.233.014.03 0 .04.02.08.02.027 0 .074.03.082.005.04-.132.11-.257.188-.386.076-.127.07-.142.168-.273-.012.005.127-.093.115-.095"/><defs><path id="i" d="M0 0h149.807v35.805H0z"/></defs><clipPath id="j"><use xlink:href="#i" overflow="visible"/></clipPath><path clip-path="url(#j)" fill="#CD1F45" d="M3.54 6.463c.42.227.364.785.742.965.674.322 1.48.54 2.195.19-.158.5.02.915-.053.972-.225.18-.908-.035-1.347-.21-.302-.118-.546.33-.88.29.018-.04.055-.154.033-.225-.052-.162-.095-.21-.364-.177-.174.02-.102.162-.362.29-.103-.06-.324-.13-.356.065-.015.092-.2-.316-.16-.385.17-.307.204-.377.19-.442-.018-.103-.388-.24-.436-.153-.115.2-.454-.65.547-.596-.272-.172-.24-.203-.176-.41.008-.027-.093-.133-.162-.06-.022-.08.03-.165.095-.173.163-.023.324-.033.493.06"/><defs><path id="k" d="M0 0h149.807v35.805H0z"/></defs><clipPath id="l"><use xlink:href="#k" overflow="visible"/></clipPath><path clip-path="url(#l)" fill="#CD1F45" d="M5.532 4.4c.608.142 1.517-.644 2.043.28-.39-.14-1.54.474-2.043-.28"/><defs><path id="m" d="M0 0h149.807v35.805H0z"/></defs><clipPath id="n"><use xlink:href="#m" overflow="visible"/></clipPath><path clip-path="url(#n)" fill="#CD1F45" d="M10.613 5.744c-.012.79-.83 1.646-.167 2.4-.27-.005-.595-.1-.782-.253-.105-.083-.083.38-.068.475.012.08-.506-.488-.7-.35-.548.395-.787.56-1.602.59-.226.006-.345.188-.41.387-.184-.38-.046-1.238.06-1.62.288-1.046 1.34-1.356 2.184-1.856.604-.358.864-1.063.833-1.75.43.537.663 1.304.653 1.978"/><defs><path id="o" d="M0 0h149.807v35.805H0z"/></defs><clipPath id="p"><use xlink:href="#o" overflow="visible"/></clipPath><path clip-path="url(#p)" fill="#CD1F45" d="M6.754 14.658c.102.022.024.106-.015.135-.085.055-.142.123-.195.207-.04.062-.068.13-.054.207.012.057.03.104.053.155.012.033.04.052.064.076.01.013.047.06.05.062-.024-.08.09-.162.114-.146.523.304.555-.31.867-.518.133-.09.433.012.354.285.313-.165.404-.585.648-.85.536-.584 1.288-.97 2.004-1.287-.26-.272-.64-.504-.832-.817-.095-.156-.21-.46.002-.404.878.23 1.37-.307 1.47-.998 1.302.168 1.64-1.062 1.813-1.992.085-.45.33-.49.062-1.258-.11-.322.577-.428.46-.98-.032-.153-.223-.31-.333-.325.105.298-.396.374-.45.495-.083.19-.208.346-.226.547-.424-.588-.08-1.293.317-1.844.58-.802 1.785-.38 2.293.137.01-.258-.192-.588-.357-.746.477-.063.99.226 1.637-.116.375-.2.75-.37.926-.81-.793.107-1.87-.5-2.584-.626-1.335-.232-2.23.678-2.708 1.762-.475 1.084-.17 1.893.346 2.703.13.203-.457.068-.688.188-.227.116-.317.397-.268.643.284-.306 1.038-.117 1.106.403.093.707-.62 1.732-1.306 1.427-.735-.33-1.15-1.105-1.396-1.98-.623.543-1.787.095-2.326.625-.514.502.8.844 1.312 1.08.188.088.377.28.346.52-.8-.473-1.767.062-1.72.92.037.638.818 1.036 1.472 1.09.27.022.435.325.104.53-.58.36-1.226.766-1.85.11-.103-.108-.476-.04-.55.158-.037.096-.05.246-.033.344.034-.06.073-.145.127-.14.062.01.137.075.128.12-.055.32-.475.112-.604.362 0 .007-.01.01-.013.017-.007.02-.02.038-.027.056-.086.17-.203.277.006.408-.004-.03.104.135.103.164.01-.154.17-.15.17-.15l.095.01.09.04z"/><defs><path id="q" d="M0 0h149.807v35.805H0z"/></defs><clipPath id="r"><use xlink:href="#q" overflow="visible"/></clipPath><path clip-path="url(#r)" fill="#CD1F45" d="M4.043 11.646c-.083-.026-.17.004-.25.04-.053.024-.115 0-.148.054-.02.03-.028.065-.02.104.005.02.014.057.03.068-.11-.01-.215-.082-.3-.158-.024-.025-.042-.053-.067-.08-.018-.018-.016-.05-.026-.074-.01-.024-.007-.055-.007-.082-.003-.074-.005-.15.03-.223.016-.03.03-.064.054-.092.018-.023.035-.04.055-.062.058-.054.12-.095.193-.116.107-.032.227-.022.33.02.083.038.182.034.268.058.047.013.133-.12.07-.137-.273-.065-.272-.14-.375-.415-.046-.055-.108.008-.136.037 0-.53.627-.566.89-.355.39.312.097.925.575 1.095.248.088.51.155.77.047.46-.195 0-.66.148-1.054.302-.79.97-.834 1.765-.07-.71.236-1.043 1.18-.653 1.798-.628-.246-1.42.17-1.86.45.41-.41-.165-.74-.31-.667l-.177.12c-.084.106-.09.217-.192.317-.057.055-.09.066-.165.086-.105.027-.17.02-.263-.043-.017-.01-.072.015-.084.03-.05.06-.002.09-.002.114-.01-.01-.076-.062-.086-.068-.06-.045-.127-.084-.164-.143-.037-.062-.062-.218-.02-.302.04-.08.125-.107.18-.165.053-.053-.01-.135-.072-.143"/><g><defs><path id="s" d="M0 0h149.807v35.805H0z"/></defs><clipPath id="t"><use xlink:href="#s" overflow="visible"/></clipPath><path clip-path="url(#t)" fill="#CD1F45" d="M19.31 4.654c.057.037-.005.142-.068.158-.076.02-.185-.012-.25.015-.3.108-.302.846-.26.762.044-.097.266-.034.407-.007.23.047.405-.422.56-.408.356.03.692.48.83.77.023.055-.152.057-.165.24.49-.048.903.27 1.258.56.173-.3.346-.483.542-.68-.736-.717-2.2-.938-1.975-2.24.03-.17-.16-.315-.244-.4-.094-.09-.312-.095-.443-.126.14.288-.112.317-.076.774 0 .016-.042.006-.058 0-.09-.04-.163-.093-.247-.146-.076-.047-.147-.035-.23-.023-.052.01-.098.03-.14.062-.07.05-.106.113-.154.184l-.03.04c-.017.017-.048.066-.05.09.038-.002.157.007.18.037.03.056.033.115.074.166.05.066.093.066.166.1.114.048.218.068.343.058"/></g><g><defs><path id="u" d="M0 0h149.807v35.805H0z"/></defs><clipPath id="v"><use xlink:href="#u" overflow="visible"/></clipPath><path clip-path="url(#v)" fill="#CD1F45" d="M21.212 4.13c.46-.034.915-.388 1.423.21-.094-.047-.203-.062-.26-.016-.562.452-1.245.3-1.605-.263.147-.02.323.08.442.07"/></g><g><defs><path id="w" d="M0 0h149.807v35.805H0z"/></defs><clipPath id="x"><use xlink:href="#w" overflow="visible"/></clipPath><path clip-path="url(#x)" fill="#CD1F45" d="M23.2 5.797c.755-.38 1.518-.69 1.828-1.625.062-.185.2.27.21.297.398 1.142-.397 2.278-.233 3.444-.265-.162-.565-.273-.856-.283-1.038-.028-1.283.6-1.342.542-.284-.287-1.1-.533-1.042-.48-.485-.448.914-1.63 1.433-1.895"/></g><g><defs><path id="y" d="M0 0h149.807v35.805H0z"/></defs><clipPath id="z"><use xlink:href="#y" overflow="visible"/></clipPath><path clip-path="url(#z)" fill="#CD1F45" d="M21.136 13.404c.104.158-.034-.092.084.183.546-.23 1.112-.492 1.718-.246-.27-1.23.63-1.526.7-1.712.113-.295-.487-.88-.94-.717-.575.206-.338.935-.444 1.443-.062.28-.408.488-.698.388-.478-.163-.67-.606-.787-1.106-.08-.33-.726-.37-.865-.1-.396.77.236-.09.194.495-.007.1-.464.024-.565.37-.07.238.155.396.438.48.053.015-.055-.118.016-.147.05-.02.26.093.233.105-.27.166-.34.55.146.72 0 0-.036-.14 0-.167.38-.282.774.024.775.015"/></g><g><defs><path id="A" d="M0 0h149.807v35.805H0z"/></defs><clipPath id="B"><use xlink:href="#A" overflow="visible"/></clipPath><path clip-path="url(#B)" fill="#CD1F45" d="M12.916 21.176c.453.21.6-.016 1.2-.11.08-.017.42.204.516.315-.6.095-1.327.618-1.716-.204"/></g><g><defs><path id="C" d="M0 0h149.807v35.805H0z"/></defs><clipPath id="D"><use xlink:href="#C" overflow="visible"/></clipPath><path clip-path="url(#D)" fill="#CD1F45" d="M12.673 21.654c-.028-.03-.067-.043-.104-.06-.037-.015-.076-.028-.12-.034-.012-.004-.085-.02-.098-.022-.003.026.032.096.013.112-.048.045-.064.035-.104.093-.014.022-.027.045-.034.07-.01.053-.034.112-.04.17-.002.03.01.104.02.13.003.015.034.08.044.1l.067.073c.084.086.017.034.12.14.053.048-.023.136-.075.12-.353-.1-.4-.51-.722-.635-.232-.088-.57.093-.604.447.08-.022.16.01.177.072.086.356.61.145.622.395.01.164-.394-.03-.55.075-.21.142-.24.543-.056.777.19-.182.43.084.612-.05.13-.09.176-.222.31-.282.402-.176.52.193.433.566.218-.1.73-.204.847-.237.212-.057.222-.547.48-.728-.368-.002-.823-.16-.928-.52-.01-.04.02-.083.02-.126.01-.138-.002-.27-.055-.397-.008-.012-.02-.028-.03-.045l-.04-.062c-.036-.05-.09-.074-.145-.107-.02-.017-.052-.02-.067-.044"/></g><g><defs><path id="E" d="M0 0h149.807v35.805H0z"/></defs><clipPath id="F"><use xlink:href="#E" overflow="visible"/></clipPath><path clip-path="url(#F)" fill="#CD1F45" d="M9.967 24.19c.16.313-.633-.187-.93.274-.097.15-.045.486-.045.676.183-.166.362.148.704-.152.037.033.078.056.027.107-.127.125-.197.285-.13.438.04.1.323.3.326.28.027-.203.376 0 .432-.4.022-.165.07-.44.312-.342.218.092.263.34.212.586.35-.113.962-.472 1.328-.207.49.353 1.3.5 1.876.68-.382-.265-.505-.958-.44-1.41-.906.18-1.856.15-2.697-.237-.23-.108-.198-.373-.27-.592-.078-.245-.387-.474-.67-.452-.15.013-.512.33-.443.347-.022-.007-.02.045-.035.067.068-.043.155 0 .188.072.02.053.043.107.086.15.05.05.14.063.167.117"/></g><g><defs><path id="G" d="M0 0h149.807v35.805H0z"/></defs><clipPath id="H"><use xlink:href="#G" overflow="visible"/></clipPath><path clip-path="url(#H)" fill="#CD1F45" d="M12.14 29.143c.175-.215.32-.1.398-.098.185.006.17.266.152.43.72-.35 1.406-.846 2.252-.664-.49-.513-.317-1.618.377-1.755.003 0-.448-.074-.495-.104-.606-.385-1.348-.75-1.752.054-.203.4.17.723.445 1.053.05.062-.03.096-.096.113-.662.17-1.882.268-1.937-.72-.006-.104-.262-.186-.428-.182-.49.017-.48.642-.426.6.108-.08.437-.053.396.197-.035.232-.49-.123-.676.11-.15.196-.146.52-.04.735-.02-.078.07-.138.122-.146.508-.086.535.092.385.582-.012.037.15.35.26.377-.01-.002-.008-.07.007-.094.014-.025.04-.042.063-.052.058-.02.113-.015.168-.03.027-.007.048-.024.072-.04.04-.023.066-.06.096-.096.117-.148.223-.338.423-.36.09-.007.15.034.23.085"/></g><g><defs><path id="I" d="M0 0h149.807v35.805H0z"/></defs><clipPath id="J"><use xlink:href="#I" overflow="visible"/></clipPath><path clip-path="url(#J)" fill="#CD1F45" d="M17.398 31.44c.464-.462.8-1.077 1.297-1.525-.545-.32-1.22-.654-1.292-1.377-.005-.05.075-.103.096-.095.756.427 1.777.46 2.324-.313.44-.625.632-1.642 1.49-1.697-.285-.55.035-1.186.507-1.475-.157-.062-.36-.19-.54-.156-.218.035-.31.332-.558.375.39-1.31-.363-3.143-1.81-3.11-.27.005-.62.225-.71.52-.082.28-.125.63.075.87.474.564.814 1.183.665 1.93.337-.29.647-.72.638-1.175-.002-.115.205-.033.236-.08.395-.578-.252-.937-.594-1.3-.096-.1.146-.253.178-.24 1.238.368 1.355 1.894.824 2.888-.142-.178-.666-.12-.842-.18.578.293.428.334.403.43-.043.176-.563.1-.664.228-.173.223-.305.32-.316 1.06.24-.26.555-.653.896-.48.73.375-.036 1.635-.726 1.844-.588.178-1.13-.008-1.494-.52-.525-.74-.146-1.638-.518-2.388-.312.078-.242.482-.404.41-.57-.266-.896-.88-1.312-1.39-.172.06-.248.22-.414.212-.244-.013-.708-.086-.807.037-.113.145-.197 1.186.813 1.56.688.26 1.232.485 1.664 1.022-.29.022-.392-.117-.628-.125-.233-.01-.38.082-.558.172-.168.088-.365.418-.333.682.158 1.26 1.64 1.277 2.318 2.074.118.135-.177.684-.456.904-.236.19-.807-.285-.713-.688.075-.32-.702-.537-.974-.168.106-.014.135.06.125.11-.048.296.32.308.31.458-.018.207-.197-.09-.34-.115-.313-.063-.625.046-.81.298-.055.074-.178.195-.123.324.24-.115.365.258.59.14.134-.066.246-.187.408-.145.066.018.134.104.074.143-.438.28-.787.674-.472 1.12.008-.104.092-.18.157-.196.128-.037.296.05.42.01.203-.067.1-.268.177-.413.12-.228.533-.603.766-.33.043.05.01.234-.115.236.13-.002.242.123.353.1.03-.005.062-.005.09-.02.025-.012.055-.018.072-.037.05-.054.11-.107.118-.19.093.01.212.02.272-.06.06-.08.134-.144.198-.204"/></g><g><defs><path id="K" d="M0 0h149.807v35.805H0z"/></defs><clipPath id="L"><use xlink:href="#K" overflow="visible"/></clipPath><path clip-path="url(#L)" fill="#CD1F45" d="M15.287 22.328c.81-.228 1.713-.648 1.906-1.55.246.148.323.484.326.69.018 1.13-.477 2.104-.236 3.29.026.133.27.553.16.504-.137-.062-.422-.33-.578-.205-.196.154-.184.396-.278.34-.355-.217-.732-.537-.906-.95-.066-.156-.04-.492-.084-.443-.27.297-.824.358-1.236.422.095-.084.18-.422.163-.49-.322-.162-.787.392-.78.32.02-.18.038-.234.056-.283.24-.707.693-1.424 1.487-1.645"/></g><g><defs><path id="M" d="M0 0h149.807v35.805H0z"/></defs><clipPath id="N"><use xlink:href="#M" overflow="visible"/></clipPath><path clip-path="url(#N)" fill="#CD1F45" d="M8.682 3.527c.034-.016.05-.04.047-.043-.294-.414-.65-.373-.8-.004-.1.25.49.168.752.047m.575-.437c.21-.008.366-.137.5-.28-.01.12.163.288.098.415-.08.158-.283.252-.322.4-.084.3.158.596-.02.895-.52.88-1.658.59-2.433.785.053-.096-.015-.236-.072-.277.346.046.803-.03.896-.29.113-.32.17-.56.02-.822-.25-.44-.767-.234-1.154-.084-.062-.27.192-.436.338-.473.412-.11.785-.288 1.167-.43.334-.125.64.168.982.16"/></g><g><defs><path id="O" d="M0 0h149.807v35.805H0z"/></defs><clipPath id="P"><use xlink:href="#O" overflow="visible"/></clipPath><path clip-path="url(#P)" fill="#CD1F45" d="M23.752 3.37c.032-.02-.025.025.002-.003-.322-.16-.74-.37-.888.06-.108.313.607.093.886-.056m.516 1.38c-.11.096-.297.092-.424.178-.076.055-.146.11-.226.16-.038.022-.15.072-.19.082-.112.03-.088.018-.192.03-.062.01-.093.01-.153.01-.063 0-.255.007-.315.005-.147-.002-.174.008-.32-.016-.086-.014-.168-.036-.247-.065-.055-.016-.11-.027-.166-.027.006-.06.013-.123.06-.162.062-.053.074-.006.164-.014l.133.01c.022 0 .046-.002.068-.004.038-.006.07-.014.105-.03.044-.02.092-.033.133-.066.014-.012.03-.023.044-.037.028-.027.07-.043.098-.076.084-.103.146-.202.156-.335.01-.1.016-.2-.002-.3-.004-.017-.007-.034-.008-.048-.007-.078-.045-.15-.083-.223-.224-.43-.765-.01-1.136-.03 0-.08-.008-.23.033-.286.266-.34.674-.174.885-.33.715-.527.904-.146 1.65.06.223.063.543-.078.756-.17.05-.02.05.315.022.385-.088.235-.333.225-.42.436-.125.31-.145.747-.473.905"/></g><g><defs><path id="Q" d="M0 0h149.807v35.805H0z"/></defs><clipPath id="R"><use xlink:href="#Q" overflow="visible"/></clipPath><path clip-path="url(#R)" fill="#CD1F45" d="M15.33 20.604c.13.05.507-.16.645-.235.032-.022.058-.055.082-.08.002-.003-.003-.012-.008-.014-.11-.022-.208-.03-.313-.04-.08-.013-.14-.064-.22-.08-.02-.005-.038-.003-.06.006-.03.012-.042.032-.066.045-.038.018-.093.018-.127.05-.036.032-.064.063-.075.108-.016.053-.004.13.033.174.03.034.072.05.11.064m.982-.577c.33.078.688.09.902-.198.104.443-.304.5-.38.72-.116.332-.108.666-.432.838-.642.342-1.443.752-2.18.812.004-.09-.058-.257.062-.263.258-.012.46-.203.517-.354.082-.213-.01-.728-.2-.828-.224-.117-.42.062-.622.152-.086-.228.268-.603.818-.568-.017 0 .272-.313.26-.306.36-.247.756-.122 1.256-.007"/></g><g><defs><path id="S" d="M0 0h149.807v35.805H0z"/></defs><clipPath id="T"><use xlink:href="#S" overflow="visible"/></clipPath><path clip-path="url(#T)" fill="#CD1F45" d="M26.322 16.9c-.01-.108.263-.432.27-.67.024-.81.513-1.188.526-2.053.004-.225-.93-.438-.972-.922-.02-.242-.1-.59.144-.584.31.007.612-.048.832-.24.976-.86.15-2.034.032-3.07-.024-.228.396-.718.384-.878-.068-.88-.23-1.682.082-2.545-.245.222-.32.582-.525.77-.1.09-.15-.114-.142-.147.123-.76.426-1.424.776-2.146.415-.855.206-1.552-.563-1.808-.706-.233-1.387.422-1.464 1.1-.07.618.122 1.36.27 1.865.042.15.018.32.048.448.128-.514.143-1.047.132-1.59-.002-.13.104-.31.24-.348.46-.13.695.2.664.457-.1.81-.264 1.432-.46 2.237-.22.92.11 1.832.206 2.728-.352-.207-.736-.217-.872.332-.073.293.19.6.27.856.01-.352.34-.83.662-.614.396.262.41 1.522.322 1.69-.19.365-.508.625-.944.496-.248-.07-.146-.438-.296-.592-.786-.812-1.146-1.787-1.213-2.91-.01-.164.077-.596.055-.604-1.03-.425-1.504-.003-1.933.604-.07-.184-.466-.438-.496-.383-.194.36-.14 1.02.152 1.272.794.686 1.58 1.145 2.026 2.126-.477.062-.94.2-1.123.697-.19.52-.125 1.242.424 1.453.447.172 1.215-.02 1.383 0 .475.062 1.008.473.932.922-.003.023-.203 1.072-.658.812-.245-.144-.107-.718-.48-.808-.506-.12-.63.584-.566.52.162-.15.272.1.587.273-1.058-.23-.73.74-.69.634.054-.15.245.007.624-.022.014 0-.083.08-.088.088-.06.1-.09.146-.133.246-.02.05-.02.103-.012.152.005.053.022.098.052.143.005.01.015.02.026.023.004.002.02.026.02.026.023.002-.02-.075.042-.08.014 0 .06-.008.07-.004.028.013.063.03.094.037.025.007.055.012.085.018.072.008.098.012.16-.01.054-.02.106-.03.157-.066-.067.047.074-.068.067-.058.064-.14.105-.1.12-.122.112-.216.21-.234.46-.205.023.002.068.053.083.075.02.025.07.16.06.11.02.11.08.173.09.268"/></g><g><defs><path id="U" d="M0 0h149.807v35.805H0z"/></defs><clipPath id="V"><use xlink:href="#U" overflow="visible"/></clipPath><path clip-path="url(#V)" fill="#CD1F45" d="M18.7 7.168c-.065-.04-.087-.14-.13-.178-.015-.017-.025-.033-.04-.048-.022-.022-.032-.055-.042-.086-.043-.15-.02-.33.116-.43.005-.004.004-.014.006-.02.008-.015.027-.02.032-.03.004-.016.026-.016.02-.03.01.004.01-.01.014-.014.027-.033.03-.1-.024-.115.044.004.09.004.133.014.018.003.034.01.053.012.166.02.377.098.422.266l.058.066c.175.403.114 1.397 1.082 1.637.503.124 1.01.28 1.526.272-.125.504-.123 1.142.276 1.506-.58-.313-.97-.247-1.473-.727-.228-.212-.752-.503-1.005-.46-.104.018.146-.336-.088-.406-.153-.045-.56-.035-.63.07-.335.502-.69.5-.804.602.135-.114-.55-.674.3-.975.08-.03.11-.216.01-.26-.165-.08-.304.036-.468.134-.188.11-.23-.3-.525-.148-.06-.873.717-.946 1.18-.4.033.04.162-.012.108-.057l-.11-.192z"/></g><g><defs><path id="W" d="M0 0h149.807v35.805H0z"/></defs><clipPath id="X"><use xlink:href="#W" overflow="visible"/></clipPath><path clip-path="url(#X)" fill="#231F20" d="M29.248 3.37c-.12 5.732-.236 11.25-1.92 16.57L15.43 10.496 3.484 19.97C1.79 14.634 1.674 9.106 1.554 3.36l-.036-1.64h27.768c-.015.55-.026 1.1-.038 1.65m-5.176 23.47c-1.95 2.998-4.946 5.504-8.663 7.256-3.725-1.746-6.725-4.254-8.682-7.256-.326-.504-.63-1.008-.918-1.514l9.62-7.623 9.572 7.6c-.29.513-.598 1.025-.93 1.537M4.064 21.62l11.365-9.01 11.316 8.986c-.285.74-.604 1.48-.96 2.21l-10.356-8.22-10.403 8.25c-.358-.736-.677-1.473-.963-2.215M.954 1.17l.007.28c.017.644.03 1.284.043 1.925.175 8.334.337 16.207 5.265 23.768 2.033 3.12 5.154 5.716 9.024 7.51l.117.055.112-.056c3.865-1.798 6.98-4.394 9.01-7.51 4.928-7.558 5.093-15.427 5.267-23.76.013-.643.026-1.284.042-1.93l.006-.282H.954z"/></g></svg>