<?xml version="1.0" encoding="iso-8859-1"?>
<!-- Generator: Adobe Illustrator 18.0.0, SVG Export Plug-In . SVG Version: 6.00 Build 0)  -->
<!DOCTYPE svg PUBLIC "-//W3C//DTD SVG 1.1//EN" "http://www.w3.org/Graphics/SVG/1.1/DTD/svg11.dtd">
<svg version="1.1" id="ENG" xmlns="http://www.w3.org/2000/svg" xmlns:xlink="http://www.w3.org/1999/xlink" x="0px" y="0px"
	 viewBox="0 0 405.516 110.887" style="enable-background:new 0 0 405.516 110.887;" xml:space="preserve">
<g>
	<rect y="0" style="fill:none;" width="405.516" height="110.887"/>
	<g>
		<g>
			<g>
				<path d="M99.146,37.765v-7.306h2.812v7.232c0,2.083,1.041,3.16,2.758,3.16c1.717,0,2.758-1.041,2.758-3.068v-7.324h2.812v7.214
					c0,3.872-2.173,5.771-5.607,5.771C101.247,43.445,99.146,41.527,99.146,37.765z"/>
				<path d="M113.16,30.459h2.594l5.991,7.872v-7.872h2.776v12.785h-2.393l-6.192-8.128v8.128h-2.776V30.459z"/>
				<path d="M127.721,30.459h2.813v12.785h-2.813V30.459z"/>
				<path d="M132.636,30.459h3.105l3.342,9.004l3.343-9.004h3.032l-5.169,12.876h-2.484L132.636,30.459z"/>
				<path d="M147.435,30.459h9.644v2.502h-6.85v2.594h6.027v2.503h-6.027v2.684h6.941v2.503h-9.735V30.459z"/>
				<path d="M159.676,30.459h5.845c1.626,0,2.886,0.457,3.726,1.296c0.712,0.712,1.096,1.717,1.096,2.922v0.037
					c0,2.064-1.114,3.361-2.74,3.963l3.124,4.566h-3.288l-2.74-4.091h-2.21v4.091h-2.813V30.459z M165.338,36.669
					c1.37,0,2.155-0.73,2.155-1.808v-0.037c0-1.206-0.84-1.827-2.21-1.827h-2.794v3.671H165.338z"/>
				<path d="M172.009,41.381l1.662-1.991c1.15,0.95,2.356,1.553,3.817,1.553c1.15,0,1.845-0.457,1.845-1.206v-0.037
					c0-0.712-0.438-1.078-2.576-1.625c-2.575-0.658-4.237-1.37-4.237-3.909V34.13c0-2.319,1.863-3.854,4.475-3.854
					c1.863,0,3.452,0.585,4.749,1.625l-1.461,2.119c-1.133-0.786-2.247-1.26-3.324-1.26c-1.078,0-1.644,0.493-1.644,1.114v0.036
					c0,0.84,0.548,1.114,2.758,1.681c2.594,0.676,4.055,1.607,4.055,3.835v0.037c0,2.539-1.936,3.963-4.694,3.963
					C175.498,43.427,173.544,42.751,172.009,41.381z"/>
				<path d="M184.707,30.459h2.813v12.785h-2.813V30.459z"/>
				<path d="M193.695,33.052h-3.89v-2.593h10.593v2.593h-3.89v10.192h-2.813V33.052z"/>
				<path d="M206.156,38.203l-4.913-7.744h3.288l3.05,5.132l3.104-5.132h3.196l-4.913,7.689v5.096h-2.812V38.203z"/>
				<path d="M220.554,36.888v-0.037c0-3.635,2.868-6.612,6.813-6.612c3.944,0,6.775,2.94,6.775,6.575v0.037
					c0,3.635-2.867,6.612-6.812,6.612S220.554,40.522,220.554,36.888z M231.203,36.888v-0.037c0-2.192-1.607-4.019-3.872-4.019
					c-2.265,0-3.836,1.79-3.836,3.982v0.037c0,2.192,1.607,4.018,3.873,4.018C229.632,40.87,231.203,39.08,231.203,36.888z"/>
				<path d="M236.651,30.459h9.735v2.557h-6.923v2.722h6.101v2.557h-6.101v4.95h-2.812V30.459z"/>
				<path d="M253.131,30.459h3.014l2.648,8.657l2.867-8.694h2.411l2.868,8.694l2.648-8.657h2.94l-4.365,12.876h-2.447l-2.887-8.365
					l-2.886,8.365h-2.447L253.131,30.459z"/>
				<path d="M277.357,30.368h2.594l5.48,12.877h-2.941l-1.169-2.868h-5.406l-1.169,2.868h-2.867L277.357,30.368z M280.316,37.893
					l-1.699-4.146l-1.698,4.146H280.316z"/>
				<path d="M288.741,33.052h-3.891v-2.593h10.594v2.593h-3.891v10.192h-2.812V33.052z"/>
				<path d="M297.601,30.459h9.643v2.502h-6.849v2.594h6.027v2.503h-6.027v2.684h6.94v2.503h-9.735V30.459z"/>
				<path d="M309.843,30.459h5.845c1.626,0,2.886,0.457,3.727,1.296c0.712,0.712,1.096,1.717,1.096,2.922v0.037
					c0,2.064-1.114,3.361-2.74,3.963l3.123,4.566h-3.287l-2.74-4.091h-2.21v4.091h-2.812V30.459z M315.505,36.669
					c1.37,0,2.155-0.73,2.155-1.808v-0.037c0-1.206-0.84-1.827-2.21-1.827h-2.795v3.671H315.505z"/>
				<path d="M323.052,30.459h2.812v10.228h6.375v2.557h-9.188V30.459z"/>
				<path d="M333.065,36.888v-0.037c0-3.635,2.868-6.612,6.814-6.612c3.944,0,6.775,2.94,6.775,6.575v0.037
					c0,3.635-2.867,6.612-6.812,6.612C335.896,43.463,333.065,40.522,333.065,36.888z M343.713,36.888v-0.037
					c0-2.192-1.607-4.019-3.872-4.019c-2.265,0-3.836,1.79-3.836,3.982v0.037c0,2.192,1.607,4.018,3.873,4.018
					C342.143,40.87,343.713,39.08,343.713,36.888z"/>
				<path d="M348.595,36.888v-0.037c0-3.635,2.868-6.612,6.814-6.612c3.944,0,6.775,2.94,6.775,6.575v0.037
					c0,3.635-2.867,6.612-6.812,6.612C351.426,43.463,348.595,40.522,348.595,36.888z M359.244,36.888v-0.037
					c0-2.192-1.607-4.019-3.872-4.019c-2.265,0-3.836,1.79-3.836,3.982v0.037c0,2.192,1.608,4.018,3.873,4.018
					C357.673,40.87,359.244,39.08,359.244,36.888z"/>
				<path d="M99.256,49.841h8.355v1.796h-6.383V54.7h5.661v1.796h-5.661v4.57h-1.973V49.841z"/>
				<path d="M112.393,49.761h1.828l4.939,11.306h-2.084l-1.139-2.71h-5.309l-1.154,2.71h-2.021L112.393,49.761z M115.215,56.608
					l-1.94-4.49l-1.925,4.49H115.215z"/>
				<path d="M119.885,55.486v-0.032c0-3.191,2.389-5.806,5.789-5.806c2.069,0,3.32,0.722,4.395,1.748l-1.267,1.459
					c-0.898-0.834-1.86-1.395-3.143-1.395c-2.133,0-3.705,1.764-3.705,3.961v0.032c0,2.196,1.555,3.978,3.705,3.978
					c1.379,0,2.261-0.546,3.223-1.443l1.267,1.282c-1.171,1.22-2.454,1.989-4.555,1.989
					C122.322,61.26,119.885,58.709,119.885,55.486z"/>
				<path d="M132.044,56.304v-6.463h1.972v6.383c0,2.085,1.075,3.191,2.839,3.191c1.748,0,2.822-1.042,2.822-3.111v-6.463h1.973
					v6.367c0,3.352-1.892,5.036-4.827,5.036C133.904,61.243,132.044,59.56,132.044,56.304z"/>
				<path d="M144.362,49.841h1.973v9.43h5.901v1.796h-7.874V49.841z"/>
				<path d="M155.446,51.669h-3.56v-1.829h9.109v1.829h-3.56v9.397h-1.989V51.669z"/>
				<path d="M166.385,56.641l-4.459-6.8h2.341l3.127,4.955l3.175-4.955h2.261l-4.459,6.752v4.474h-1.988V56.641z"/>
				<path d="M178.159,55.486v-0.032c0-3.16,2.438-5.806,5.885-5.806c3.448,0,5.854,2.614,5.854,5.773v0.032
					c0,3.159-2.438,5.806-5.885,5.806C180.564,61.26,178.159,58.646,178.159,55.486z M187.83,55.486v-0.032
					c0-2.181-1.588-3.993-3.817-3.993c-2.23,0-3.785,1.78-3.785,3.961v0.032c0,2.181,1.587,3.978,3.816,3.978
					C186.274,59.432,187.83,57.667,187.83,55.486z"/>
				<path d="M192.29,49.841h8.355v1.796h-6.383V54.7h5.661v1.796h-5.661v4.57h-1.973V49.841z"/>
				<path d="M207.625,49.841h8.323v1.764h-6.351v2.919h5.629v1.764h-5.629v3.015h6.432v1.764h-8.404V49.841z"/>
				<path d="M218.373,49.841h1.828l6.014,7.763v-7.763h1.94v11.225h-1.651l-6.19-7.986v7.986h-1.94V49.841z"/>
				<path d="M230.547,55.486v-0.032c0-3.144,2.405-5.806,5.789-5.806c1.957,0,3.159,0.545,4.314,1.523l-1.251,1.492
					c-0.866-0.738-1.716-1.203-3.144-1.203c-2.068,0-3.641,1.812-3.641,3.961v0.032c0,2.31,1.523,4.009,3.817,4.009
					c1.059,0,2.021-0.336,2.71-0.85v-2.102h-2.871v-1.715h4.779v4.715c-1.107,0.945-2.694,1.748-4.683,1.748
					C232.857,61.26,230.547,58.758,230.547,55.486z"/>
				<path d="M243.733,49.841h1.973v11.225h-1.973V49.841z"/>
				<path d="M248.706,49.841h1.828l6.014,7.763v-7.763h1.94v11.225h-1.651l-6.19-7.986v7.986h-1.94V49.841z"/>
				<path d="M261.377,49.841h8.323v1.764h-6.351v2.919h5.629v1.764h-5.629v3.015h6.431v1.764h-8.403V49.841z"/>
				<path d="M272.124,49.841h8.323v1.764h-6.351v2.919h5.629v1.764h-5.629v3.015h6.431v1.764h-8.403V49.841z"/>
				<path d="M282.872,49.841h5.004c1.411,0,2.518,0.417,3.239,1.123c0.593,0.61,0.93,1.443,0.93,2.422v0.032
					c0,1.844-1.106,2.951-2.662,3.399l3.031,4.25h-2.342l-2.758-3.912h-2.47v3.912h-1.973V49.841z M287.731,55.406
					c1.411,0,2.31-0.738,2.31-1.876v-0.032c0-1.203-0.866-1.86-2.326-1.86h-2.87v3.769H287.731z"/>
				<path d="M294.581,49.841h1.973v11.225h-1.973V49.841z"/>
				<path d="M299.554,49.841h1.828l6.014,7.763v-7.763h1.94v11.225h-1.651l-6.19-7.986v7.986h-1.94V49.841z"/>
				<path d="M311.729,55.486v-0.032c0-3.144,2.405-5.806,5.789-5.806c1.957,0,3.159,0.545,4.314,1.523l-1.251,1.492
					c-0.866-0.738-1.716-1.203-3.143-1.203c-2.068,0-3.641,1.812-3.641,3.961v0.032c0,2.31,1.523,4.009,3.817,4.009
					c1.059,0,2.021-0.336,2.71-0.85v-2.102h-2.871v-1.715h4.779v4.715c-1.106,0.945-2.694,1.748-4.683,1.748
					C314.039,61.26,311.729,58.758,311.729,55.486z"/>
			</g>
		</g>
		<g>
			<path style="fill:#FFFFFF;" d="M64.672,82.233l-0.55-0.256c-6.113-2.828-11.045-6.936-14.267-11.881
				c-7.727-11.855-7.983-24.102-8.251-37.065c-0.02-0.985-0.043-1.969-0.066-2.957l-0.032-1.339h46.307l-0.032,1.339
				c-0.026,0.994-0.047,1.987-0.067,2.975c-0.273,12.958-0.529,25.198-8.252,37.047c-3.216,4.937-8.139,9.042-14.24,11.881
				L64.672,82.233z"/>
			<path style="fill:#FFD74F;" d="M82.585,59.463l-17.917-13.53L46.898,59.939c-3.3-9.379-3.173-19.14-3.417-29.156h42.354
				C85.597,40.629,85.715,50.228,82.585,59.463z"/>
			<path style="fill:#FFD74F;" d="M80.132,65.259c-0.645,1.249-1.361,2.485-2.164,3.719c-3.229,4.957-8.025,8.623-13.298,11.073
				c-5.296-2.45-10.089-6.116-13.32-11.073c-0.694-1.063-1.323-2.128-1.893-3.2l15.21-12.822L80.132,65.259z"/>
			<path style="fill:none;stroke:#000000;stroke-width:0.8228;" d="M64.67,80.051c-5.296-2.45-10.089-6.116-13.32-11.073
				c-7.872-12.081-7.545-24.913-7.869-38.194h42.354c-0.326,13.282,0.005,26.113-7.867,38.194
				C74.74,73.935,69.943,77.601,64.67,80.051z"/>
			<path style="fill:#CD1543;" d="M52.279,38.039c-2.146-0.455-4.055-2.047-3.594-4.073c0.005-0.02-0.083-0.525-0.267-0.593
				c-0.015-0.008-0.045-0.063-0.078-0.072c-0.082-0.02-0.149-0.056-0.218-0.106C48.099,33.176,48,33.144,48,33.106
				c-0.041,0.083-0.032,0.163-0.087,0.235c-0.021,0.028-0.052,0.072-0.084,0.086c-0.038,0.018-0.042,0.057-0.07,0.082
				c-0.162,0.163-0.075,0.408-0.05,0.593c0.008,0.047,0.027,0.105-0.03,0.115c-0.068,0.014-0.014-0.02-0.093-0.068
				c-0.017-0.012-0.046-0.042-0.066-0.052c-0.034-0.016-0.167-0.034-0.19-0.068c-0.023-0.035-0.013-0.045-0.046-0.075
				c-0.074-0.067-0.082-0.198-0.136-0.336c-0.01-0.022-0.031-0.144-0.031-0.172c0-0.136-0.351-0.353-0.215-0.24
				c0.048,0.035-0.005-0.059-0.194-0.104c-0.118-0.03-0.255-0.025-0.388-0.006c-0.027,0.001-0.054,0.022-0.073,0.038
				c-0.136,0.107-0.264,0.235-0.441,0.243c0.031-0.02,0.045,0.015,0.061,0.032c0.084,0.11,0.021,0.242,0.072,0.362
				c0.051,0.119,0.136,0.207,0.237,0.292c0.097,0.074,0.268-0.027,0.344,0.107c0-0.003,0.158,0.038,0.001,0.193
				c-0.288,0.292-0.608,0.059-0.85,0.595c0.364-0.155,0.405,0.398,0.559,0.417c0.69,0.094,1.216,0.215,1.596,0.919
				c0.231,0.426-0.414,0.446,0.17,0.546c0.298,0.05,0.497,0.203,0.647,0.41c0.157,0.222,0.178,0.52,0.349,0.727
				c0.122,0.146,0.168,0.177,0.315,0.3c0.067,0.054,0.28,0.111,0.361,0.129c0.079,0.024,0.127,0.064,0.201,0.091
				c0.082,0.029,0.167,0.058,0.235,0.113c0.059,0.049,0.205,0.099,0.238,0.163c0.061,0.119,0.011,0.239,0.076,0.357
				c0.019,0.033,0.11,0.003,0.147,0.017c0.037,0.013,0.119,0.018,0.141,0.013c0.141-0.031,0.174-0.04,0.278-0.054
				c0.161-0.018,0.143,0.033,0.349,0.022c0.045,0,0.062,0.031,0.121,0.031c0.04,0,0.11,0.043,0.122,0.007
				c0.064-0.197,0.166-0.387,0.281-0.58c0.116-0.19,0.106-0.21,0.253-0.41C52.092,38.184,52.298,38.041,52.279,38.039"/>
			<path style="fill:#CD1543;" d="M46.927,38.292c0.63,0.334,0.545,1.171,1.109,1.442c1.008,0.478,2.21,0.809,3.281,0.282
				c-0.239,0.742,0.024,1.369-0.078,1.452c-0.336,0.271-1.358-0.051-2.014-0.312c-0.451-0.178-0.817,0.49-1.315,0.432
				c0.025-0.058,0.083-0.228,0.049-0.335c-0.079-0.244-0.143-0.312-0.546-0.265c-0.26,0.029-0.152,0.24-0.541,0.436
				c-0.155-0.092-0.483-0.196-0.532,0.096c-0.023,0.138-0.296-0.474-0.24-0.577c0.255-0.458,0.306-0.565,0.289-0.663
				c-0.032-0.15-0.583-0.354-0.655-0.225c-0.172,0.298-0.681-0.975,0.817-0.893c-0.402-0.258-0.356-0.303-0.262-0.609
				c0.012-0.043-0.14-0.202-0.243-0.094c-0.033-0.118,0.047-0.245,0.14-0.257C46.435,38.165,46.676,38.15,46.927,38.292"/>
			<path style="fill:#CD1543;" d="M49.904,35.206c0.908,0.209,2.267-0.962,3.055,0.419C52.378,35.411,50.656,36.333,49.904,35.206"
				/>
			<path style="fill:#CD1543;" d="M57.501,37.215c-0.018,1.181-1.244,2.458-0.249,3.588c-0.408-0.005-0.889-0.146-1.172-0.376
				c-0.158-0.127-0.123,0.564-0.101,0.707c0.018,0.12-0.755-0.729-1.044-0.524c-0.821,0.592-1.177,0.834-2.396,0.879
				c-0.338,0.012-0.515,0.286-0.61,0.581c-0.276-0.566-0.072-1.849,0.087-2.42c0.431-1.565,2.005-2.028,3.266-2.78
				c0.903-0.536,1.29-1.589,1.244-2.613C57.167,35.061,57.516,36.208,57.501,37.215"/>
			<path style="fill:#CD1543;" d="M51.73,50.54c0.153,0.037,0.039,0.164-0.022,0.203c-0.124,0.083-0.212,0.186-0.29,0.308
				c-0.06,0.096-0.104,0.194-0.079,0.312c0.014,0.083,0.043,0.156,0.075,0.24c0.02,0.045,0.063,0.069,0.099,0.108
				c0.017,0.017,0.071,0.084,0.073,0.092c-0.034-0.12,0.135-0.237,0.171-0.216c0.782,0.454,0.828-0.467,1.296-0.778
				c0.2-0.134,0.647,0.022,0.533,0.427c0.467-0.252,0.603-0.874,0.966-1.269c0.804-0.87,1.929-1.452,2.998-1.922
				c-0.388-0.41-0.956-0.757-1.244-1.227c-0.143-0.232-0.313-0.689,0.003-0.605c1.313,0.343,2.05-0.457,2.194-1.491
				c1.945,0.25,2.453-1.589,2.715-2.976c0.125-0.675,0.496-0.736,0.093-1.882c-0.17-0.48,0.86-0.638,0.687-1.467
				c-0.049-0.23-0.333-0.46-0.499-0.486c0.159,0.449-0.59,0.559-0.673,0.744c-0.125,0.286-0.311,0.514-0.335,0.813
				c-0.633-0.876-0.121-1.933,0.474-2.754c0.869-1.193,2.668-0.566,3.426,0.203c0.015-0.387-0.285-0.877-0.532-1.112
				c0.708-0.094,1.477,0.339,2.445-0.173c0.558-0.298,1.12-0.554,1.381-1.21c-1.187,0.163-2.795-0.75-3.864-0.938
				c-1.994-0.347-3.331,1.013-4.044,2.636c-0.711,1.618-0.256,2.829,0.516,4.039c0.194,0.305-0.685,0.108-1.032,0.286
				c-0.336,0.173-0.475,0.589-0.396,0.957c0.422-0.456,1.551-0.176,1.652,0.608c0.139,1.052-0.924,2.586-1.95,2.128
				c-1.099-0.495-1.723-1.654-2.085-2.956c-0.942,0.808-2.678,0.138-3.485,0.929c-0.766,0.752,1.197,1.26,1.96,1.615
				c0.282,0.132,0.563,0.418,0.517,0.776c-1.196-0.705-2.638,0.091-2.569,1.372c0.056,0.956,1.225,1.55,2.199,1.63
				c0.405,0.036,0.651,0.485,0.155,0.794c-0.863,0.541-1.829,1.144-2.761,0.166c-0.156-0.162-0.715-0.059-0.826,0.238
				c-0.052,0.145-0.071,0.367-0.048,0.51c0.051-0.087,0.11-0.213,0.188-0.206c0.091,0.016,0.203,0.111,0.191,0.181
				c-0.08,0.478-0.71,0.168-0.906,0.54c-0.002,0.01-0.013,0.017-0.019,0.026c-0.011,0.03-0.027,0.056-0.042,0.084
				c-0.127,0.252-0.302,0.413,0.011,0.608c-0.008-0.044,0.156,0.205,0.153,0.248c0.014-0.232,0.254-0.228,0.254-0.228l0.141,0.017
				L51.73,50.54z"/>
			<path style="fill:#CD1543;" d="M47.678,46.037c-0.123-0.037-0.252,0.008-0.374,0.064c-0.079,0.033-0.174-0.004-0.219,0.075
				c-0.029,0.049-0.048,0.102-0.03,0.157c0.006,0.032,0.019,0.082,0.045,0.102c-0.166-0.015-0.318-0.125-0.445-0.238
				c-0.04-0.037-0.066-0.08-0.104-0.117c-0.027-0.026-0.022-0.075-0.039-0.111c-0.018-0.04-0.011-0.082-0.011-0.124
				c-0.004-0.114-0.007-0.229,0.043-0.334c0.025-0.048,0.046-0.096,0.083-0.137c0.027-0.035,0.054-0.061,0.084-0.092
				c0.083-0.08,0.176-0.139,0.289-0.174c0.161-0.049,0.338-0.034,0.491,0.035c0.123,0.052,0.271,0.045,0.401,0.08
				c0.068,0.019,0.197-0.178,0.105-0.203c-0.41-0.099-0.407-0.207-0.56-0.623c-0.072-0.079-0.165,0.013-0.204,0.054
				c-0.002-0.79,0.937-0.842,1.331-0.528c0.58,0.466,0.145,1.383,0.859,1.635c0.371,0.13,0.765,0.231,1.15,0.07
				c0.69-0.293,0.001-0.987,0.223-1.572c0.452-1.188,1.449-1.247,2.638-0.108c-1.064,0.351-1.561,1.761-0.98,2.691
				c-0.938-0.371-2.119,0.249-2.778,0.67c0.614-0.614-0.247-1.107-0.465-1.001l-0.26,0.183c-0.125,0.158-0.136,0.322-0.29,0.476
				c-0.088,0.08-0.136,0.096-0.249,0.126c-0.156,0.04-0.253,0.028-0.392-0.061c-0.025-0.016-0.108,0.019-0.125,0.039
				c-0.076,0.092-0.002,0.138-0.004,0.17c-0.015-0.009-0.113-0.087-0.127-0.099c-0.09-0.065-0.191-0.125-0.246-0.217
				c-0.056-0.086-0.093-0.318-0.031-0.446c0.063-0.122,0.187-0.163,0.27-0.246c0.078-0.078-0.015-0.202-0.111-0.216"/>
			<path style="fill:#CD1543;" d="M70.5,35.585c0.087,0.056-0.004,0.207-0.102,0.233c-0.115,0.035-0.274-0.016-0.373,0.026
				c-0.447,0.165-0.448,1.265-0.388,1.134c0.067-0.14,0.397-0.048,0.61-0.007c0.345,0.072,0.606-0.631,0.834-0.61
				c0.537,0.049,1.039,0.717,1.245,1.157c0.037,0.08-0.225,0.084-0.244,0.35c0.732-0.068,1.351,0.407,1.879,0.842
				c0.258-0.447,0.517-0.726,0.81-1.015c-1.098-1.072-3.287-1.402-2.95-3.355c0.045-0.249-0.239-0.47-0.363-0.594
				c-0.143-0.136-0.468-0.146-0.667-0.193c0.21,0.436-0.168,0.475-0.113,1.165c0,0.021-0.063,0.005-0.085-0.001
				c-0.132-0.059-0.245-0.141-0.37-0.217c-0.112-0.071-0.219-0.053-0.344-0.036c-0.076,0.01-0.145,0.044-0.209,0.09
				c-0.104,0.077-0.157,0.172-0.23,0.277c-0.014,0.021-0.029,0.04-0.045,0.062c-0.022,0.022-0.069,0.094-0.074,0.132
				c0.06-0.007,0.235,0.009,0.266,0.054c0.051,0.08,0.053,0.172,0.114,0.249c0.075,0.098,0.137,0.099,0.249,0.146
				c0.17,0.071,0.322,0.104,0.51,0.088"/>
			<path style="fill:#CD1543;" d="M73.346,34.8c0.688-0.05,1.367-0.576,2.127,0.313c-0.139-0.068-0.304-0.091-0.388-0.021
				c-0.841,0.675-1.86,0.447-2.399-0.392C72.904,34.666,73.169,34.814,73.346,34.8"/>
			<path style="fill:#CD1543;" d="M76.318,37.294c1.128-0.573,2.271-1.031,2.734-2.433c0.091-0.272,0.3,0.406,0.315,0.446
				c0.595,1.708-0.594,3.408-0.349,5.149c-0.399-0.245-0.846-0.41-1.281-0.422c-1.549-0.045-1.917,0.894-2.006,0.809
				c-0.424-0.432-1.645-0.797-1.555-0.716C73.45,39.459,75.541,37.689,76.318,37.294"/>
			<path style="fill:#CD1543;" d="M73.233,48.665c0.155,0.24-0.052-0.134,0.124,0.271c0.819-0.342,1.663-0.731,2.567-0.368
				c-0.401-1.835,0.942-2.282,1.048-2.56c0.169-0.439-0.726-1.317-1.402-1.07c-0.862,0.305-0.502,1.396-0.666,2.157
				c-0.088,0.421-0.611,0.729-1.043,0.58c-0.714-0.246-1-0.911-1.175-1.657c-0.118-0.495-1.085-0.555-1.295-0.148
				c-0.593,1.151,0.355-0.137,0.293,0.742c-0.011,0.147-0.694,0.038-0.847,0.554c-0.104,0.355,0.233,0.593,0.653,0.714
				c0.079,0.025-0.081-0.175,0.026-0.219c0.076-0.027,0.386,0.138,0.349,0.155c-0.407,0.252-0.511,0.828,0.217,1.079
				c0.004,0-0.055-0.209,0-0.249c0.568-0.425,1.162,0.032,1.162,0.019"/>
			<path style="fill:#CD1543;" d="M60.943,60.284c0.681,0.316,0.898-0.022,1.793-0.165c0.125-0.022,0.627,0.308,0.774,0.473
				C62.614,60.732,61.524,61.512,60.943,60.284"/>
			<path style="fill:#CD1543;" d="M60.582,61.001c-0.043-0.047-0.104-0.065-0.158-0.085c-0.054-0.026-0.114-0.045-0.18-0.056
				c-0.015-0.005-0.126-0.03-0.144-0.036c-0.005,0.043,0.047,0.147,0.018,0.17c-0.071,0.068-0.096,0.051-0.155,0.138
				c-0.021,0.034-0.044,0.069-0.051,0.103c-0.015,0.084-0.051,0.169-0.061,0.26c-0.003,0.045,0.017,0.152,0.027,0.194
				c0.004,0.021,0.053,0.116,0.066,0.142c0,0,0.109,0.118,0.102,0.113c0.127,0.126,0.024,0.052,0.178,0.205
				c0.08,0.076-0.036,0.207-0.112,0.185c-0.525-0.151-0.599-0.761-1.078-0.95c-0.347-0.133-0.849,0.137-0.903,0.67
				c0.118-0.037,0.239,0.012,0.262,0.109c0.13,0.534,0.914,0.214,0.931,0.592c0.016,0.242-0.587-0.044-0.824,0.111
				c-0.312,0.211-0.356,0.812-0.079,1.164c0.286-0.273,0.64,0.126,0.918-0.074c0.193-0.138,0.261-0.335,0.459-0.42
				c0.601-0.267,0.781,0.289,0.647,0.845c0.324-0.151,1.089-0.307,1.264-0.357c0.317-0.085,0.332-0.817,0.72-1.086
				c-0.55-0.005-1.231-0.24-1.385-0.779c-0.015-0.056,0.024-0.124,0.03-0.188c0.015-0.205-0.005-0.402-0.083-0.59
				c-0.006-0.023-0.027-0.043-0.043-0.068c-0.02-0.029-0.039-0.062-0.06-0.096c-0.055-0.074-0.137-0.109-0.214-0.162
				c-0.035-0.017-0.078-0.025-0.103-0.059"/>
			<path style="fill:#CD1543;" d="M56.535,64.792c0.24,0.468-0.946-0.276-1.391,0.412c-0.144,0.224-0.066,0.725-0.066,1.005
				c0.273-0.246,0.545,0.225,1.054-0.223c0.056,0.049,0.117,0.081,0.04,0.16c-0.188,0.189-0.293,0.424-0.193,0.652
				c0.062,0.147,0.485,0.445,0.486,0.425c0.044-0.31,0.566,0,0.647-0.603c0.036-0.25,0.108-0.658,0.468-0.51
				c0.327,0.134,0.395,0.505,0.317,0.872c0.522-0.171,1.438-0.705,1.985-0.309c0.735,0.533,1.943,0.749,2.803,1.019
				c-0.571-0.398-0.753-1.435-0.656-2.106c-1.354,0.267-2.778,0.22-4.034-0.361c-0.343-0.157-0.297-0.556-0.401-0.883
				c-0.115-0.367-0.58-0.706-1-0.677c-0.226,0.016-0.769,0.494-0.665,0.515c-0.035-0.005-0.033,0.07-0.053,0.104
				c0.102-0.064,0.232,0,0.277,0.111c0.032,0.073,0.065,0.16,0.129,0.222C56.359,64.694,56.493,64.712,56.535,64.792"/>
			<path style="fill:#CD1543;" d="M59.784,72.198c0.261-0.322,0.479-0.151,0.594-0.15c0.275,0.013,0.257,0.397,0.229,0.646
				c1.078-0.522,2.104-1.264,3.369-0.992c-0.737-0.773-0.477-2.427,0.564-2.629c0.003,0-0.67-0.111-0.742-0.152
				c-0.905-0.575-2.011-1.123-2.619,0.08c-0.302,0.595,0.252,1.079,0.668,1.573c0.074,0.09-0.047,0.141-0.143,0.169
				c-0.991,0.252-2.812,0.401-2.896-1.079c-0.009-0.15-0.391-0.273-0.638-0.267c-0.732,0.022-0.721,0.955-0.639,0.893
				c0.163-0.123,0.652-0.08,0.594,0.298c-0.055,0.348-0.74-0.188-1.011,0.165c-0.229,0.293-0.223,0.774-0.06,1.103
				c-0.031-0.12,0.104-0.209,0.18-0.224c0.759-0.127,0.803,0.138,0.578,0.876c-0.018,0.058,0.223,0.519,0.383,0.562
				c-0.013-0.006-0.01-0.108,0.013-0.142c0.021-0.036,0.057-0.062,0.097-0.074c0.082-0.03,0.165-0.023,0.249-0.044
				c0.04-0.014,0.07-0.038,0.107-0.062c0.06-0.035,0.101-0.089,0.144-0.143c0.177-0.225,0.333-0.509,0.629-0.536
				c0.14-0.015,0.228,0.049,0.345,0.123"/>
			<path style="fill:#CD1543;" d="M67.644,75.632c0.694-0.69,1.196-1.61,1.939-2.283c-0.814-0.48-1.823-0.981-1.931-2.056
				c-0.008-0.071,0.115-0.153,0.142-0.143c1.133,0.639,2.661,0.686,3.476-0.469c0.659-0.935,0.944-2.454,2.229-2.537
				c-0.427-0.825,0.054-1.773,0.758-2.205c-0.238-0.091-0.544-0.288-0.81-0.235c-0.324,0.056-0.464,0.494-0.834,0.565
				c0.583-1.963-0.542-4.703-2.702-4.654c-0.405,0.008-0.929,0.333-1.062,0.776c-0.125,0.418-0.188,0.943,0.111,1.301
				c0.709,0.848,1.219,1.77,0.996,2.891c0.504-0.437,0.969-1.077,0.952-1.76c-0.003-0.172,0.306-0.049,0.353-0.118
				c0.59-0.867-0.376-1.401-0.886-1.948c-0.143-0.147,0.218-0.376,0.264-0.357c1.852,0.552,2.028,2.832,1.233,4.316
				c-0.211-0.265-0.995-0.176-1.261-0.267c0.867,0.434,0.643,0.497,0.604,0.643c-0.064,0.26-0.841,0.147-0.992,0.338
				c-0.259,0.332-0.456,0.48-0.476,1.584c0.358-0.39,0.83-0.979,1.341-0.714c1.09,0.559-0.054,2.443-1.083,2.757
				c-0.879,0.265-1.691-0.012-2.234-0.781c-0.788-1.107-0.218-2.445-0.774-3.569c-0.468,0.114-0.361,0.724-0.602,0.615
				c-0.857-0.397-1.343-1.312-1.964-2.081c-0.258,0.096-0.371,0.33-0.618,0.32c-0.368-0.016-1.058-0.129-1.207,0.056
				c-0.171,0.214-0.295,1.77,1.219,2.334c1.028,0.385,1.841,0.724,2.487,1.526c-0.434,0.036-0.584-0.176-0.938-0.188
				c-0.351-0.014-0.571,0.126-0.834,0.26c-0.253,0.131-0.548,0.625-0.497,1.02c0.236,1.886,2.448,1.906,3.466,3.102
				c0.175,0.199-0.267,1.019-0.684,1.352c-0.355,0.283-1.206-0.429-1.069-1.031c0.113-0.479-1.049-0.799-1.454-0.25
				c0.161-0.016,0.202,0.089,0.187,0.163c-0.072,0.446,0.479,0.462,0.461,0.687c-0.026,0.312-0.293-0.131-0.508-0.169
				c-0.466-0.096-0.935,0.067-1.208,0.443c-0.082,0.113-0.267,0.296-0.186,0.485c0.359-0.174,0.546,0.383,0.879,0.213
				c0.205-0.104,0.37-0.285,0.616-0.223c0.096,0.024,0.197,0.156,0.108,0.216c-0.652,0.417-1.175,1.006-0.703,1.673
				c0.013-0.159,0.136-0.267,0.237-0.295c0.188-0.052,0.442,0.077,0.627,0.016c0.302-0.099,0.146-0.403,0.262-0.617
				c0.18-0.342,0.797-0.905,1.144-0.493c0.065,0.073,0.015,0.345-0.171,0.354c0.19-0.009,0.362,0.181,0.525,0.145
				c0.045-0.005,0.093-0.005,0.137-0.026c0.036-0.018,0.078-0.025,0.104-0.058c0.078-0.078,0.166-0.156,0.179-0.28
				c0.138,0.013,0.315,0.026,0.408-0.094c0.089-0.118,0.199-0.214,0.298-0.303"/>
			<path style="fill:#CD1543;" d="M64.488,62.009c1.213-0.337,2.562-0.972,2.852-2.318c0.368,0.222,0.484,0.728,0.486,1.034
				c0.028,1.688-0.71,3.146-0.352,4.917c0.04,0.2,0.405,0.826,0.24,0.752c-0.202-0.089-0.63-0.491-0.864-0.307
				c-0.293,0.231-0.274,0.596-0.417,0.51c-0.532-0.321-1.096-0.802-1.355-1.42c-0.098-0.231-0.058-0.734-0.124-0.661
				c-0.404,0.439-1.234,0.534-1.848,0.626c0.14-0.125,0.265-0.625,0.241-0.729c-0.483-0.243-1.176,0.584-1.166,0.479
				c0.026-0.267,0.054-0.351,0.081-0.425C62.624,63.412,63.302,62.334,64.488,62.009"/>
			<path style="fill:#CD1543;" d="M55.473,33.246c0.315-0.009,0.546-0.204,0.749-0.416c-0.017,0.177,0.242,0.428,0.147,0.616
				c-0.121,0.237-0.425,0.381-0.481,0.599c-0.127,0.449,0.236,0.891-0.03,1.336c-0.778,1.32-2.479,0.886-3.64,1.173
				c0.08-0.14-0.019-0.351-0.108-0.408c0.516,0.062,1.203-0.048,1.341-0.438c0.167-0.481,0.254-0.837,0.026-1.23
				c-0.37-0.654-1.143-0.35-1.724-0.122c-0.091-0.406,0.289-0.653,0.508-0.708c0.614-0.16,1.172-0.428,1.746-0.642
				C54.508,32.817,54.961,33.257,55.473,33.246 M54.614,33.898c0.051-0.022,0.077-0.058,0.07-0.063
				c-0.44-0.617-0.969-0.554-1.193-0.004C53.338,34.201,54.224,34.081,54.614,33.898"/>
			<path style="fill:#CD1543;" d="M77.914,35.729c-0.166,0.142-0.443,0.138-0.631,0.267c-0.115,0.082-0.219,0.164-0.339,0.239
				c-0.056,0.033-0.222,0.106-0.283,0.124c-0.17,0.042-0.134,0.022-0.291,0.042c-0.092,0.016-0.135,0.017-0.23,0.017
				c-0.093,0-0.38,0.011-0.471,0.007c-0.221-0.003-0.259,0.012-0.481-0.024c-0.127-0.019-0.248-0.051-0.368-0.096
				c-0.08-0.024-0.166-0.04-0.25-0.04c0.008-0.09,0.019-0.186,0.089-0.247c0.093-0.077,0.111-0.007,0.244-0.017
				c0.005-0.002,0.192,0.015,0.198,0.015c0.03-0.004,0.067-0.004,0.102-0.005c0.057-0.009,0.106-0.021,0.158-0.046
				c0.067-0.033,0.139-0.052,0.198-0.1c0.021-0.019,0.046-0.032,0.067-0.059c0.044-0.038,0.104-0.057,0.144-0.108
				c0.124-0.157,0.22-0.306,0.233-0.504c0.013-0.146,0.024-0.297-0.002-0.449c-0.005-0.022-0.01-0.045-0.012-0.07
				c-0.007-0.118-0.067-0.226-0.124-0.332c-0.336-0.642-1.145-0.014-1.7-0.045c0-0.12-0.012-0.347,0.05-0.426
				c0.396-0.513,1.007-0.259,1.324-0.494c1.066-0.789,1.35-0.222,2.464,0.084c0.333,0.096,0.813-0.116,1.129-0.252
				c0.078-0.033,0.076,0.474,0.037,0.574c-0.132,0.354-0.499,0.335-0.626,0.654c-0.188,0.464-0.217,1.119-0.709,1.352
				 M77.145,33.664C77.192,33.637,77.105,33.704,77.145,33.664c-0.48-0.24-1.106-0.557-1.324,0.083
				C75.659,34.219,76.727,33.891,77.145,33.664"/>
			<path style="fill:#CD1543;" d="M66.021,58.569c0.493,0.116,1.032,0.131,1.351-0.301c0.157,0.67-0.456,0.753-0.569,1.079
				c-0.173,0.496-0.161,0.996-0.644,1.253c-0.959,0.512-2.16,1.128-3.261,1.214c0.009-0.135-0.083-0.382,0.093-0.391
				c0.385-0.016,0.686-0.303,0.773-0.532c0.118-0.319-0.018-1.087-0.305-1.237c-0.332-0.174-0.622,0.094-0.928,0.228
				c-0.126-0.336,0.4-0.896,1.225-0.848c-0.022-0.001,0.41-0.47,0.389-0.456C64.682,58.207,65.274,58.394,66.021,58.569
				 M64.555,59.432c0.19,0.07,0.757-0.242,0.961-0.357c0.05-0.027,0.085-0.074,0.125-0.117c0.002-0.004-0.004-0.017-0.013-0.017
				c-0.163-0.033-0.31-0.046-0.468-0.064c-0.118-0.016-0.207-0.093-0.327-0.116c-0.03-0.008-0.06-0.002-0.091,0.008
				c-0.046,0.02-0.062,0.051-0.1,0.07c-0.057,0.023-0.137,0.023-0.19,0.069c-0.053,0.05-0.099,0.096-0.113,0.165
				c-0.023,0.077-0.004,0.191,0.05,0.26C64.431,59.385,64.496,59.412,64.555,59.432"/>
			<path style="fill:#CD1543;" d="M80.987,53.892c-0.016-0.162,0.39-0.647,0.399-1.003c0.037-1.207,0.767-1.778,0.789-3.068
				c0.004-0.335-1.391-0.65-1.45-1.377c-0.03-0.359-0.15-0.88,0.211-0.873c0.464,0.007,0.914-0.073,1.244-0.362
				c1.457-1.285,0.225-3.04,0.05-4.59c-0.04-0.339,0.59-1.07,0.571-1.309c-0.099-1.316-0.343-2.515,0.125-3.807
				c-0.368,0.328-0.478,0.871-0.786,1.15c-0.149,0.134-0.223-0.168-0.212-0.218c0.184-1.136,0.638-2.131,1.162-3.208
				c0.624-1.28,0.311-2.322-0.84-2.7c-1.054-0.353-2.073,0.628-2.188,1.64c-0.105,0.925,0.182,2.035,0.403,2.793
				c0.062,0.221,0.024,0.472,0.07,0.663c0.19-0.763,0.21-1.561,0.199-2.371c-0.004-0.199,0.154-0.463,0.356-0.521
				c0.686-0.199,1.041,0.295,0.994,0.68c-0.151,1.215-0.395,2.142-0.684,3.345c-0.331,1.378,0.161,2.743,0.305,4.078
				c-0.527-0.309-1.102-0.324-1.305,0.497c-0.113,0.438,0.283,0.897,0.405,1.282c0.011-0.525,0.508-1.243,0.989-0.921
				c0.59,0.392,0.61,2.277,0.481,2.529c-0.286,0.547-0.757,0.938-1.413,0.744c-0.37-0.108-0.219-0.655-0.441-0.884
				c-1.176-1.217-1.713-2.67-1.812-4.353c-0.015-0.246,0.113-0.891,0.079-0.905c-1.541-0.635-2.248-0.002-2.887,0.905
				c-0.111-0.275-0.697-0.658-0.745-0.572c-0.289,0.541-0.205,1.522,0.231,1.903c1.187,1.027,2.362,1.714,3.03,3.181
				c-0.713,0.094-1.41,0.3-1.682,1.042c-0.286,0.777-0.188,1.857,0.632,2.173c0.67,0.256,1.818-0.031,2.069,0.002
				c0.712,0.092,1.505,0.704,1.393,1.377c-0.004,0.033-0.302,1.603-0.982,1.215c-0.367-0.211-0.162-1.074-0.722-1.205
				c-0.754-0.186-0.938,0.869-0.845,0.778c0.241-0.227,0.409,0.148,0.875,0.409c-1.581-0.345-1.088,1.102-1.033,0.945
				c0.082-0.228,0.369,0.009,0.935-0.03c0.02,0-0.122,0.117-0.131,0.129c-0.088,0.147-0.132,0.217-0.196,0.374
				c-0.033,0.069-0.027,0.149-0.018,0.225c0.006,0.077,0.034,0.146,0.076,0.214c0.007,0.016,0.021,0.026,0.039,0.036
				c0.006,0,0.029,0.04,0.033,0.04c0.034,0-0.03-0.113,0.061-0.121c0.023,0,0.089-0.011,0.106-0.005
				c0.043,0.014,0.097,0.045,0.141,0.054c0.041,0.012,0.082,0.02,0.128,0.028c0.108,0.013,0.144,0.016,0.239-0.016
				c0.082-0.03,0.161-0.044,0.236-0.1c-0.101,0.07,0.111-0.104,0.104-0.083c0.097-0.208,0.159-0.149,0.181-0.184
				c0.167-0.32,0.313-0.352,0.683-0.308c0.038,0.005,0.105,0.083,0.128,0.114c0.026,0.041,0.102,0.241,0.089,0.166
				C80.881,53.657,80.974,53.751,80.987,53.892"/>
			<path style="fill:#CD1543;" d="M69.59,39.346c-0.095-0.062-0.127-0.21-0.194-0.27c-0.018-0.023-0.037-0.047-0.057-0.071
				c-0.035-0.034-0.05-0.082-0.062-0.128c-0.065-0.224-0.031-0.494,0.172-0.642c0.008-0.005,0.006-0.018,0.01-0.026
				c0.01-0.021,0.042-0.031,0.046-0.051c0.008-0.019,0.04-0.019,0.03-0.045c0.013,0.008,0.013-0.012,0.02-0.017
				c0.04-0.051,0.044-0.147-0.035-0.173c0.065,0.005,0.13,0,0.196,0.021c0.026,0.005,0.054,0.01,0.078,0.014
				c0.249,0.031,0.562,0.145,0.629,0.399l0.087,0.096c0.26,0.607,0.171,2.092,1.619,2.447c0.752,0.186,1.51,0.42,2.281,0.409
				c-0.186,0.75-0.184,1.708,0.413,2.251c-0.867-0.474-1.445-0.375-2.202-1.09c-0.336-0.316-1.12-0.752-1.499-0.689
				c-0.156,0.03,0.217-0.5-0.131-0.602c-0.229-0.07-0.837-0.053-0.941,0.103c-0.502,0.754-1.027,0.75-1.204,0.899
				c0.204-0.174-0.818-1.007,0.451-1.456c0.121-0.045,0.166-0.324,0.015-0.391c-0.249-0.116-0.454,0.058-0.701,0.198
				c-0.281,0.168-0.344-0.444-0.786-0.217c-0.093-1.305,1.07-1.416,1.764-0.602c0.049,0.061,0.243-0.014,0.163-0.083L69.59,39.346z"
				/>
			<polygon points="46.649,58.956 64.668,44.625 82.715,58.562 81.975,60.794 64.668,47.588 47.526,61.323 			"/>
			<polygon points="48.952,64.848 64.668,51.982 80.465,64.18 79.387,66.347 64.668,55.038 50.054,66.906 			"/>
		</g>
	</g>
</g>
</svg>
