<?xml version="1.0" encoding="iso-8859-1"?>
<!-- Generator: Adobe Illustrator 18.0.0, SVG Export Plug-In . SVG Version: 6.00 Build 0)  -->
<!DOCTYPE svg PUBLIC "-//W3C//DTD SVG 1.1//EN" "http://www.w3.org/Graphics/SVG/1.1/DTD/svg11.dtd">
<svg version="1.1" id="ENG" xmlns="http://www.w3.org/2000/svg" xmlns:xlink="http://www.w3.org/1999/xlink" x="0px" y="0px"
	 viewBox="0 0 405.516 110.887" style="enable-background:new 0 0 405.516 110.887;" xml:space="preserve">
<g>
	<rect y="0" style="fill:none;" width="405.516" height="110.887"/>
	<g>
		<g>
			<g>
				<path style="fill:#FFFFFF;" d="M99.146,37.765v-7.306h2.812v7.232c0,2.083,1.041,3.16,2.758,3.16
					c1.717,0,2.758-1.041,2.758-3.068v-7.324h2.812v7.214c0,3.872-2.173,5.771-5.607,5.771
					C101.247,43.445,99.146,41.527,99.146,37.765z"/>
				<path style="fill:#FFFFFF;" d="M113.16,30.459h2.594l5.991,7.872v-7.872h2.776v12.785h-2.393l-6.192-8.128v8.128h-2.776V30.459z
					"/>
				<path style="fill:#FFFFFF;" d="M127.721,30.459h2.813v12.785h-2.813V30.459z"/>
				<path style="fill:#FFFFFF;" d="M132.636,30.459h3.105l3.342,9.004l3.343-9.004h3.032l-5.169,12.876h-2.484L132.636,30.459z"/>
				<path style="fill:#FFFFFF;" d="M147.435,30.459h9.644v2.502h-6.85v2.594h6.027v2.503h-6.027v2.684h6.941v2.503h-9.735V30.459z"
					/>
				<path style="fill:#FFFFFF;" d="M159.676,30.459h5.845c1.626,0,2.886,0.457,3.726,1.296c0.712,0.712,1.096,1.717,1.096,2.922
					v0.037c0,2.064-1.114,3.361-2.74,3.963l3.124,4.566h-3.288l-2.74-4.091h-2.21v4.091h-2.813V30.459z M165.338,36.669
					c1.37,0,2.155-0.73,2.155-1.808v-0.037c0-1.206-0.84-1.827-2.21-1.827h-2.794v3.671H165.338z"/>
				<path style="fill:#FFFFFF;" d="M172.009,41.381l1.662-1.991c1.15,0.95,2.356,1.553,3.817,1.553c1.15,0,1.845-0.457,1.845-1.206
					v-0.037c0-0.712-0.438-1.078-2.576-1.625c-2.575-0.658-4.237-1.37-4.237-3.909V34.13c0-2.319,1.863-3.854,4.475-3.854
					c1.863,0,3.452,0.585,4.749,1.625l-1.461,2.119c-1.133-0.786-2.247-1.26-3.324-1.26c-1.078,0-1.644,0.493-1.644,1.114v0.036
					c0,0.84,0.548,1.114,2.758,1.681c2.594,0.676,4.055,1.607,4.055,3.835v0.037c0,2.539-1.936,3.963-4.694,3.963
					C175.498,43.427,173.544,42.751,172.009,41.381z"/>
				<path style="fill:#FFFFFF;" d="M184.707,30.459h2.813v12.785h-2.813V30.459z"/>
				<path style="fill:#FFFFFF;" d="M193.695,33.052h-3.89v-2.593h10.593v2.593h-3.89v10.192h-2.813V33.052z"/>
				<path style="fill:#FFFFFF;" d="M206.156,38.203l-4.913-7.744h3.288l3.05,5.132l3.104-5.132h3.196l-4.913,7.689v5.096h-2.812
					V38.203z"/>
				<path style="fill:#FFFFFF;" d="M220.554,36.888v-0.037c0-3.635,2.868-6.612,6.813-6.612c3.944,0,6.775,2.94,6.775,6.575v0.037
					c0,3.635-2.867,6.612-6.812,6.612S220.554,40.522,220.554,36.888z M231.203,36.888v-0.037c0-2.192-1.607-4.019-3.872-4.019
					c-2.265,0-3.836,1.79-3.836,3.982v0.037c0,2.192,1.607,4.018,3.873,4.018C229.632,40.87,231.203,39.08,231.203,36.888z"/>
				<path style="fill:#FFFFFF;" d="M236.651,30.459h9.735v2.557h-6.923v2.722h6.101v2.557h-6.101v4.95h-2.812V30.459z"/>
				<path style="fill:#FFFFFF;" d="M253.131,30.459h3.014l2.648,8.657l2.867-8.694h2.411l2.868,8.694l2.648-8.657h2.94
					l-4.365,12.876h-2.447l-2.887-8.365l-2.886,8.365h-2.447L253.131,30.459z"/>
				<path style="fill:#FFFFFF;" d="M277.357,30.368h2.594l5.48,12.877h-2.941l-1.169-2.868h-5.406l-1.169,2.868h-2.867
					L277.357,30.368z M280.316,37.893l-1.699-4.146l-1.698,4.146H280.316z"/>
				<path style="fill:#FFFFFF;" d="M288.741,33.052h-3.891v-2.593h10.594v2.593h-3.891v10.192h-2.812V33.052z"/>
				<path style="fill:#FFFFFF;" d="M297.601,30.459h9.643v2.502h-6.849v2.594h6.027v2.503h-6.027v2.684h6.94v2.503h-9.735V30.459z"
					/>
				<path style="fill:#FFFFFF;" d="M309.843,30.459h5.845c1.626,0,2.886,0.457,3.727,1.296c0.712,0.712,1.096,1.717,1.096,2.922
					v0.037c0,2.064-1.114,3.361-2.74,3.963l3.123,4.566h-3.287l-2.74-4.091h-2.21v4.091h-2.812V30.459z M315.505,36.669
					c1.37,0,2.155-0.73,2.155-1.808v-0.037c0-1.206-0.84-1.827-2.21-1.827h-2.795v3.671H315.505z"/>
				<path style="fill:#FFFFFF;" d="M323.052,30.459h2.812v10.228h6.375v2.557h-9.188V30.459z"/>
				<path style="fill:#FFFFFF;" d="M333.065,36.888v-0.037c0-3.635,2.868-6.612,6.814-6.612c3.944,0,6.775,2.94,6.775,6.575v0.037
					c0,3.635-2.867,6.612-6.812,6.612C335.896,43.463,333.065,40.522,333.065,36.888z M343.713,36.888v-0.037
					c0-2.192-1.607-4.019-3.872-4.019c-2.265,0-3.836,1.79-3.836,3.982v0.037c0,2.192,1.607,4.018,3.873,4.018
					C342.143,40.87,343.713,39.08,343.713,36.888z"/>
				<path style="fill:#FFFFFF;" d="M348.595,36.888v-0.037c0-3.635,2.868-6.612,6.814-6.612c3.944,0,6.775,2.94,6.775,6.575v0.037
					c0,3.635-2.867,6.612-6.812,6.612C351.426,43.463,348.595,40.522,348.595,36.888z M359.244,36.888v-0.037
					c0-2.192-1.607-4.019-3.872-4.019c-2.265,0-3.836,1.79-3.836,3.982v0.037c0,2.192,1.608,4.018,3.873,4.018
					C357.673,40.87,359.244,39.08,359.244,36.888z"/>
				<path style="fill:#FFFFFF;" d="M99.256,49.841h8.355v1.796h-6.383V54.7h5.661v1.796h-5.661v4.57h-1.973V49.841z"/>
				<path style="fill:#FFFFFF;" d="M112.393,49.761h1.828l4.939,11.306h-2.084l-1.139-2.71h-5.309l-1.154,2.71h-2.021
					L112.393,49.761z M115.215,56.608l-1.94-4.49l-1.925,4.49H115.215z"/>
				<path style="fill:#FFFFFF;" d="M119.885,55.486v-0.032c0-3.191,2.389-5.806,5.789-5.806c2.069,0,3.32,0.722,4.395,1.748
					l-1.267,1.459c-0.898-0.834-1.86-1.395-3.143-1.395c-2.133,0-3.705,1.764-3.705,3.961v0.032c0,2.196,1.555,3.978,3.705,3.978
					c1.379,0,2.261-0.546,3.223-1.443l1.267,1.282c-1.171,1.22-2.454,1.989-4.555,1.989
					C122.322,61.26,119.885,58.709,119.885,55.486z"/>
				<path style="fill:#FFFFFF;" d="M132.044,56.304v-6.463h1.972v6.383c0,2.085,1.075,3.191,2.839,3.191
					c1.748,0,2.822-1.042,2.822-3.111v-6.463h1.973v6.367c0,3.352-1.892,5.036-4.827,5.036
					C133.904,61.243,132.044,59.56,132.044,56.304z"/>
				<path style="fill:#FFFFFF;" d="M144.362,49.841h1.973v9.43h5.901v1.796h-7.874V49.841z"/>
				<path style="fill:#FFFFFF;" d="M155.446,51.669h-3.56v-1.829h9.109v1.829h-3.56v9.397h-1.989V51.669z"/>
				<path style="fill:#FFFFFF;" d="M166.385,56.641l-4.459-6.8h2.341l3.127,4.955l3.175-4.955h2.261l-4.459,6.752v4.474h-1.988
					V56.641z"/>
				<path style="fill:#FFFFFF;" d="M178.159,55.486v-0.032c0-3.16,2.438-5.806,5.885-5.806c3.448,0,5.854,2.614,5.854,5.773v0.032
					c0,3.159-2.438,5.806-5.885,5.806C180.564,61.26,178.159,58.646,178.159,55.486z M187.83,55.486v-0.032
					c0-2.181-1.588-3.993-3.817-3.993c-2.23,0-3.785,1.78-3.785,3.961v0.032c0,2.181,1.587,3.978,3.816,3.978
					C186.274,59.432,187.83,57.667,187.83,55.486z"/>
				<path style="fill:#FFFFFF;" d="M192.29,49.841h8.355v1.796h-6.383V54.7h5.661v1.796h-5.661v4.57h-1.973V49.841z"/>
				<path style="fill:#FFFFFF;" d="M207.625,49.841h8.323v1.764h-6.351v2.919h5.629v1.764h-5.629v3.015h6.432v1.764h-8.404V49.841z"
					/>
				<path style="fill:#FFFFFF;" d="M218.373,49.841h1.828l6.014,7.763v-7.763h1.94v11.225h-1.651l-6.19-7.986v7.986h-1.94V49.841z"
					/>
				<path style="fill:#FFFFFF;" d="M230.547,55.486v-0.032c0-3.144,2.405-5.806,5.789-5.806c1.957,0,3.159,0.545,4.314,1.523
					l-1.251,1.492c-0.866-0.738-1.716-1.203-3.144-1.203c-2.068,0-3.641,1.812-3.641,3.961v0.032c0,2.31,1.523,4.009,3.817,4.009
					c1.059,0,2.021-0.336,2.71-0.85v-2.102h-2.871v-1.715h4.779v4.715c-1.107,0.945-2.694,1.748-4.683,1.748
					C232.857,61.26,230.547,58.758,230.547,55.486z"/>
				<path style="fill:#FFFFFF;" d="M243.733,49.841h1.973v11.225h-1.973V49.841z"/>
				<path style="fill:#FFFFFF;" d="M248.706,49.841h1.828l6.014,7.763v-7.763h1.94v11.225h-1.651l-6.19-7.986v7.986h-1.94V49.841z"
					/>
				<path style="fill:#FFFFFF;" d="M261.377,49.841h8.323v1.764h-6.351v2.919h5.629v1.764h-5.629v3.015h6.431v1.764h-8.403V49.841z"
					/>
				<path style="fill:#FFFFFF;" d="M272.124,49.841h8.323v1.764h-6.351v2.919h5.629v1.764h-5.629v3.015h6.431v1.764h-8.403V49.841z"
					/>
				<path style="fill:#FFFFFF;" d="M282.872,49.841h5.004c1.411,0,2.518,0.417,3.239,1.123c0.593,0.61,0.93,1.443,0.93,2.422v0.032
					c0,1.844-1.106,2.951-2.662,3.399l3.031,4.25h-2.342l-2.758-3.912h-2.47v3.912h-1.973V49.841z M287.731,55.406
					c1.411,0,2.31-0.738,2.31-1.876v-0.032c0-1.203-0.866-1.86-2.326-1.86h-2.87v3.769H287.731z"/>
				<path style="fill:#FFFFFF;" d="M294.581,49.841h1.973v11.225h-1.973V49.841z"/>
				<path style="fill:#FFFFFF;" d="M299.554,49.841h1.828l6.014,7.763v-7.763h1.94v11.225h-1.651l-6.19-7.986v7.986h-1.94V49.841z"
					/>
				<path style="fill:#FFFFFF;" d="M311.729,55.486v-0.032c0-3.144,2.405-5.806,5.789-5.806c1.957,0,3.159,0.545,4.314,1.523
					l-1.251,1.492c-0.866-0.738-1.716-1.203-3.143-1.203c-2.068,0-3.641,1.812-3.641,3.961v0.032c0,2.31,1.523,4.009,3.817,4.009
					c1.059,0,2.021-0.336,2.71-0.85v-2.102h-2.871v-1.715h4.779v4.715c-1.106,0.945-2.694,1.748-4.683,1.748
					C314.039,61.26,311.729,58.758,311.729,55.486z"/>
			</g>
		</g>
		<g>
			<path style="fill:#FFFFFF;" d="M53.527,33.873c0.222-0.551,0.752-0.61,1.19,0.005c0.006,0.007-0.018,0.041-0.069,0.063
				C54.256,34.125,53.375,34.242,53.527,33.873z M65.174,58.869c-0.118-0.016-0.208-0.094-0.328-0.115
				c-0.028-0.01-0.059-0.004-0.09,0.006c-0.046,0.02-0.062,0.051-0.1,0.07c-0.057,0.023-0.139,0.023-0.19,0.072
				c-0.052,0.047-0.098,0.095-0.112,0.162c-0.022,0.08-0.005,0.191,0.05,0.262c0.042,0.053,0.107,0.076,0.166,0.098
				c0.19,0.072,0.753-0.242,0.957-0.355c0.051-0.026,0.084-0.076,0.124-0.115c0.002-0.008-0.002-0.021-0.011-0.021
				C65.478,58.901,65.334,58.887,65.174,58.869z M86.231,30.423l-0.011,0.421c-0.023,0.966-0.043,1.929-0.063,2.89
				c-0.259,12.428-0.505,24.169-7.856,35.443c-3.025,4.647-7.674,8.523-13.442,11.206l-0.173,0.08l-0.174-0.08
				c-5.775-2.675-10.433-6.552-13.465-11.206c-7.354-11.283-7.599-23.031-7.859-35.469c-0.019-0.953-0.038-1.906-0.061-2.864
				l-0.011-0.421H86.231z M79.354,35.35c-0.017-0.041-0.223-0.717-0.313-0.446c-0.465,1.397-1.603,1.854-2.729,2.425
				c-0.775,0.394-2.862,2.161-2.141,2.831c-0.088-0.081,1.132,0.283,1.555,0.714c0.086,0.088,0.455-0.855,2-0.809
				c0.435,0.015,0.881,0.18,1.278,0.425C78.761,38.749,79.949,37.055,79.354,35.35z M74.165,34.339
				c0.554,0.029,1.362-0.6,1.695,0.043c0.059,0.107,0.117,0.215,0.125,0.333c0.002,0.023,0.005,0.047,0.01,0.07
				c0.028,0.152,0.016,0.303,0.003,0.449c-0.013,0.196-0.107,0.347-0.232,0.499c-0.041,0.051-0.102,0.072-0.143,0.113
				c-0.021,0.021-0.047,0.037-0.068,0.058c-0.059,0.045-0.131,0.065-0.199,0.096c-0.052,0.025-0.1,0.038-0.157,0.046
				c-0.033,0.003-0.072,0.003-0.1,0.008c-0.009,0-0.194-0.017-0.198-0.016c-0.136,0.01-0.153-0.06-0.246,0.02
				c-0.067,0.059-0.081,0.154-0.09,0.243c0.085,0.003,0.169,0.018,0.249,0.043c0.121,0.04,0.242,0.075,0.37,0.095
				c0.218,0.036,0.26,0.02,0.479,0.025c0.091,0.002,0.375-0.006,0.472-0.009c0.091,0,0.136-0.002,0.229-0.017
				c0.155-0.02,0.119,0,0.289-0.044c0.061-0.015,0.226-0.09,0.283-0.123c0.118-0.073,0.225-0.155,0.337-0.238
				c0.182-0.126,0.449-0.127,0.617-0.259c-0.023,0.014-0.035,0.039-0.061,0.051l0.077-0.06c-0.005,0.004-0.012,0.006-0.016,0.009
				c0.419-0.261,0.47-0.859,0.644-1.298c0.128-0.316,0.495-0.299,0.627-0.65c0.039-0.102,0.04-0.605-0.038-0.574
				c-0.314,0.137-0.794,0.348-1.127,0.254c-1.112-0.308-1.394-0.876-2.459-0.087c-0.318,0.232-0.925-0.019-1.323,0.492
				C74.154,33.993,74.165,34.216,74.165,34.339z M72.684,34.742c0.539,0.837,1.557,1.067,2.396,0.389
				c0.087-0.067,0.25-0.043,0.391,0.022c-0.758-0.889-1.439-0.362-2.126-0.312C73.166,34.853,72.904,34.707,72.684,34.742z
				 M69.327,35.068c0.058-0.006,0.232,0.006,0.267,0.054c0.05,0.081,0.051,0.17,0.111,0.248c0.075,0.096,0.139,0.098,0.247,0.143
				c0.172,0.075,0.323,0.107,0.51,0.091l0.041,0.02c0.086,0.058-0.005,0.208-0.101,0.235c-0.115,0.033-0.274-0.016-0.372,0.025
				c-0.448,0.163-0.448,1.262-0.387,1.132c0.066-0.14,0.395-0.048,0.609-0.005c0.342,0.07,0.604-0.63,0.83-0.609
				c0.537,0.048,1.039,0.713,1.243,1.152c0.037,0.079-0.226,0.083-0.243,0.353c0.729-0.069,1.349,0.407,1.877,0.84
				c0.255-0.444,0.516-0.724,0.807-1.017c-1.096-1.066-3.284-1.397-2.944-3.346c0.046-0.249-0.238-0.469-0.361-0.591
				c-0.144-0.138-0.468-0.145-0.667-0.191c0.209,0.432-0.164,0.472-0.113,1.159c0,0.022-0.062,0.009-0.086-0.002
				c-0.132-0.057-0.243-0.14-0.368-0.216c-0.111-0.071-0.217-0.051-0.344-0.034c-0.074,0.009-0.146,0.046-0.209,0.09
				c-0.104,0.074-0.156,0.17-0.229,0.275c-0.016,0.019-0.029,0.043-0.043,0.061C69.376,34.955,69.33,35.028,69.327,35.068z
				 M67.835,40.345c0.44-0.225,0.504,0.385,0.786,0.219c0.244-0.146,0.45-0.313,0.698-0.2c0.148,0.068,0.106,0.344-0.018,0.39
				c-1.264,0.449-0.242,1.281-0.45,1.454c0.181-0.152,0.703-0.148,1.205-0.896c0.103-0.159,0.71-0.173,0.937-0.107
				c0.348,0.107-0.023,0.633,0.132,0.606c0.377-0.063,1.162,0.372,1.496,0.688c0.751,0.712,1.331,0.613,2.198,1.085
				c-0.595-0.542-0.597-1.496-0.412-2.247c-0.771,0.012-1.525-0.222-2.278-0.406c-1.441-0.358-1.354-1.838-1.614-2.441l-0.085-0.099
				c-0.068-0.252-0.382-0.364-0.631-0.397c-0.025-0.004-0.051-0.01-0.077-0.015c-0.067-0.016-0.13-0.012-0.198-0.019
				c0.081,0.025,0.079,0.119,0.035,0.171c-0.005,0.003-0.005,0.025-0.019,0.02c0.012,0.025-0.022,0.025-0.028,0.044
				c-0.004,0.019-0.038,0.027-0.048,0.047c-0.003,0.012,0,0.023-0.007,0.028c-0.205,0.149-0.238,0.416-0.175,0.642
				c0.015,0.046,0.028,0.091,0.062,0.126c0.022,0.024,0.038,0.048,0.06,0.071c0.064,0.059,0.097,0.205,0.195,0.267l0.159,0.283
				c0.081,0.07-0.113,0.145-0.159,0.082C68.904,38.929,67.744,39.039,67.835,40.345z M76.962,46.032
				c0.17-0.444-0.724-1.317-1.398-1.073c-0.859,0.307-0.504,1.394-0.663,2.154c-0.091,0.419-0.61,0.728-1.043,0.579
				c-0.713-0.245-0.999-0.909-1.175-1.653c-0.118-0.496-1.082-0.556-1.292-0.152c-0.591,1.153,0.353-0.13,0.291,0.742
				c-0.009,0.149-0.69,0.038-0.842,0.554c-0.104,0.354,0.232,0.591,0.653,0.715c0.077,0.021-0.084-0.176,0.022-0.22
				c0.078-0.026,0.387,0.136,0.35,0.157c-0.405,0.249-0.51,0.823,0.215,1.072c0.006,0.003-0.053-0.208,0.001-0.248
				c0.57-0.422,1.158,0.033,1.16,0.021h-0.009c0.027,0.041,0.04,0.061,0.048,0.071c0,0.01,0.013,0.052,0.076,0.199
				c0.814-0.342,1.66-0.731,2.56-0.366C75.519,46.749,76.857,46.305,76.962,46.032z M56.51,41.204
				c-0.938,0.807-2.671,0.142-3.476,0.93c-0.765,0.752,1.193,1.258,1.955,1.613c0.283,0.13,0.563,0.417,0.516,0.772
				c-1.195-0.703-2.632,0.096-2.563,1.372c0.053,0.954,1.222,1.55,2.194,1.628c0.404,0.033,0.648,0.485,0.156,0.792
				c-0.864,0.541-1.827,1.141-2.756,0.165c-0.157-0.16-0.715-0.061-0.825,0.235c-0.053,0.145-0.071,0.367-0.049,0.512
				c0.05-0.089,0.109-0.212,0.188-0.204c0.092,0.015,0.204,0.11,0.191,0.179c-0.08,0.475-0.709,0.168-0.903,0.539
				c-0.004,0.01-0.015,0.018-0.02,0.025c-0.012,0.032-0.028,0.055-0.043,0.085c-0.127,0.255-0.3,0.411,0.014,0.607
				c-0.01-0.045,0.152,0.205,0.15,0.248c0.016-0.232,0.256-0.228,0.256-0.228l0.138,0.017l0.138,0.061
				c0.151,0.035,0.039,0.161-0.021,0.199c-0.125,0.084-0.212,0.187-0.292,0.309c-0.059,0.096-0.102,0.194-0.079,0.311
				c0.016,0.085,0.045,0.158,0.076,0.236c0.021,0.044,0.065,0.073,0.1,0.112c0.013,0.014,0.071,0.084,0.071,0.09
				c-0.032-0.12,0.133-0.238,0.172-0.216c0.78,0.454,0.828-0.462,1.293-0.774c0.198-0.135,0.647,0.02,0.532,0.424
				c0.465-0.248,0.601-0.873,0.964-1.265c0.802-0.87,1.925-1.449,2.993-1.919c-0.386-0.407-0.955-0.754-1.243-1.221
				c-0.142-0.234-0.313-0.691,0.004-0.606c1.311,0.343,2.046-0.456,2.191-1.489c1.94,0.254,2.448-1.583,2.708-2.972
				c0.127-0.671,0.494-0.73,0.093-1.878c-0.167-0.48,0.861-0.635,0.687-1.463c-0.049-0.229-0.333-0.461-0.5-0.488
				c0.158,0.449-0.588,0.562-0.671,0.743c-0.125,0.287-0.311,0.513-0.334,0.815c-0.631-0.876-0.12-1.93,0.474-2.749
				c0.865-1.195,2.664-0.568,3.421,0.203c0.012-0.386-0.289-0.878-0.535-1.114c0.709-0.092,1.476,0.34,2.441-0.17
				c0.555-0.298,1.121-0.552,1.381-1.209c-1.184,0.159-2.791-0.75-3.856-0.936c-1.991-0.346-3.326,1.011-4.039,2.629
				c-0.708,1.616-0.255,2.823,0.516,4.033c0.194,0.304-0.683,0.105-1.03,0.283c-0.336,0.175-0.473,0.587-0.396,0.956
				c0.423-0.454,1.547-0.174,1.649,0.605c0.138,1.052-0.922,2.583-1.945,2.126C57.495,43.663,56.874,42.507,56.51,41.204z
				 M56.555,34.299c0.045,1.025-0.34,2.073-1.242,2.612c-1.26,0.746-2.828,1.208-3.259,2.771c-0.158,0.571-0.363,1.851-0.086,2.416
				c0.095-0.297,0.273-0.566,0.609-0.581c1.216-0.045,1.573-0.289,2.391-0.878c0.291-0.206,1.06,0.643,1.041,0.523
				c-0.021-0.142-0.056-0.833,0.102-0.705c0.283,0.229,0.763,0.368,1.169,0.377c-0.992-1.127,0.232-2.402,0.249-3.584
				C57.542,36.247,57.196,35.101,56.555,34.299z M51.792,34.4c0.58-0.229,1.354-0.534,1.723,0.118
				c0.226,0.397,0.14,0.752-0.028,1.23c-0.138,0.388-0.822,0.5-1.338,0.435c0.088,0.059,0.188,0.27,0.107,0.413
				c1.16-0.291,2.857,0.143,3.633-1.171c0.267-0.448-0.097-0.888,0.028-1.337c0.059-0.219,0.363-0.36,0.482-0.601
				c0.096-0.185-0.163-0.436-0.148-0.614c-0.199,0.213-0.43,0.407-0.746,0.417c-0.51,0.012-0.962-0.426-1.459-0.239
				c-0.575,0.214-1.131,0.48-1.745,0.64C52.079,33.748,51.7,33.994,51.792,34.4z M49.947,35.247c0.749,1.125,2.467,0.206,3.05,0.416
				C52.208,34.285,50.854,35.456,49.947,35.247z M46.569,34.407c-0.287,0.288-0.608,0.056-0.847,0.593
				c0.361-0.153,0.402,0.396,0.556,0.417c0.69,0.094,1.215,0.215,1.593,0.915c0.232,0.427-0.414,0.447,0.17,0.548
				c0.298,0.049,0.495,0.201,0.646,0.412c0.157,0.219,0.178,0.514,0.348,0.722c0.123,0.147,0.168,0.176,0.316,0.3
				c0.066,0.056,0.278,0.11,0.357,0.131c0.08,0.022,0.129,0.062,0.203,0.09c0.083,0.028,0.167,0.057,0.235,0.113
				c0.057,0.045,0.205,0.097,0.236,0.164c0.06,0.119,0.012,0.236,0.075,0.357c0.02,0.031,0.111,0.002,0.148,0.015
				c0.037,0.013,0.117,0.016,0.14,0.013c0.141-0.032,0.173-0.041,0.279-0.053c0.161-0.019,0.142,0.031,0.349,0.021
				c0.042,0,0.061,0.032,0.121,0.032c0.04,0,0.107,0.044,0.119,0.005c0.064-0.197,0.167-0.385,0.283-0.577
				c0.114-0.19,0.105-0.208,0.251-0.407c-0.018,0.003,0.188-0.14,0.17-0.142c-2.142-0.455-4.047-2.047-3.589-4.066
				c0.006-0.019-0.08-0.522-0.266-0.59c-0.014-0.007-0.045-0.064-0.077-0.072c-0.082-0.02-0.15-0.057-0.217-0.106
				c-0.025-0.018-0.125-0.053-0.125-0.086c-0.038,0.083-0.028,0.158-0.084,0.232c-0.022,0.028-0.052,0.068-0.083,0.086
				c-0.039,0.018-0.043,0.055-0.071,0.082c-0.162,0.161-0.076,0.405-0.05,0.591c0.008,0.046,0.028,0.103-0.03,0.112
				c-0.068,0.014-0.012-0.016-0.093-0.066c-0.018-0.012-0.046-0.042-0.065-0.05c-0.034-0.016-0.167-0.036-0.189-0.069
				c-0.023-0.035-0.013-0.045-0.048-0.075c-0.073-0.065-0.08-0.199-0.135-0.336c-0.01-0.024-0.03-0.142-0.03-0.171
				c0-0.096-0.167-0.227-0.223-0.262c-0.001,0,0,0-0.002,0c-0.007-0.004-0.007-0.004-0.009-0.005
				c-0.032-0.023-0.086-0.055-0.174-0.076c-0.118-0.031-0.255-0.026-0.387-0.009c-0.028,0.003-0.055,0.028-0.074,0.042
				c-0.136,0.107-0.263,0.233-0.438,0.241c0.028-0.022,0.045,0.014,0.057,0.032c0.085,0.107,0.023,0.243,0.075,0.362
				c0.049,0.118,0.135,0.208,0.233,0.289c0.099,0.075,0.268-0.025,0.344,0.108C46.567,34.208,46.727,34.249,46.569,34.407z
				 M46.921,41.451c0.387-0.193,0.279-0.405,0.541-0.435c0.4-0.048,0.463,0.025,0.542,0.267c0.036,0.105-0.025,0.277-0.049,0.335
				c0.497,0.057,0.863-0.61,1.313-0.43c0.655,0.255,1.676,0.578,2.012,0.308c0.103-0.083-0.161-0.707,0.077-1.449
				c-1.069,0.525-2.269,0.197-3.274-0.283c-0.565-0.27-0.479-1.103-1.108-1.439c-0.251-0.138-0.491-0.124-0.738-0.089
				c-0.092,0.011-0.171,0.138-0.139,0.258c0.101-0.109,0.255,0.051,0.24,0.09c-0.093,0.308-0.139,0.354,0.262,0.611
				c-1.494-0.082-0.986,1.19-0.814,0.892c0.07-0.128,0.621,0.074,0.653,0.223c0.017,0.098-0.033,0.207-0.289,0.664
				c-0.056,0.102,0.217,0.713,0.24,0.575C46.438,41.258,46.767,41.359,46.921,41.451z M46.704,46.219
				c0.127,0.111,0.28,0.223,0.443,0.234c-0.026-0.016-0.037-0.071-0.046-0.101c-0.016-0.053,0.001-0.107,0.03-0.155
				c0.047-0.08,0.143-0.042,0.221-0.078c0.121-0.054,0.249-0.101,0.373-0.064l-0.029-0.016c0.095,0.013,0.188,0.134,0.11,0.211
				c-0.084,0.086-0.208,0.126-0.269,0.248c-0.063,0.127-0.025,0.358,0.03,0.448c0.054,0.09,0.156,0.147,0.246,0.214
				c0.014,0.011,0.108,0.089,0.125,0.101c0.002-0.034-0.072-0.08,0.003-0.171c0.019-0.021,0.1-0.055,0.125-0.041
				c0.14,0.09,0.237,0.104,0.391,0.064c0.114-0.03,0.163-0.046,0.249-0.129c0.155-0.152,0.164-0.316,0.289-0.476l0.261-0.18
				c0.217-0.108,1.077,0.384,0.465,0.997c0.658-0.419,1.836-1.037,2.773-0.669c-0.58-0.926-0.084-2.332,0.978-2.682
				c-1.188-1.139-2.184-1.077-2.634,0.104c-0.222,0.586,0.466,1.278-0.222,1.571c-0.385,0.165-0.777,0.061-1.15-0.07
				c-0.712-0.25-0.277-1.165-0.856-1.632c-0.392-0.314-1.33-0.261-1.329,0.526c0.041-0.04,0.131-0.135,0.204-0.053
				c0.153,0.413,0.15,0.522,0.56,0.621c0.092,0.023-0.036,0.224-0.105,0.207c-0.13-0.037-0.276-0.031-0.399-0.084
				c-0.154-0.069-0.33-0.081-0.492-0.032c-0.111,0.03-0.206,0.092-0.288,0.173c-0.03,0.031-0.057,0.054-0.085,0.091
				c-0.035,0.041-0.056,0.088-0.081,0.137c-0.051,0.104-0.048,0.223-0.044,0.333c0.002,0.04-0.007,0.084,0.013,0.122
				c0.016,0.038,0.012,0.083,0.038,0.11C46.637,46.138,46.664,46.178,46.704,46.219z M57.141,66.6
				c0.034-0.245,0.107-0.655,0.464-0.508c0.328,0.134,0.395,0.506,0.317,0.872c0.521-0.172,1.435-0.704,1.983-0.309
				c0.734,0.529,1.938,0.746,2.797,1.016c-0.571-0.397-0.751-1.429-0.655-2.102c-1.354,0.266-2.774,0.22-4.025-0.362
				c-0.345-0.155-0.298-0.555-0.401-0.883c-0.116-0.364-0.58-0.705-1-0.672c-0.226,0.018-0.768,0.49-0.664,0.512
				c-0.033-0.007-0.033,0.071-0.051,0.106c0.1-0.063,0.23,0,0.276,0.107c0.031,0.078,0.064,0.161,0.13,0.224
				c0.076,0.074,0.209,0.094,0.25,0.172c0.242,0.471-0.942-0.279-1.386,0.413c-0.143,0.222-0.067,0.726-0.067,1.005
				c0.272-0.245,0.543,0.222,1.051-0.228c0.055,0.052,0.117,0.083,0.04,0.163c-0.188,0.188-0.294,0.423-0.194,0.65
				c0.063,0.151,0.484,0.448,0.487,0.421C56.538,66.895,57.059,67.198,57.141,66.6z M60.136,62.318
				c-0.524-0.146-0.596-0.758-1.075-0.945c-0.347-0.133-0.848,0.135-0.901,0.668c0.116-0.035,0.24,0.012,0.262,0.108
				c0.128,0.531,0.91,0.217,0.928,0.589c0.016,0.246-0.585-0.041-0.82,0.116c-0.312,0.206-0.355,0.811-0.08,1.16
				c0.284-0.273,0.638,0.125,0.916-0.074c0.193-0.136,0.262-0.334,0.459-0.421c0.6-0.263,0.778,0.287,0.645,0.845
				c0.323-0.15,1.086-0.307,1.263-0.356c0.318-0.087,0.33-0.817,0.719-1.085c-0.549-0.004-1.229-0.242-1.383-0.778
				c-0.015-0.055,0.024-0.121,0.03-0.187c0.014-0.204-0.006-0.401-0.081-0.591c-0.009-0.021-0.028-0.045-0.044-0.067
				c-0.021-0.03-0.039-0.063-0.06-0.093c-0.056-0.074-0.136-0.11-0.215-0.16c-0.035-0.023-0.077-0.03-0.104-0.064l0.009,0.008
				c-0.042-0.045-0.1-0.064-0.157-0.084c-0.055-0.027-0.114-0.048-0.179-0.055c-0.013-0.004-0.125-0.029-0.145-0.034
				c-0.004,0.038,0.047,0.143,0.019,0.169c-0.073,0.066-0.097,0.051-0.154,0.139c-0.021,0.03-0.042,0.064-0.051,0.105
				c-0.015,0.078-0.053,0.165-0.061,0.252c-0.002,0.046,0.017,0.152,0.025,0.195c0.007,0.019,0.053,0.117,0.067,0.145
				c0,0,0.109,0.114,0.104,0.111c0.125,0.126,0.023,0.051,0.178,0.202C60.328,62.213,60.212,62.344,60.136,62.318z M67.837,60.717
				c-0.005-0.308-0.122-0.814-0.488-1.032c-0.289,1.345-1.632,1.974-2.846,2.313c-1.184,0.324-1.86,1.4-2.221,2.455
				c-0.026,0.07-0.052,0.155-0.079,0.42c-0.012,0.104,0.679-0.721,1.163-0.477c0.021,0.103-0.104,0.603-0.243,0.73
				c0.614-0.096,1.44-0.188,1.847-0.63c0.065-0.071,0.024,0.429,0.122,0.66c0.259,0.616,0.821,1.098,1.354,1.418
				c0.139,0.087,0.122-0.276,0.415-0.505c0.232-0.185,0.66,0.215,0.863,0.304c0.164,0.077-0.2-0.551-0.24-0.753
				C67.126,63.859,67.864,62.4,67.837,60.717z M67.381,58.262c-0.32,0.434-0.855,0.416-1.349,0.302
				c-0.744-0.176-1.335-0.36-1.872,0.009c0.02-0.014-0.41,0.453-0.39,0.454c-0.822-0.049-1.348,0.512-1.22,0.848
				c0.305-0.134,0.593-0.401,0.924-0.228c0.289,0.149,0.423,0.92,0.304,1.235c-0.086,0.229-0.387,0.515-0.771,0.532
				c-0.176,0.01-0.084,0.253-0.091,0.39c1.097-0.089,2.296-0.702,3.251-1.212c0.482-0.258,0.473-0.756,0.643-1.25
				C66.928,59.014,67.539,58.931,67.381,58.262z M60.965,60.276c0.581,1.226,1.667,0.447,2.56,0.308
				c-0.144-0.17-0.645-0.496-0.77-0.473C61.863,60.256,61.643,60.592,60.965,60.276z M60.63,72.663
				c1.075-0.521,2.099-1.262,3.363-0.991c-0.736-0.77-0.478-2.422,0.561-2.624c0.004,0-0.669-0.109-0.739-0.154
				c-0.905-0.574-2.007-1.119-2.615,0.081c-0.301,0.595,0.252,1.08,0.667,1.57c0.076,0.089-0.048,0.145-0.143,0.171
				c-0.989,0.251-2.806,0.4-2.889-1.079c-0.007-0.149-0.391-0.271-0.638-0.265c-0.73,0.023-0.72,0.954-0.637,0.891
				c0.162-0.121,0.651-0.079,0.591,0.295c-0.054,0.348-0.737-0.185-1.006,0.167c-0.229,0.292-0.222,0.772-0.062,1.102
				c-0.03-0.123,0.106-0.209,0.18-0.223c0.761-0.127,0.8,0.138,0.579,0.87c-0.02,0.06,0.222,0.522,0.383,0.564
				c-0.013-0.006-0.01-0.104,0.01-0.142c0.023-0.038,0.057-0.062,0.098-0.073c0.082-0.029,0.166-0.023,0.25-0.045
				c0.038-0.016,0.067-0.04,0.105-0.062c0.06-0.037,0.098-0.087,0.145-0.141c0.175-0.224,0.332-0.509,0.627-0.536
				c0.137-0.013,0.225,0.047,0.343,0.121l0.003,0.006c0.262-0.32,0.481-0.15,0.593-0.146C60.676,72.028,60.657,72.416,60.63,72.663z
				 M74.254,65.922c-0.236-0.09-0.541-0.285-0.807-0.237c-0.325,0.057-0.465,0.494-0.833,0.563c0.582-1.956-0.543-4.691-2.698-4.645
				c-0.402,0.008-0.926,0.333-1.06,0.777c-0.125,0.416-0.19,0.941,0.111,1.298c0.706,0.843,1.216,1.766,0.991,2.88
				c0.504-0.432,0.97-1.07,0.951-1.753c-0.003-0.17,0.308-0.05,0.355-0.119c0.591-0.865-0.375-1.4-0.885-1.941
				c-0.139-0.146,0.218-0.373,0.265-0.359c1.848,0.551,2.022,2.83,1.232,4.313c-0.212-0.264-0.994-0.179-1.258-0.27
				c0.863,0.439,0.641,0.5,0.604,0.642c-0.066,0.263-0.843,0.146-0.991,0.34c-0.261,0.334-0.457,0.476-0.476,1.579
				c0.359-0.39,0.828-0.974,1.337-0.711c1.089,0.555-0.052,2.438-1.078,2.751c-0.878,0.263-1.69-0.014-2.231-0.78
				c-0.787-1.104-0.216-2.441-0.773-3.561c-0.466,0.115-0.362,0.722-0.601,0.613c-0.855-0.397-1.34-1.312-1.96-2.075
				c-0.257,0.091-0.369,0.327-0.618,0.314c-0.366-0.015-1.055-0.128-1.204,0.057c-0.169,0.213-0.294,1.768,1.216,2.332
				c1.027,0.381,1.837,0.722,2.485,1.522c-0.435,0.034-0.585-0.174-0.937-0.187c-0.351-0.016-0.572,0.122-0.833,0.258
				c-0.253,0.13-0.548,0.623-0.497,1.017c0.236,1.882,2.446,1.904,3.46,3.097c0.177,0.2-0.267,1.017-0.682,1.347
				c-0.354,0.284-1.204-0.426-1.065-1.025c0.11-0.479-1.047-0.799-1.451-0.252c0.16-0.018,0.2,0.087,0.186,0.165
				c-0.072,0.44,0.477,0.458,0.457,0.683c-0.024,0.312-0.292-0.131-0.504-0.172c-0.468-0.091-0.934,0.071-1.206,0.447
				c-0.083,0.112-0.265,0.294-0.185,0.485c0.357-0.176,0.544,0.381,0.876,0.209c0.204-0.103,0.37-0.282,0.614-0.22
				c0.096,0.026,0.196,0.158,0.108,0.214c-0.65,0.418-1.173,1.004-0.701,1.671c0.013-0.156,0.137-0.265,0.236-0.292
				c0.19-0.054,0.442,0.076,0.626,0.016c0.304-0.103,0.149-0.404,0.263-0.619c0.181-0.34,0.795-0.9,1.143-0.493
				c0.064,0.075,0.013,0.349-0.172,0.354c0.189-0.005,0.363,0.181,0.523,0.147c0.047-0.008,0.094-0.008,0.14-0.027
				c0.035-0.021,0.076-0.031,0.104-0.056c0.073-0.078,0.164-0.162,0.175-0.282c0.141,0.013,0.315,0.024,0.408-0.094
				c0.089-0.12,0.198-0.214,0.299-0.303l-0.059,0.056c0.691-0.691,1.193-1.61,1.937-2.28c-0.812-0.476-1.821-0.979-1.927-2.052
				c-0.009-0.073,0.114-0.153,0.141-0.138c1.13,0.634,2.655,0.681,3.47-0.474c0.657-0.931,0.943-2.445,2.226-2.532
				C73.073,67.299,73.55,66.352,74.254,65.922z M80.361,64.157L64.652,52.012L49.164,64.669l1.073,2.073l14.415-11.702
				l14.593,11.212L80.361,64.157z M82.769,58.578L64.652,44.716L46.781,58.93l0.868,2.346l17.003-13.623l17.285,13.241
				L82.769,58.578z M82.233,32.571c-1.054-0.352-2.072,0.629-2.184,1.637c-0.106,0.922,0.181,2.03,0.401,2.789
				c0.062,0.22,0.024,0.471,0.069,0.665c0.189-0.765,0.21-1.562,0.199-2.37c-0.003-0.197,0.152-0.461,0.356-0.52
				c0.683-0.199,1.04,0.3,0.992,0.682c-0.15,1.21-0.396,2.137-0.685,3.337c-0.33,1.373,0.163,2.736,0.308,4.069
				c-0.529-0.309-1.099-0.326-1.303,0.497c-0.111,0.434,0.279,0.893,0.403,1.28c0.012-0.524,0.506-1.242,0.988-0.921
				c0.592,0.391,0.611,2.275,0.483,2.527c-0.286,0.543-0.759,0.934-1.413,0.74c-0.368-0.108-0.219-0.653-0.439-0.884
				c-1.177-1.216-1.712-2.668-1.81-4.343c-0.014-0.244,0.113-0.891,0.078-0.905c-1.539-0.631-2.243-0.002-2.881,0.905
				c-0.109-0.274-0.695-0.656-0.743-0.573c-0.289,0.542-0.206,1.523,0.232,1.901c1.18,1.024,2.356,1.711,3.02,3.175
				c-0.71,0.093-1.403,0.299-1.677,1.04c-0.284,0.774-0.186,1.852,0.63,2.167c0.67,0.257,1.814-0.031,2.066,0.003
				c0.708,0.09,1.501,0.704,1.392,1.376c-0.007,0.032-0.304,1.597-0.981,1.208c-0.368-0.21-0.161-1.068-0.723-1.202
				c-0.752-0.185-0.936,0.869-0.841,0.78c0.24-0.23,0.405,0.149,0.872,0.407c-1.576-0.345-1.087,1.102-1.031,0.941
				c0.083-0.225,0.371,0.01,0.935-0.028c0.021,0-0.124,0.119-0.133,0.132c-0.088,0.144-0.13,0.212-0.193,0.37
				c-0.031,0.07-0.027,0.15-0.018,0.227c0.007,0.076,0.033,0.146,0.075,0.214c0.008,0.01,0.021,0.026,0.04,0.034
				c0.008,0.002,0.027,0.036,0.034,0.036c0.033,0.005-0.033-0.11,0.061-0.117c0.022-0.003,0.089-0.012,0.104-0.006
				c0.043,0.017,0.097,0.045,0.141,0.055c0.041,0.013,0.083,0.019,0.126,0.025c0.11,0.015,0.146,0.019,0.24-0.014
				c0.073-0.025,0.144-0.046,0.216-0.087c-0.009,0.009-0.009,0.011,0.018-0.008c-0.005,0.004-0.012,0.004-0.018,0.008
				c0.023-0.024,0.129-0.105,0.122-0.094c0.095-0.211,0.159-0.15,0.181-0.186c0.167-0.32,0.312-0.35,0.684-0.304
				c0.037,0.004,0.104,0.079,0.127,0.11c0.026,0.042,0.105,0.242,0.089,0.167c0.026,0.148,0.119,0.239,0.132,0.382
				c-0.019-0.163,0.388-0.644,0.396-0.999c0.039-1.208,0.766-1.776,0.788-3.062c0.006-0.337-1.386-0.653-1.447-1.375
				c-0.029-0.36-0.148-0.882,0.213-0.872c0.459,0.006,0.916-0.074,1.243-0.362c1.453-1.283,0.224-3.035,0.048-4.581
				c-0.039-0.339,0.591-1.068,0.571-1.308c-0.1-1.314-0.345-2.509,0.123-3.797c-0.369,0.326-0.476,0.868-0.782,1.145
				c-0.15,0.137-0.225-0.167-0.213-0.215c0.182-1.133,0.636-2.126,1.159-3.205C83.694,33.989,83.381,32.951,82.233,32.571z
				 M77.134,33.709c0.002-0.002,0.002-0.001,0.002-0.005c-0.479-0.237-1.105-0.551-1.324,0.089
				C75.651,34.261,76.718,33.934,77.134,33.709z"/>
		</g>
	</g>
</g>
</svg>
