<?xml version="1.0" encoding="UTF-8" standalone="no"?>
<!DOCTYPE svg PUBLIC "-//W3C//DTD SVG 1.1//EN"
"http://www.w3.org/Graphics/SVG/1.1/DTD/svg11.dtd">


<!-- Page 1 -->
<svg x="0" y="0" width="1210" height="935" viewBox="0 0 1210 935" version="1.1" xmlns="http://www.w3.org/2000/svg" xmlns:xlink="http://www.w3.org/1999/xlink"
style="display: block;margin-left: auto;margin-right: auto;">
<defs>
<clipPath id="c0_1"><path d="M0.5,935.5l0,-935l1210,0l0,935Z" /></clipPath>

<style type="text/css"><![CDATA[

.g3_1{
fill: none;
stroke: #000000;
stroke-width: 1;
stroke-linecap: round;
stroke-linejoin: round;
}
.g2_1{
fill: none;
stroke: #000000;
stroke-width: 1;
stroke-linecap: butt;
stroke-linejoin: miter;
}
.g1_1{
}


]]></style>

</defs>
<path d="M0,0
L0,935
L1210,935
L1210,0 Z " 
fill="#FFFFFF" stroke="none" />
<path fill-rule="evenodd" d="M121,334l27,0l0,-6Z" class="g1_1" />
<path fill-rule="evenodd" d="M121,334l0,-6l27,0Z" class="g1_1" />
<path d="M148.5,334.5l0,-6" class="g2_1" />
<path d="M332.5,334.5l0,-19" class="g2_1" />
<path fill-rule="evenodd" d="M332,334l19,0l0,-19Z" class="g1_1" />
<path fill-rule="evenodd" d="M332,334l0,-19l19,0Z" class="g1_1" />
<path d="M351.5,334.5l0,-19" class="g2_1" />
<path d="M208.5,334.5l0,-125" class="g2_1" />
<path fill-rule="evenodd" d="M208,334l6,0l0,-125Z" class="g1_1" />
<path fill-rule="evenodd" d="M208,334l0,-125l6,0Z" class="g1_1" />
<path d="M214.5,328.5l0,-119" class="g2_1" />
<path fill-rule="evenodd" d="M214,334l118,0l0,-6Z" class="g1_1" />
<path fill-rule="evenodd" d="M214,334l0,-6l118,0Z" class="g1_1" />
<path d="M332.5,334.5l0,-6" class="g2_1" />
<path d="M345.5,766.5l0,-207" class="g2_1" />
<path fill-rule="evenodd" d="M345,766l6,0l0,-207Z" class="g1_1" />
<path fill-rule="evenodd" d="M345,766l0,-207l6,0Z" class="g1_1" />
<path d="M351.5,766.5l0,-207" class="g2_1" />
<path d="M332.5,540.5l0,-28" class="g2_1" />
<path fill-rule="evenodd" d="M332,540l4,0l0,-28Z" class="g1_1" />
<path fill-rule="evenodd" d="M332,540l0,-28l4,0Z" class="g1_1" />
<path d="M336.5,540.5l0,-24" class="g2_1" />
<path fill-rule="evenodd" d="M336,516l9,0l0,-4Z" class="g1_1" />
<path fill-rule="evenodd" d="M336,516l0,-4l9,0Z" class="g1_1" />
<path d="M345.5,516.5l0,-4" class="g2_1" />
<path d="M208.5,432.5l0,-6" class="g2_1" />
<path fill-rule="evenodd" d="M208,432l137,0l0,-6Z" class="g1_1" />
<path fill-rule="evenodd" d="M208,432l0,-6l137,0Z" class="g1_1" />
<path d="M345.5,540.5l0,-108" class="g2_1" />
<path fill-rule="evenodd" d="M345,540l6,0l0,-114Z" class="g1_1" />
<path fill-rule="evenodd" d="M345,540l0,-114l6,0Z" class="g1_1" />
<path d="M351.5,540.5l0,-114" class="g2_1" />
<path d="M332.5,784.5l0,-18" class="g2_1" />
<path fill-rule="evenodd" d="M332,784l19,0l0,-18Z" class="g1_1" />
<path fill-rule="evenodd" d="M332,784l0,-18l19,0Z" class="g1_1" />
<path d="M351.5,784.5l0,-18" class="g2_1" />
<path fill-rule="evenodd" d="M121,835l224,0l0,-7Z" class="g1_1" />
<path fill-rule="evenodd" d="M121,835l0,-7l224,0Z" class="g1_1" />
<path d="M345.5,828.5l0,-44" class="g2_1" />
<path fill-rule="evenodd" d="M345,835l6,0l0,-51Z" class="g1_1" />
<path fill-rule="evenodd" d="M345,835l0,-51l6,0Z" class="g1_1" />
<path d="M351.5,835.5l0,-7" class="g2_1" />
<path d="M351.5,828.5l0,-44" class="g2_1" />
<path d="M838.5,835.5l0,-7" class="g2_1" />
<path fill-rule="evenodd" d="M838,835l65,0l0,-7Z" class="g1_1" />
<path fill-rule="evenodd" d="M838,835l0,-7l65,0Z" class="g1_1" />
<path d="M903.5,334.5l0,-6" class="g2_1" />
<path fill-rule="evenodd" d="M903,835l104,0l0,-7Z" class="g1_1" />
<path fill-rule="evenodd" d="M903,835l0,-7l104,0Z" class="g1_1" />
<path fill-rule="evenodd" d="M903,334l104,0l0,-6Z" class="g1_1" />
<path fill-rule="evenodd" d="M903,334l0,-6l104,0Z" class="g1_1" />
<path d="M1007.5,828.5l0,-494" class="g2_1" />
<path d="M1007.5,328.5l0,-13" class="g2_1" />
<path fill-rule="evenodd" d="M1007,835l7,0l0,-520Z" class="g1_1" />
<path fill-rule="evenodd" d="M1007,835l0,-520l7,0Z" class="g1_1" />
<path d="M1014.5,835.5l0,-520" class="g2_1" />
<path d="M332.5,120.5l0,-20" class="g2_1" />
<path fill-rule="evenodd" d="M332,120l19,0l0,-20Z" class="g1_1" />
<path fill-rule="evenodd" d="M332,120l0,-20l19,0Z" class="g1_1" />
<path d="M351.5,120.5l0,-20" class="g2_1" />
<path d="M343.5,100.5l0,-3" class="g2_1" />
<path fill-rule="evenodd" d="M343,100l8,0l0,-3Z" class="g1_1" />
<path fill-rule="evenodd" d="M343,100l0,-3l8,0Z" class="g1_1" />
<path d="M351.5,100.5l0,-3" class="g2_1" />
<path d="M476.5,169.5l0,-72" class="g2_1" />
<path fill-rule="evenodd" d="M476,169l6,0l0,-72Z" class="g1_1" />
<path fill-rule="evenodd" d="M476,169l0,-72l6,0Z" class="g1_1" />
<path d="M482.5,163.5l0,-66" class="g2_1" />
<path fill-rule="evenodd" d="M482,169l123,0l0,-6Z" class="g1_1" />
<path fill-rule="evenodd" d="M482,169l0,-6l123,0Z" class="g1_1" />
<path d="M605.5,169.5l0,-6" class="g2_1" />
<path d="M608.5,100.5l0,-3" class="g2_1" />
<path fill-rule="evenodd" d="M608,100l4,0l0,-3Z" class="g1_1" />
<path fill-rule="evenodd" d="M608,100l0,-3l4,0Z" class="g1_1" />
<path d="M612.5,100.5l0,-3" class="g2_1" />
<path d="M622.5,100.5l0,-3" class="g2_1" />
<path fill-rule="evenodd" d="M622,100l5,0l0,-3Z" class="g1_1" />
<path fill-rule="evenodd" d="M622,100l0,-3l5,0Z" class="g1_1" />
<path d="M627.5,100.5l0,-3" class="g2_1" />
<path d="M608.5,120.5l0,-20" class="g2_1" />
<path fill-rule="evenodd" d="M608,120l19,0l0,-20Z" class="g1_1" />
<path fill-rule="evenodd" d="M608,120l0,-20l19,0Z" class="g1_1" />
<path d="M627.5,120.5l0,-20" class="g2_1" />
<path d="M654.5,646.5l0,-1" class="g2_1" />
<path d="M654.5,646.5l16,0" class="g2_1" />
<path d="M654.5,646.5l16,0" class="g2_1" />
<path d="M670.5,646.5l0,-1" class="g2_1" />
<path d="M534.5,645.5l0,-36" class="g2_1" />
<path d="M534.5,645.5l0,-36" class="g2_1" />
<path d="M534.5,645.5l0,-36" class="g2_1" />
<path d="M535.5,645.5l0,-36" class="g2_1" />
<path d="M534.5,646.5l0,-1" class="g2_1" />
<path d="M534.5,646.5l8,0" class="g2_1" />
<path d="M534.5,646.5l8,0" class="g2_1" />
<path d="M542.5,646.5l0,-1" class="g2_1" />
<path d="M564.5,645.5l0,-48" class="g2_1" />
<path d="M564.5,645.5l0,-48" class="g2_1" />
<path d="M564.5,645.5l0,-48" class="g2_1" />
<path d="M565.5,645.5l0,-48" class="g2_1" />
<path d="M563.5,646.5l0,-1" class="g2_1" />
<path d="M563.5,646.5l7,0" class="g2_1" />
<path d="M563.5,646.5l7,0" class="g2_1" />
<path d="M570.5,646.5l0,-1" class="g2_1" />
<path d="M593.5,645.5l0,-48" class="g2_1" />
<path d="M593.5,645.5l0,-48" class="g2_1" />
<path d="M593.5,645.5l0,-48" class="g2_1" />
<path d="M594.5,645.5l0,-48" class="g2_1" />
<path d="M591.5,646.5l0,-1" class="g2_1" />
<path d="M591.5,646.5l8,0" class="g2_1" />
<path d="M591.5,646.5l8,0" class="g2_1" />
<path d="M599.5,646.5l0,-1" class="g2_1" />
<path d="M621.5,645.5l0,-48" class="g2_1" />
<path d="M621.5,645.5l0,-48" class="g2_1" />
<path d="M621.5,645.5l0,-48" class="g2_1" />
<path d="M622.5,645.5l0,-48" class="g2_1" />
<path d="M620.5,646.5l0,-1" class="g2_1" />
<path d="M620.5,646.5l0,-1" class="g2_1" />
<path d="M620.5,646.5l0,-1" class="g2_1" />
<path d="M621.5,646.5l0,-1" class="g2_1" />
<path d="M621.5,646.5l0,-1" class="g2_1" />
<path d="M622.5,646.5l4,0" class="g2_1" />
<path d="M622.5,646.5l4,0" class="g2_1" />
<path d="M626.5,646.5l0,-1" class="g2_1" />
<path d="M429.5,565.5l0,-71" class="g2_1" />
<path d="M429.5,460.5l0,-65" class="g2_1" />
<path d="M429.5,356.5l0,-41" class="g2_1" />
<path fill-rule="evenodd" d="M429,565l8,0l0,-71Z" class="g1_1" />
<path fill-rule="evenodd" d="M429,565l0,-71l8,0Z" class="g1_1" />
<path fill-rule="evenodd" d="M429,460l8,0l0,-65Z" class="g1_1" />
<path fill-rule="evenodd" d="M429,460l0,-65l8,0Z" class="g1_1" />
<path fill-rule="evenodd" d="M429,356l8,0l0,-41Z" class="g1_1" />
<path fill-rule="evenodd" d="M429,356l0,-41l8,0Z" class="g1_1" />
<path d="M437.5,565.5l0,-4" class="g2_1" />
<path d="M437.5,561.5l0,-50" class="g2_1" />
<path d="M437.5,503.5l0,-9" class="g2_1" />
<path d="M437.5,460.5l0,-48" class="g2_1" />
<path d="M437.5,405.5l0,-10" class="g2_1" />
<path d="M437.5,356.5l0,-33" class="g2_1" />
<path fill-rule="evenodd" d="M437,511l76,0l0,-8Z" class="g1_1" />
<path fill-rule="evenodd" d="M437,511l0,-8l76,0Z" class="g1_1" />
<path fill-rule="evenodd" d="M437,412l76,0l0,-7Z" class="g1_1" />
<path fill-rule="evenodd" d="M437,412l0,-7l76,0Z" class="g1_1" />
<path fill-rule="evenodd" d="M437,323l76,0l0,-8Z" class="g1_1" />
<path fill-rule="evenodd" d="M437,323l0,-8l76,0Z" class="g1_1" />
<path d="M513.5,511.5l0,-99" class="g2_1" />
<path d="M513.5,511.5l0,-99" class="g2_1" />
<path d="M513.5,412.5l0,-7" class="g2_1" />
<path d="M513.5,412.5l0,-7" class="g2_1" />
<path d="M513.5,323.5l0,-8" class="g2_1" />
<path d="M513.5,323.5l0,-8" class="g2_1" />
<path fill-rule="evenodd" d="M513,511l8,0l0,-106Z" class="g1_1" />
<path fill-rule="evenodd" d="M513,511l0,-106l8,0Z" class="g1_1" />
<path fill-rule="evenodd" d="M513,323l8,0l0,-8Z" class="g1_1" />
<path fill-rule="evenodd" d="M513,323l0,-8l8,0Z" class="g1_1" />
<path d="M521.5,511.5l0,-99" class="g2_1" />
<path fill-rule="evenodd" d="M521,412l12,0l0,-7Z" class="g1_1" />
<path fill-rule="evenodd" d="M521,412l0,-7l12,0Z" class="g1_1" />
<path fill-rule="evenodd" d="M521,323l12,0l0,-8Z" class="g1_1" />
<path fill-rule="evenodd" d="M521,323l0,-8l12,0Z" class="g1_1" />
<path d="M533.5,405.5l0,-82" class="g2_1" />
<path fill-rule="evenodd" d="M533,412l7,0l0,-97Z" class="g1_1" />
<path fill-rule="evenodd" d="M533,412l0,-97l7,0Z" class="g1_1" />
<path d="M540.5,412.5l0,-89" class="g2_1" />
<path fill-rule="evenodd" d="M540,323l5,0l0,-8Z" class="g1_1" />
<path fill-rule="evenodd" d="M540,323l0,-8l5,0Z" class="g1_1" />
<path d="M545.5,323.5l0,-8" class="g2_1" />
<path d="M521.5,434.5l0,-4" class="g2_1" />
<path fill-rule="evenodd" d="M521,434l29,0l0,-4Z" class="g1_1" />
<path fill-rule="evenodd" d="M521,434l0,-4l29,0Z" class="g1_1" />
<path d="M550.5,434.5l0,-4" class="g2_1" />
<path d="M550.5,434.5l0,-4" class="g2_1" />
<path fill-rule="evenodd" d="M551,434l63,0l0,-4Z" class="g1_1" />
<path fill-rule="evenodd" d="M551,434l0,-4l63,0Z" class="g1_1" />
<path d="M614.5,434.5l0,-4" class="g2_1" />
<path d="M540.5,412.5l0,-4" class="g2_1" />
<path fill-rule="evenodd" d="M540,412l74,0l0,-4Z" class="g1_1" />
<path fill-rule="evenodd" d="M540,412l0,-4l74,0Z" class="g1_1" />
<path d="M614.5,412.5l0,-4" class="g2_1" />
<path d="M577.5,323.5l0,-8" class="g2_1" />
<path fill-rule="evenodd" d="M577,323l43,0l0,-8Z" class="g1_1" />
<path fill-rule="evenodd" d="M577,323l0,-8l43,0Z" class="g1_1" />
<path d="M620.5,323.5l0,-8" class="g2_1" />
<path d="M614.5,478.5l0,-155" class="g2_1" />
<path fill-rule="evenodd" d="M614,478l6,0l0,-155Z" class="g1_1" />
<path fill-rule="evenodd" d="M614,478l0,-155l6,0Z" class="g1_1" />
<path d="M620.5,478.5l0,-155" class="g2_1" />
<path d="M614.5,486.5l0,-8" class="g2_1" />
<path fill-rule="evenodd" d="M614,486l56,0l0,-8Z" class="g1_1" />
<path fill-rule="evenodd" d="M614,486l0,-8l56,0Z" class="g1_1" />
<path fill-rule="evenodd" d="M670,486l6,0l0,-8Z" class="g1_1" />
<path fill-rule="evenodd" d="M670,486l0,-8l6,0Z" class="g1_1" />
<path d="M676.5,486.5l0,-8" class="g2_1" />
<path d="M536.5,593.5l0,-9" class="g2_1" />
<path fill-rule="evenodd" d="M536,593l30,0l0,-9Z" class="g1_1" />
<path fill-rule="evenodd" d="M536,593l0,-9l30,0Z" class="g1_1" />
<path d="M566.5,584.5l0,-7" class="g2_1" />
<path fill-rule="evenodd" d="M566,593l104,0l0,-16Z" class="g1_1" />
<path fill-rule="evenodd" d="M566,593l0,-16l104,0Z" class="g1_1" />
<path d="M670.5,593.5l0,-16" class="g2_1" />
<path d="M468.5,642.5l0,-5" class="g2_1" />
<path d="M468.5,565.5l0,-4" class="g2_1" />
<path fill-rule="evenodd" d="M468,642l10,0l0,-5Z" class="g1_1" />
<path fill-rule="evenodd" d="M468,642l0,-5l10,0Z" class="g1_1" />
<path fill-rule="evenodd" d="M468,565l10,0l0,-4Z" class="g1_1" />
<path fill-rule="evenodd" d="M468,565l0,-4l10,0Z" class="g1_1" />
<path d="M478.5,642.5l0,-77" class="g2_1" />
<path d="M478.5,642.5l0,-77" class="g2_1" />
<path d="M478.5,565.5l0,-4" class="g2_1" />
<path d="M478.5,565.5l0,-4" class="g2_1" />
<path fill-rule="evenodd" d="M478,642l4,0l0,-81Z" class="g1_1" />
<path fill-rule="evenodd" d="M478,642l0,-81l4,0Z" class="g1_1" />
<path d="M482.5,642.5l0,-58" class="g2_1" />
<path d="M482.5,642.5l0,-58" class="g2_1" />
<path d="M482.5,584.5l0,-23" class="g2_1" />
<path d="M482.5,584.5l0,-23" class="g2_1" />
<path d="M482.5,580.5l0,-19" class="g2_1" />
<path d="M482.5,642.5l0,-58" class="g2_1" />
<path d="M482.5,584.5l0,-4" class="g2_1" />
<path d="M482.5,584.5l0,-4" class="g2_1" />
<path fill-rule="evenodd" d="M482,584l50,0l0,-4Z" class="g1_1" />
<path fill-rule="evenodd" d="M482,584l0,-4l50,0Z" class="g1_1" />
<path d="M532.5,609.5l0,-25" class="g2_1" />
<path fill-rule="evenodd" d="M532,609l4,0l0,-29Z" class="g1_1" />
<path fill-rule="evenodd" d="M532,609l0,-29l4,0Z" class="g1_1" />
<path d="M536.5,609.5l0,-12" class="g2_1" />
<path fill-rule="evenodd" d="M536,597l26,0l0,-17Z" class="g1_1" />
<path fill-rule="evenodd" d="M536,597l0,-17l26,0Z" class="g1_1" />
<path d="M562.5,580.5l0,-26" class="g2_1" />
<path fill-rule="evenodd" d="M562,597l4,0l0,-43Z" class="g1_1" />
<path fill-rule="evenodd" d="M562,597l0,-43l4,0Z" class="g1_1" />
<path d="M566.5,573.5l0,-19" class="g2_1" />
<path fill-rule="evenodd" d="M566,597l104,0l0,-24Z" class="g1_1" />
<path fill-rule="evenodd" d="M566,597l0,-24l104,0Z" class="g1_1" />
<path d="M670.5,691.5l0,-94" class="g2_1" />
<path d="M670.5,691.5l0,-118" class="g2_1" />
<path d="M670.5,691.5l0,-118" class="g2_1" />
<path d="M670.5,573.5l0,-87" class="g2_1" />
<path d="M670.5,691.5l0,-118" class="g2_1" />
<path d="M670.5,691.5l0,-118" class="g2_1" />
<path d="M670.5,573.5l0,-87" class="g2_1" />
<path d="M670.5,573.5l0,-87" class="g2_1" />
<path fill-rule="evenodd" d="M670,691l6,0l0,-205Z" class="g1_1" />
<path fill-rule="evenodd" d="M670,691l0,-205l6,0Z" class="g1_1" />
<path d="M676.5,691.5l0,-205" class="g2_1" />
<path d="M582.5,483.5l0,-1" class="g2_1" />
<path d="M582.5,483.5l32,0" class="g2_1" />
<path d="M582.5,483.5l32,0" class="g2_1" />
<path d="M614.5,483.5l0,-1" class="g2_1" />
<path d="M521.5,483.5l0,-1" class="g2_1" />
<path d="M521.5,483.5l6,0" class="g2_1" />
<path d="M521.5,483.5l6,0" class="g2_1" />
<path d="M527.5,483.5l0,-1" class="g2_1" />
<path d="M550.5,482.5l0,-48" class="g2_1" />
<path d="M550.5,482.5l0,-48" class="g2_1" />
<path d="M550.5,482.5l0,-48" class="g2_1" />
<path d="M551.5,482.5l0,-48" class="g2_1" />
<path d="M548.5,483.5l0,-1" class="g2_1" />
<path d="M548.5,483.5l2,0" class="g2_1" />
<path d="M548.5,483.5l2,0" class="g2_1" />
<path d="M550.5,483.5l0,-1" class="g2_1" />
<path d="M550.5,483.5l0,-1" class="g2_1" />
<path d="M551.5,483.5l3,0" class="g2_1" />
<path d="M551.5,483.5l3,0" class="g2_1" />
<path d="M554.5,483.5l0,-1" class="g2_1" />
<path d="M644.5,573.5l0,-18" class="g2_1" />
<path d="M644.5,573.5l0,-18" class="g2_1" />
<path d="M644.5,573.5l0,-18" class="g2_1" />
<path d="M644.5,573.5l0,-18" class="g2_1" />
<path d="M591.5,573.5l0,-18" class="g2_1" />
<path d="M591.5,573.5l0,-18" class="g2_1" />
<path d="M591.5,573.5l0,-18" class="g2_1" />
<path d="M592.5,573.5l0,-18" class="g2_1" />
<path d="M618.5,573.5l0,-18" class="g2_1" />
<path d="M618.5,573.5l0,-18" class="g2_1" />
<path d="M618.5,573.5l0,-18" class="g2_1" />
<path d="M618.5,573.5l0,-18" class="g2_1" />
<path d="M214.5,139.5l0,-4" class="g2_1" />
<path fill-rule="evenodd" d="M214,139l8,0l0,-4Z" class="g1_1" />
<path fill-rule="evenodd" d="M214,139l0,-4l8,0Z" class="g1_1" />
<path d="M222.5,135.5l0,-43" class="g2_1" />
<path fill-rule="evenodd" d="M222,139l4,0l0,-47Z" class="g1_1" />
<path fill-rule="evenodd" d="M222,139l0,-47l4,0Z" class="g1_1" />
<path d="M226.5,139.5l0,-47" class="g2_1" />
<path d="M208.5,149.5l0,-57" class="g2_1" />
<path fill-rule="evenodd" d="M208,149l6,0l0,-57Z" class="g1_1" />
<path fill-rule="evenodd" d="M208,149l0,-57l6,0Z" class="g1_1" />
<path d="M214.5,149.5l0,-57" class="g2_1" />
<path d="M343.5,89.5l0,-3" class="g2_1" />
<path fill-rule="evenodd" d="M343,89l699,0l0,-3Z" class="g1_1" />
<path fill-rule="evenodd" d="M343,89l0,-3l699,0Z" class="g1_1" />
<path d="M1042.5,89.5l0,-3" class="g2_1" />
<path d="M1007.5,220.5l0,-11" class="g2_1" />
<path fill-rule="evenodd" d="M1007,220l7,0l0,-11Z" class="g1_1" />
<path fill-rule="evenodd" d="M1007,220l0,-11l7,0Z" class="g1_1" />
<path d="M1014.5,220.5l0,-11" class="g2_1" />
<path d="M884.5,334.5l0,-19" class="g2_1" />
<path fill-rule="evenodd" d="M884,334l19,0l0,-19Z" class="g1_1" />
<path fill-rule="evenodd" d="M884,334l0,-19l19,0Z" class="g1_1" />
<path d="M903.5,334.5l0,-19" class="g2_1" />
<path d="M825.5,334.5l0,-74" class="g2_1" />
<path fill-rule="evenodd" d="M825,334l6,0l0,-74Z" class="g1_1" />
<path fill-rule="evenodd" d="M825,334l0,-74l6,0Z" class="g1_1" />
<path d="M831.5,328.5l0,-68" class="g2_1" />
<path fill-rule="evenodd" d="M831,334l53,0l0,-6Z" class="g1_1" />
<path fill-rule="evenodd" d="M831,334l0,-6l53,0Z" class="g1_1" />
<path d="M884.5,334.5l0,-6" class="g2_1" />
<path d="M844.5,209.5l0,-120" class="g2_1" />
<path fill-rule="evenodd" d="M844,209l8,0L852,89Z" class="g1_1" />
<path fill-rule="evenodd" d="M844,209L844,89l8,0Z" class="g1_1" />
<path d="M852.5,201.5l0,-104" class="g2_1" />
<path fill-rule="evenodd" d="M852,209l190,0l0,-8Z" class="g1_1" />
<path fill-rule="evenodd" d="M852,209l0,-8l190,0Z" class="g1_1" />
<path fill-rule="evenodd" d="M852,97l190,0l0,-8Z" class="g1_1" />
<path fill-rule="evenodd" d="M852,97l0,-8l190,0Z" class="g1_1" />
<path d="M1042.5,209.5l0,-8" class="g2_1" />
<path d="M1042.5,209.5l0,-8" class="g2_1" />
<path d="M1042.5,97.5l0,-8" class="g2_1" />
<path fill-rule="evenodd" d="M1042,209l32,0l0,-8Z" class="g1_1" />
<path fill-rule="evenodd" d="M1042,209l0,-8l32,0Z" class="g1_1" />
<path d="M1074.5,209.5l0,-8" class="g2_1" />
<path d="M825.5,214.5l0,-11" class="g2_1" />
<path fill-rule="evenodd" d="M825,214l6,0l0,-11Z" class="g1_1" />
<path fill-rule="evenodd" d="M825,214l0,-11l6,0Z" class="g1_1" />
<path d="M831.5,214.5l0,-5" class="g2_1" />
<path fill-rule="evenodd" d="M831,209l13,0l0,-6Z" class="g1_1" />
<path fill-rule="evenodd" d="M831,209l0,-6l13,0Z" class="g1_1" />
<path d="M844.5,209.5l0,-6" class="g2_1" />
<path d="M825.5,203.5l0,-106" class="g2_1" />
<path fill-rule="evenodd" d="M825,203l6,0L831,97Z" class="g1_1" />
<path fill-rule="evenodd" d="M825,203L825,97l6,0Z" class="g1_1" />
<path d="M831.5,203.5l0,-106" class="g2_1" />
<path d="M665.5,169.5l0,-6" class="g2_1" />
<path fill-rule="evenodd" d="M665,169l3,0l0,-6Z" class="g1_1" />
<path fill-rule="evenodd" d="M665,169l0,-6l3,0Z" class="g1_1" />
<path d="M668.5,210.5l0,-41" class="g2_1" />
<path d="M668.5,163.5l0,-66" class="g2_1" />
<path fill-rule="evenodd" d="M668,210l6,0L674,97Z" class="g1_1" />
<path fill-rule="evenodd" d="M668,210L668,97l6,0Z" class="g1_1" />
<path d="M674.5,210.5l0,-4" class="g2_1" />
<path d="M674.5,206.5l0,-109" class="g2_1" />
<path d="M343.5,97.5l0,-8" class="g2_1" />
<path fill-rule="evenodd" d="M343,97l8,0l0,-8Z" class="g1_1" />
<path fill-rule="evenodd" d="M343,97l0,-8l8,0Z" class="g1_1" />
<path fill-rule="evenodd" d="M351,97l493,0l0,-8Z" class="g1_1" />
<path fill-rule="evenodd" d="M351,97l0,-8l493,0Z" class="g1_1" />
<path d="M844.5,97.5l0,-8" class="g2_1" />
<path d="M411.5,835.5l0,-7" class="g2_1" />
<path fill-rule="evenodd" d="M411,835l18,0l0,-7Z" class="g1_1" />
<path fill-rule="evenodd" d="M411,835l0,-7l18,0Z" class="g1_1" />
<path d="M429.5,828.5l0,-44" class="g2_1" />
<path fill-rule="evenodd" d="M429,835l6,0l0,-51Z" class="g1_1" />
<path fill-rule="evenodd" d="M429,835l0,-51l6,0Z" class="g1_1" />
<path d="M435.5,828.5l0,-44" class="g2_1" />
<path fill-rule="evenodd" d="M435,835l57,0l0,-7Z" class="g1_1" />
<path fill-rule="evenodd" d="M435,835l0,-7l57,0Z" class="g1_1" />
<path d="M492.5,835.5l0,-5" class="g2_1" />
<path d="M492.5,830.5l0,-2" class="g2_1" />
<path d="M721.5,835.5l0,-7" class="g2_1" />
<path fill-rule="evenodd" d="M721,835l21,0l0,-7Z" class="g1_1" />
<path fill-rule="evenodd" d="M721,835l0,-7l21,0Z" class="g1_1" />
<path d="M742.5,835.5l0,-7" class="g2_1" />
<path d="M622.5,784.5l0,-4" class="g2_1" />
<path fill-rule="evenodd" d="M622,784l5,0l0,-4Z" class="g1_1" />
<path fill-rule="evenodd" d="M622,784l0,-4l5,0Z" class="g1_1" />
<path d="M627.5,780.5l0,-81" class="g2_1" />
<path fill-rule="evenodd" d="M627,784l5,0l0,-85Z" class="g1_1" />
<path fill-rule="evenodd" d="M627,784l0,-85l5,0Z" class="g1_1" />
<path d="M632.5,784.5l0,-85" class="g2_1" />
<path d="M530.5,821.5l0,-4" class="g2_1" />
<path fill-rule="evenodd" d="M530,821l38,0l0,-4Z" class="g1_1" />
<path fill-rule="evenodd" d="M530,821l0,-4l38,0Z" class="g1_1" />
<path d="M568.5,828.5l0,-7" class="g2_1" />
<path fill-rule="evenodd" d="M568,828l5,0l0,-11Z" class="g1_1" />
<path fill-rule="evenodd" d="M568,828l0,-11l5,0Z" class="g1_1" />
<path d="M573.5,828.5l0,-11" class="g2_1" />
<path d="M524.5,835.5l0,-51" class="g2_1" />
<path fill-rule="evenodd" d="M524,835l6,0l0,-51Z" class="g1_1" />
<path fill-rule="evenodd" d="M524,835l0,-51l6,0Z" class="g1_1" />
<path d="M530.5,828.5l0,-44" class="g2_1" />
<path fill-rule="evenodd" d="M530,835l159,0l0,-7Z" class="g1_1" />
<path fill-rule="evenodd" d="M530,835l0,-7l159,0Z" class="g1_1" />
<path d="M689.5,835.5l0,-5" class="g2_1" />
<path d="M689.5,830.5l0,-2" class="g2_1" />
<path d="M429.5,784.5l0,-53" class="g2_1" />
<path d="M429.5,699.5l0,-62" class="g2_1" />
<path fill-rule="evenodd" d="M429,784l4,0l0,-53Z" class="g1_1" />
<path fill-rule="evenodd" d="M429,784l0,-53l4,0Z" class="g1_1" />
<path fill-rule="evenodd" d="M429,699l4,0l0,-62Z" class="g1_1" />
<path fill-rule="evenodd" d="M429,699l0,-62l4,0Z" class="g1_1" />
<path fill-rule="evenodd" d="M433,784l2,0l0,-53Z" class="g1_1" />
<path fill-rule="evenodd" d="M433,784l0,-53l2,0Z" class="g1_1" />
<path fill-rule="evenodd" d="M433,699l2,0l0,-62Z" class="g1_1" />
<path fill-rule="evenodd" d="M433,699l0,-62l2,0Z" class="g1_1" />
<path fill-rule="evenodd" d="M435,784l2,0l0,-53Z" class="g1_1" />
<path fill-rule="evenodd" d="M435,784l0,-53l2,0Z" class="g1_1" />
<path fill-rule="evenodd" d="M435,699l2,0l0,-62Z" class="g1_1" />
<path fill-rule="evenodd" d="M435,699l0,-62l2,0Z" class="g1_1" />
<path d="M437.5,777.5l0,-46" class="g2_1" />
<path d="M437.5,691.5l0,-54" class="g2_1" />
<path fill-rule="evenodd" d="M437,784l177,0l0,-7Z" class="g1_1" />
<path fill-rule="evenodd" d="M437,784l0,-7l177,0Z" class="g1_1" />
<path fill-rule="evenodd" d="M437,699l177,0l0,-8Z" class="g1_1" />
<path fill-rule="evenodd" d="M437,699l0,-8l177,0Z" class="g1_1" />
<path d="M614.5,777.5l0,-78" class="g2_1" />
<path fill-rule="evenodd" d="M614,784l8,0l0,-93Z" class="g1_1" />
<path fill-rule="evenodd" d="M614,784l0,-93l8,0Z" class="g1_1" />
<path d="M622.5,784.5l0,-85" class="g2_1" />
<path fill-rule="evenodd" d="M622,699l54,0l0,-8Z" class="g1_1" />
<path fill-rule="evenodd" d="M622,699l0,-8l54,0Z" class="g1_1" />
<path d="M676.5,699.5l0,-8" class="g2_1" />
<path d="M411.5,762.5l0,-6" class="g2_1" />
<path fill-rule="evenodd" d="M411,762l18,0l0,-6Z" class="g1_1" />
<path fill-rule="evenodd" d="M411,762l0,-6l18,0Z" class="g1_1" />
<path d="M429.5,762.5l0,-6" class="g2_1" />
<path d="M499.5,733.5l0,-3" class="g3_1" />
<path d="M499.5,728.5l0,-4" class="g3_1" />
<path d="M499.5,722.5l0,-4" class="g3_1" />
<path d="M499.5,716.5l0,-4" class="g3_1" />
<path d="M499.5,710.5l0,-4" class="g3_1" />
<path d="M499.5,704.5l0,-3" class="g3_1" />
<path d="M491.5,733.5l0,-3" class="g3_1" />
<path d="M491.5,728.5l0,-4" class="g3_1" />
<path d="M491.5,722.5l0,-4" class="g3_1" />
<path d="M491.5,716.5l0,-4" class="g3_1" />
<path d="M491.5,710.5l0,-4" class="g3_1" />
<path d="M491.5,704.5l0,-3" class="g3_1" />
<path d="M578.5,735.5l0,6" class="g3_1" />
<path d="M578.5,735.5l0,5" class="g3_1" />
<path d="M473.5,735.5l0,-2l-1,0" class="g3_1" />
<path d="M332.5,334.5l19,0l0,-19l-19,0l0,19Z" class="g3_1" />
<path d="M332.5,559.5l0,-19" class="g3_1" />
<path fill-rule="evenodd" d="M332,559l19,0l0,-19Z" class="g1_1" />
<path fill-rule="evenodd" d="M332,559l0,-19l19,0Z" class="g1_1" />
<path d="M351.5,559.5l0,-19" class="g3_1" />
<path d="M332.5,559.5l19,0l0,-19l-19,0l0,19Z" class="g3_1" />
<path d="M332.5,784.5l19,0l0,-18l-19,0l0,18Z" class="g3_1" />
<path d="M884.5,334.5l19,0l0,-19l-19,0l0,19Z" class="g3_1" />
<path d="M884.5,559.5l0,-19" class="g3_1" />
<path fill-rule="evenodd" d="M884,559l19,0l0,-19Z" class="g1_1" />
<path fill-rule="evenodd" d="M884,559l0,-19l19,0Z" class="g1_1" />
<path d="M903.5,559.5l0,-19" class="g3_1" />
<path d="M884.5,559.5l19,0l0,-19l-19,0l0,19Z" class="g3_1" />
<path d="M884.5,784.5l0,-18" class="g3_1" />
<path fill-rule="evenodd" d="M884,784l19,0l0,-18Z" class="g1_1" />
<path fill-rule="evenodd" d="M884,784l0,-18l19,0Z" class="g1_1" />
<path d="M903.5,784.5l0,-18" class="g3_1" />
<path d="M884.5,784.5l19,0l0,-18l-19,0l0,18Z" class="g3_1" />
<path d="M705.5,208.5l39,0l0,-1l-39,0l0,1Z" class="g3_1" />
<path d="M745.5,208.5l79,0l0,-1l-79,0l0,1Z" class="g3_1" />
<path d="M825.5,210.5l-121,0l0,-4l121,0" class="g3_1" />
<path d="M479.5,271.5l0,43l0,-43Z" class="g3_1" />
<path d="M478.5,270.5l3,0l0,45l-3,0l0,-45Z" class="g3_1" />
<path d="M479.5,212.5l0,-42l0,42Z" class="g3_1" />
<path d="M478.5,213.5l3,0l0,-44l-3,0l0,44Z" class="g3_1" />
<path d="M390.5,332.5l37,0l0,1l-37,0l0,-1Z" class="g3_1" />
<path d="M351.5,331.5l77,0l0,3l-77,0l0,-3Z" class="g3_1" />
<path d="M352.5,332.5l37,0l0,1l-37,0l0,-1Z" class="g3_1" />
<path d="M122.5,428.5l28,0l-28,0Z" class="g3_1" />
<path d="M121.5,426.5l87,0l0,4l-87,0l0,-4Z" class="g3_1" />
<path d="M151.5,428.5l56,0l-56,0Z" class="g3_1" />
<path d="M478.5,270.5l3,0l0,44l-3,0l0,-44Z" class="g3_1" />
<path d="M704.5,206.5l120,0l0,3l-120,0l0,-3Z" class="g3_1" />
<path d="M332.5,120.5l19,0l0,-20l-19,0l0,20Z" class="g3_1" />
<path d="M608.5,120.5l19,0l0,-20l-19,0l0,20Z" class="g3_1" />
<path d="M514.5,741.5l-6,0" class="g3_1" />
<path d="M504.5,741.5l-8,0" class="g3_1" />
<path d="M492.5,741.5l-8,0" class="g3_1" />
<path d="M480.5,741.5l-6,0" class="g3_1" />
<path d="M514.5,740.5l-6,0" class="g3_1" />
<path d="M504.5,740.5l-8,0" class="g3_1" />
<path d="M492.5,740.5l-8,0" class="g3_1" />
<path d="M480.5,740.5l-5,0" class="g3_1" />
<path d="M473.5,735.5l105,0" class="g3_1" />
<path d="M473.5,735.5l105,0" class="g3_1" />
<path d="M578.5,741.5l-58,0" class="g3_1" />
<path d="M578.5,740.5l-58,0" class="g3_1" />
<path d="M515.5,742.5l-7,0" class="g3_1" />
<path d="M504.5,742.5l-8,0" class="g3_1" />
<path d="M492.5,742.5l-8,0" class="g3_1" />
<path d="M480.5,742.5l-7,0" class="g3_1" />
<path d="M515.5,743.5l-7,0" class="g3_1" />
<path d="M504.5,743.5l-8,0" class="g3_1" />
<path d="M492.5,743.5l-8,0" class="g3_1" />
<path d="M480.5,743.5l-8,0" class="g3_1" />
<path d="M473.5,733.5l106,0" class="g3_1" />
<path d="M473.5,733.5l107,0" class="g3_1" />
<path d="M579.5,742.5l-58,0" class="g3_1" />
<path d="M580.5,743.5l-59,0" class="g3_1" />
<path d="M530.5,743.5l0,13" class="g3_1" />
<path d="M530.5,756.5l0,2" class="g3_1" />
<path d="M530.5,769.5l0,5" class="g3_1" />
<path d="M538.5,743.5l0,29" class="g3_1" />
<path d="M546.5,743.5l0,31" class="g3_1" />
<path d="M555.5,743.5l0,31" class="g3_1" />
<path d="M563.5,743.5l0,31" class="g3_1" />
<path d="M571.5,743.5l0,31" class="g3_1" />
<path d="M522.5,743.5l0,1" class="g3_1" />
<path d="M522.5,755.5l0,2" class="g3_1" />
<path d="M522.5,758.5l0,6" class="g3_1" />
<path d="M522.5,768.5l0,6" class="g3_1" />
<path d="M514.5,743.5l0,7" class="g3_1" />
<path d="M514.5,754.5l0,8" class="g3_1" />
<path d="M514.5,766.5l0,8" class="g3_1" />
<path d="M506.5,743.5l0,7" class="g3_1" />
<path d="M506.5,754.5l0,8" class="g3_1" />
<path d="M506.5,766.5l0,8" class="g3_1" />
<path d="M498.5,743.5l0,7" class="g3_1" />
<path d="M498.5,754.5l0,8" class="g3_1" />
<path d="M498.5,766.5l0,8" class="g3_1" />
<path d="M490.5,743.5l0,7" class="g3_1" />
<path d="M490.5,754.5l0,8" class="g3_1" />
<path d="M490.5,766.5l0,8" class="g3_1" />
<path d="M482.5,743.5l0,7" class="g3_1" />
<path d="M482.5,754.5l0,8" class="g3_1" />
<path d="M482.5,766.5l0,8" class="g3_1" />
<path d="M530.5,733.5l0,-32" class="g3_1" />
<path d="M538.5,733.5l0,-32" class="g3_1" />
<path d="M546.5,733.5l0,-32" class="g3_1" />
<path d="M555.5,733.5l0,-32" class="g3_1" />
<path d="M563.5,733.5l0,-32" class="g3_1" />
<path d="M571.5,733.5l0,-32" class="g3_1" />
<path d="M571.5,733.5l0,-3" class="g3_1" />
<path d="M571.5,728.5l0,-4" class="g3_1" />
<path d="M571.5,722.5l0,-4" class="g3_1" />
<path d="M571.5,716.5l0,-4" class="g3_1" />
<path d="M571.5,710.5l0,-4" class="g3_1" />
<path d="M571.5,704.5l0,-3" class="g3_1" />
<path d="M522.5,733.5l0,-32" class="g3_1" />
<path d="M514.5,733.5l0,-32" class="g3_1" />
<path d="M506.5,733.5l0,-32" class="g3_1" />
<path d="M498.5,733.5l0,-32" class="g3_1" />
<path d="M490.5,733.5l0,-32" class="g3_1" />
<path d="M482.5,733.5l0,-32" class="g3_1" />
<path d="M578.5,699.5l1,0l0,2l-115,0l0,-2l1,0l0,1l113,0l0,-1Z" class="g3_1" />
<path d="M587.5,776.5l1,0l0,-2l-48,0" class="g3_1" />
<path d="M533.5,774.5l-4,0" class="g3_1" />
<path d="M525.5,774.5l-8,0" class="g3_1" />
<path d="M513.5,774.5l-7,0" class="g3_1" />
<path d="M502.5,774.5l-8,0" class="g3_1" />
<path d="M490.5,774.5l-8,0" class="g3_1" />
<path d="M478.5,774.5l-4,0l0,2l1,0l0,-1l10,0" class="g3_1" />
<path d="M489.5,775.5l7,0" class="g3_1" />
<path d="M500.5,775.5l8,0" class="g3_1" />
<path d="M512.5,775.5l8,0" class="g3_1" />
<path d="M524.5,775.5l10,0" class="g3_1" />
<path d="M540.5,775.5l47,0l0,1" class="g3_1" />
<path d="M530.5,743.5l0,2" class="g3_1" />
<path d="M530.5,747.5l0,4" class="g3_1" />
<path d="M530.5,753.5l0,3" class="g3_1" />
<path d="M530.5,757.5l0,1" class="g3_1" />
<path d="M538.5,743.5l0,4" class="g3_1" />
<path d="M538.5,749.5l0,4" class="g3_1" />
<path d="M538.5,755.5l0,3" class="g3_1" />
<path d="M538.5,761.5l0,4" class="g3_1" />
<path d="M538.5,766.5l0,5" class="g3_1" />
<path d="M546.5,743.5l0,2" class="g3_1" />
<path d="M546.5,747.5l0,4" class="g3_1" />
<path d="M546.5,753.5l0,4" class="g3_1" />
<path d="M546.5,759.5l0,4" class="g3_1" />
<path d="M546.5,765.5l0,4" class="g3_1" />
<path d="M546.5,771.5l0,3" class="g3_1" />
<path d="M554.5,743.5l0,2" class="g3_1" />
<path d="M554.5,747.5l0,4" class="g3_1" />
<path d="M554.5,753.5l0,4" class="g3_1" />
<path d="M554.5,759.5l0,4" class="g3_1" />
<path d="M554.5,765.5l0,4" class="g3_1" />
<path d="M554.5,771.5l0,3" class="g3_1" />
<path d="M562.5,743.5l0,2" class="g3_1" />
<path d="M562.5,747.5l0,4" class="g3_1" />
<path d="M562.5,753.5l0,4" class="g3_1" />
<path d="M562.5,759.5l0,4" class="g3_1" />
<path d="M562.5,765.5l0,4" class="g3_1" />
<path d="M562.5,771.5l0,3" class="g3_1" />
<path d="M570.5,743.5l0,2" class="g3_1" />
<path d="M570.5,747.5l0,4" class="g3_1" />
<path d="M570.5,753.5l0,4" class="g3_1" />
<path d="M570.5,759.5l0,4" class="g3_1" />
<path d="M570.5,765.5l0,4" class="g3_1" />
<path d="M570.5,771.5l0,3" class="g3_1" />
<path d="M563.5,733.5l0,-3" class="g3_1" />
<path d="M563.5,728.5l0,-4" class="g3_1" />
<path d="M563.5,722.5l0,-4" class="g3_1" />
<path d="M563.5,716.5l0,-4" class="g3_1" />
<path d="M563.5,710.5l0,-4" class="g3_1" />
<path d="M563.5,704.5l0,-3" class="g3_1" />
<path d="M555.5,733.5l0,-3" class="g3_1" />
<path d="M555.5,728.5l0,-4" class="g3_1" />
<path d="M555.5,722.5l0,-4" class="g3_1" />
<path d="M555.5,716.5l0,-4" class="g3_1" />
<path d="M555.5,710.5l0,-4" class="g3_1" />
<path d="M555.5,704.5l0,-3" class="g3_1" />
<path d="M547.5,733.5l0,-3" class="g3_1" />
<path d="M547.5,728.5l0,-4" class="g3_1" />
<path d="M547.5,722.5l0,-4" class="g3_1" />
<path d="M547.5,716.5l0,-4" class="g3_1" />
<path d="M547.5,710.5l0,-4" class="g3_1" />
<path d="M547.5,704.5l0,-3" class="g3_1" />
<path d="M539.5,733.5l0,-3" class="g3_1" />
<path d="M539.5,728.5l0,-4" class="g3_1" />
<path d="M539.5,722.5l0,-4" class="g3_1" />
<path d="M539.5,716.5l0,-4" class="g3_1" />
<path d="M539.5,710.5l0,-4" class="g3_1" />
<path d="M539.5,704.5l0,-3" class="g3_1" />
<path d="M531.5,733.5l0,-3" class="g3_1" />
<path d="M531.5,728.5l0,-4" class="g3_1" />
<path d="M531.5,722.5l0,-4" class="g3_1" />
<path d="M531.5,716.5l0,-4" class="g3_1" />
<path d="M531.5,710.5l0,-4" class="g3_1" />
<path d="M531.5,704.5l0,-3" class="g3_1" />
<path d="M523.5,733.5l0,-3" class="g3_1" />
<path d="M523.5,728.5l0,-4" class="g3_1" />
<path d="M523.5,722.5l0,-4" class="g3_1" />
<path d="M523.5,716.5l0,-4" class="g3_1" />
<path d="M523.5,710.5l0,-4" class="g3_1" />
<path d="M523.5,704.5l0,-3" class="g3_1" />
<path d="M515.5,733.5l0,-3" class="g3_1" />
<path d="M515.5,728.5l0,-4" class="g3_1" />
<path d="M515.5,722.5l0,-4" class="g3_1" />
<path d="M515.5,716.5l0,-4" class="g3_1" />
<path d="M515.5,710.5l0,-4" class="g3_1" />
<path d="M515.5,704.5l0,-3" class="g3_1" />
<path d="M507.5,733.5l0,-3" class="g3_1" />
<path d="M507.5,728.5l0,-4" class="g3_1" />
<path d="M507.5,722.5l0,-4" class="g3_1" />
<path d="M507.5,716.5l0,-4" class="g3_1" />
<path d="M507.5,710.5l0,-4" class="g3_1" />
<path d="M507.5,704.5l0,-3" class="g3_1" />
<path d="M483.5,733.5l0,-3" class="g3_1" />
<path d="M483.5,728.5l0,-4" class="g3_1" />
<path d="M483.5,722.5l0,-4" class="g3_1" />
<path d="M483.5,716.5l0,-4" class="g3_1" />
<path d="M483.5,710.5l0,-4" class="g3_1" />
<path d="M483.5,704.5l0,-3" class="g3_1" />
<path d="M579.5,733.5l0,9" class="g3_1" />
<path d="M580.5,733.5l0,10" class="g3_1" />
<path d="M473.5,733.5l0,9" class="g3_1" />
<path d="M472.5,733.5l0,10" class="g3_1" />
<path d="M474.5,735.5l0,6" class="g3_1" />
<path d="M475.5,735.5l0,5" class="g3_1" />
<path d="M478.5,169.5l3,0l0,44l-3,0l0,-44Z" class="g3_1" />
<path d="M452.5,826.5l24,0l0,9l-24,0l0,-9Z" class="g3_1" />
<path d="M451.5,835.5l26,0l-26,0Z" class="g3_1" />
<path d="M487.5,831l-0.2,1.2l-0.8,0.8l-1.2,0.4L484.1,833L483,832.2L482.8,831l0.2,-1.2l1.1,-0.8l1.2,-0.4l1.2,0.4l0.8,0.8l0.2,1.2Z" class="g3_1" />
<path d="M1062.5,209.5l-24,0l0,8l24,0l0,-8Z" class="g3_1" />
<path d="M1063.5,217.5l-25,0l0,1l25,0l0,-1Z" class="g3_1" />
<path d="M1027.7,213.9l0.4,1.2l0.9,0.8l1.2,0.4l1.2,-0.4l0.8,-0.8l0.4,-1.2l-0.4,-1.2l-0.8,-0.8l-1.2,-0.4l-1.2,0.4l-0.9,0.8l-0.4,1.2Z" class="g3_1" />
<path d="M208.5,128.5l8,0l0,-23l-8,0l0,23Z" class="g3_1" />
<path d="M208.5,129.5l0,-25l0,25Z" class="g3_1" />
<path d="M429.5,457.5l-1,0" class="g3_1" />
<path d="M428.5,458.5l0,3" class="g3_1" />
<path d="M428.5,461.5l9,0" class="g3_1" />
<path d="M438.5,461.5l0,-3" class="g3_1" />
<path d="M437.5,458.5l1,0" class="g3_1" />
<path d="M429.5,496.5l-1,0" class="g3_1" />
<path d="M428.5,496.5l0,-4" class="g3_1" />
<path d="M428.5,492.5l9,0" class="g3_1" />
<path d="M437.5,492.5l1,0l0,4" class="g3_1" />
<path d="M502.5,418.5l-60,0l0,79l60,0l0,-79Z" class="g3_1" />
<path d="M476.5,415.5l-8,0" class="g3_1" />
<path d="M474.5,415.5l-2,0" class="g3_1" />
<path d="M470.5,415.5l2,0" class="g3_1" />
<path d="M472.5,418.5l0,-3" class="g3_1" />
<path d="M472.5,415.5l0,3" class="g3_1" />
<path d="M476.5,415.5l0,-3" class="g3_1" />
<path d="M474.5,415.5l-4,0" class="g3_1" />
<path d="M468.5,415.5l0,-3" class="g3_1" />
<path d="M476.5,412.5l0,2" class="g3_1" />
<path d="M468.5,412.5l0,2l8,0" class="g3_1" />
<path d="M508.3,480.5l-0.3,-1l-1,-0.2l-0.8,0.2l-0.4,1l0.4,0.8l0.8,0.4l1,-0.4l0.3,-0.8Z" class="g3_1" />
<path d="M511.5,458.5l-8,0l0,1l8,0l0,-1Z" class="g3_1" />
<path d="M511.5,502.5l-8,0l0,-1l8,0l0,1Z" class="g3_1" />
<path d="M511.5,457.5l0,45" class="g3_1" />
<path d="M503.5,458.5l0,-1l9,0" class="g3_1" />
<path d="M512.5,502.5l-9,0" class="g3_1" />
<path d="M509.5,501.5l-4,0" class="g3_1" />
<path d="M509.5,459.5l-4,0" class="g3_1" />
<path d="M507.5,459.5l2,0" class="g3_1" />
<path d="M505.5,459.5l2,0" class="g3_1" />
<path d="M507.5,500.5l-2,0" class="g3_1" />
<path d="M509.5,500.5l-2,0" class="g3_1" />
<path d="M505.5,500.5l0,1" class="g3_1" />
<path d="M507.5,459.5l0,3" class="g3_1" />
<path d="M507.5,498.5l0,2" class="g3_1" />
<path d="M507.5,462.5l0,-3" class="g3_1" />
<path d="M507.5,500.5l0,-2" class="g3_1" />
<path d="M509.5,501.5l0,-1" class="g3_1" />
<path d="M507.5,483.5l0,-6" class="g3_1" />
<path d="M505.5,495.5l4,0l0,-14l-4,0l0,14Z" class="g3_1" />
<path d="M504.5,486.5l0,4" class="g3_1" />
<path d="M509.5,486.5l0,4" class="g3_1" />
<path d="M505.5,486.5l-1,0" class="g3_1" />
<path d="M505.5,490.5l-1,0" class="g3_1" />
<path d="M505.5,474.5l-1,0" class="g3_1" />
<path d="M505.5,469.5l-1,0" class="g3_1" />
<path d="M509.5,469.5l0,5" class="g3_1" />
<path d="M504.5,469.5l0,5" class="g3_1" />
<path d="M509.5,479.5l-4,0l0,-14l4,0l0,14Z" class="g3_1" />
<path d="M478.5,503.5l-2,0" class="g3_1" />
<path d="M465.5,503.5l3,0" class="g3_1" />
<path d="M468.5,503.5l0,-1" class="g3_1" />
<path d="M468.5,503.5l0,-2" class="g3_1" />
<path d="M476.5,502.5l0,1" class="g3_1" />
<path d="M476.5,503.5l0,-2" class="g3_1" />
<path d="M468.5,502.5l8,0" class="g3_1" />
<path d="M468.5,501.5l8,0" class="g3_1" />
<path d="M472.5,498.5l0,3" class="g3_1" />
<path d="M472.5,501.5l0,-3" class="g3_1" />
<path d="M472.5,501.5l-2,0" class="g3_1" />
<path d="M474.5,501.5l-2,0" class="g3_1" />
<path d="M509.5,462.5l-5,0l0,36l5,0l0,-36Z" class="g3_1" />
<path d="M512.5,502.5l0,-45" class="g3_1" />
<path d="M429.5,355.5l-1,0" class="g3_1" />
<path d="M428.5,355.5l0,3" class="g3_1" />
<path d="M428.5,358.5l9,0" class="g3_1" />
<path d="M438.5,358.5l0,-3" class="g3_1" />
<path d="M429.5,397.5l-1,0" class="g3_1" />
<path d="M428.5,396.5l0,-3" class="g3_1" />
<path d="M428.5,393.5l9,0" class="g3_1" />
<path d="M438.5,393.5l0,3" class="g3_1" />
<path d="M437.5,396.5l1,0" class="g3_1" />
<path d="M523.5,330.5l-81,0l0,69l81,0l0,-69Z" class="g3_1" />
<path d="M476.5,326.5l-8,0" class="g3_1" />
<path d="M474.5,326.5l-2,0" class="g3_1" />
<path d="M470.5,326.5l2,0" class="g3_1" />
<path d="M472.5,328.5l0,-2" class="g3_1" />
<path d="M472.5,326.5l0,2" class="g3_1" />
<path d="M476.5,326.5l0,-3" class="g3_1" />
<path d="M474.5,326.5l-4,0" class="g3_1" />
<path d="M468.5,326.5l0,-3" class="g3_1" />
<path d="M476.5,323.5l0,2" class="g3_1" />
<path d="M468.5,323.5l0,2l8,0" class="g3_1" />
<path d="M529,381.5l-0.4,-0.8l-0.8,-0.4l-1,0.4l-0.2,0.8l0.2,0.8l1,0.4l0.8,-0.4l0.4,-0.8Z" class="g3_1" />
<path d="M532.5,359.5l-8,0l0,1l8,0l0,-1Z" class="g3_1" />
<path d="M532.5,403.5l-8,0l0,-1l8,0l0,1Z" class="g3_1" />
<path d="M532.5,358.5l0,46" class="g3_1" />
<path d="M524.5,404.5l0,-1" class="g3_1" />
<path d="M524.5,359.5l0,-1l9,0" class="g3_1" />
<path d="M533.5,404.5l-9,0" class="g3_1" />
<path d="M530.5,402.5l-4,0" class="g3_1" />
<path d="M530.5,360.5l-4,0" class="g3_1" />
<path d="M528.5,361.5l2,0" class="g3_1" />
<path d="M526.5,361.5l1,0" class="g3_1" />
<path d="M527.5,363.5l1,0" class="g3_1" />
<path d="M528.5,399.5l-1,0" class="g3_1" />
<path d="M527.5,401.5l-1,0" class="g3_1" />
<path d="M530.5,401.5l-2,0" class="g3_1" />
<path d="M526.5,401.5l0,1" class="g3_1" />
<path d="M526.5,360.5l0,1" class="g3_1" />
<path d="M527.5,361.5l0,2" class="g3_1" />
<path d="M527.5,399.5l0,2" class="g3_1" />
<path d="M528.5,363.5l0,-2" class="g3_1" />
<path d="M528.5,401.5l0,-2" class="g3_1" />
<path d="M530.5,361.5l0,-1" class="g3_1" />
<path d="M530.5,402.5l0,-1" class="g3_1" />
<path d="M525.5,396.5l4,0l0,-14l-4,0l0,14Z" class="g3_1" />
<path d="M530.5,387.5l-1,0" class="g3_1" />
<path d="M530.5,391.5l-1,0" class="g3_1" />
<path d="M524.5,387.5l0,4" class="g3_1" />
<path d="M530.5,387.5l0,4" class="g3_1" />
<path d="M525.5,387.5l-1,0" class="g3_1" />
<path d="M525.5,391.5l-1,0" class="g3_1" />
<path d="M525.5,375.5l-1,0" class="g3_1" />
<path d="M525.5,371.5l-1,0" class="g3_1" />
<path d="M530.5,371.5l0,4" class="g3_1" />
<path d="M524.5,371.5l0,4" class="g3_1" />
<path d="M530.5,375.5l-1,0" class="g3_1" />
<path d="M530.5,371.5l-1,0" class="g3_1" />
<path d="M529.5,380.5l-4,0l0,-14l4,0l0,14Z" class="g3_1" />
<path d="M478.5,405.5l0,-1l-2,0" class="g3_1" />
<path d="M465.5,405.5l0,-1l3,0" class="g3_1" />
<path d="M468.5,405.5l0,-2" class="g3_1" />
<path d="M468.5,404.5l0,-2" class="g3_1" />
<path d="M476.5,403.5l0,2" class="g3_1" />
<path d="M476.5,404.5l0,-2" class="g3_1" />
<path d="M468.5,403.5l8,0" class="g3_1" />
<path d="M468.5,402.5l8,0" class="g3_1" />
<path d="M472.5,400.5l0,2" class="g3_1" />
<path d="M472.5,402.5l0,-2" class="g3_1" />
<path d="M472.5,402.5l-2,0" class="g3_1" />
<path d="M474.5,402.5l-2,0" class="g3_1" />
<path d="M530.5,363.5l-5,0l0,36l5,0l0,-36Z" class="g3_1" />
<path d="M533.5,404.5l0,-46" class="g3_1" />
<path d="M670.5,645.5l-16,0l0,1l16,0" class="g3_1" />
<path d="M621.5,645.5l1,0l0,-48l-1,0l0,48Z" class="g3_1" />
<path d="M620.5,646.5l6,0l0,-1l-6,0l0,1Z" class="g3_1" />
<path d="M593.5,645.5l1,0l0,-48l-1,0l0,48Z" class="g3_1" />
<path d="M644.5,555.5l0,18l0,-18Z" class="g3_1" />
<path d="M618.5,555.5l0,18l0,-18Z" class="g3_1" />
<path d="M564.5,645.5l1,0l0,-48l-1,0l0,48Z" class="g3_1" />
<path d="M563.5,646.5l7,0l0,-1l-7,0l0,1Z" class="g3_1" />
<path d="M534.5,645.5l1,0l0,-36l-1,0l0,36Z" class="g3_1" />
<path d="M534.5,646.5l8,0l0,-1l-8,0l0,1Z" class="g3_1" />
<path d="M591.5,646.5l8,0l0,-1l-8,0l0,1Z" class="g3_1" />
<path d="M614.5,482.5l-32,0l0,1l32,0" class="g3_1" />
<path d="M550.5,482.5l1,0l0,-48l-1,0l0,48Z" class="g3_1" />
<path d="M548.5,483.5l6,0l0,-1l-6,0l0,1Z" class="g3_1" />
<path d="M521.5,483.5l6,0l0,-1l-6,0l0,1Z" class="g3_1" />
<path d="M592.5,555.5l-1,0l0,18l1,0l0,-18Z" class="g3_1" />
<path d="M178.5,87.5l24,0" class="g3_1" />
<path d="M178.5,86.5l24,0" class="g3_1" />
<path d="M178.5,86.5l24,0" class="g3_1" />
<path d="M204.5,87.5l44,0" class="g3_1" />
<path d="M204.5,87.5l44,0" class="g3_1" />
<path d="M204.5,86.5l44,0" class="g3_1" />
<path d="M204.5,86.5l44,0" class="g3_1" />
<path d="M250.5,87.5l44,0" class="g3_1" />
<path d="M250.5,87.5l44,0" class="g3_1" />
<path d="M250.5,86.5l44,0" class="g3_1" />
<path d="M250.5,86.5l44,0" class="g3_1" />
<path d="M297.5,87.5l43,0" class="g3_1" />
<path d="M297.5,87.5l43,0" class="g3_1" />
<path d="M297.5,86.5l43,0" class="g3_1" />
<path d="M297.5,86.5l43,0" class="g3_1" />
<path d="M178.5,92.5l162,0" class="g3_1" />
<path d="M178.5,86.5l162,0" class="g3_1" />
<path d="M245.5,92.5l-37,0l37,0Z" class="g3_1" />
<g clip-path="url(#c0_1)">
<path d="M386.5,-0.5l0,7" class="g3_1" />
</g>
<path d="M386.5,10.5l0,8" class="g3_1" />
<path d="M386.5,22.5l0,8" class="g3_1" />
<path d="M386.5,34.5l0,8" class="g3_1" />
<path d="M386.5,46.5l0,8" class="g3_1" />
<path d="M386.5,58.5l0,8" class="g3_1" />
<path d="M386.5,70.5l0,7" class="g3_1" />
<path d="M386.5,81.5l0,5" class="g3_1" />
<path d="M121.5,328.5l27,0l0,6l-27,0l0,206" class="g3_1" />
<path d="M102.5,784.5l0,51l249,0l0,-51" class="g3_1" />
<path d="M345.5,784.5l0,44l-224,0l0,-44" class="g3_1" />
<path d="M351.5,766.5l0,-207" class="g3_1" />
<path d="M345.5,559.5l0,207" class="g3_1" />
<path d="M336.5,540.5l0,-24l9,0" class="g3_1" />
<path d="M332.5,540.5l0,-28l13,0" class="g3_1" />
<path d="M345.5,540.5l0,-108" class="g3_1" />
<path d="M351.5,426.5l0,114" class="g3_1" />
<path d="M345.5,432.5l-137,0l0,-6l143,0" class="g3_1" />
<path d="M214.5,149.5l0,-57" class="g3_1" />
<path d="M208.5,92.5l0,57l6,0" class="g3_1" />
<path d="M214.5,139.5l12,0l0,-47" class="g3_1" />
<path d="M222.5,92.5l0,43l-8,0" class="g3_1" />
<path d="M208.5,209.5l6,0l0,119l118,0" class="g3_1" />
<path d="M332.5,334.5l-124,0l0,-125" class="g3_1" />
<path d="M343.5,100.5l0,-3l8,0l0,3" class="g3_1" />
<path d="M343.5,97.5l0,-11l699,0l0,11l-190,0" class="g3_1" />
<path d="M1042.5,89.5l-699,0" class="g3_1" />
<path d="M852.5,97.5l0,104l222,0" class="g3_1" />
<path d="M1074.5,209.5l0,-123" class="g3_1" />
<path fill-rule="evenodd" d="M1074,209l8,0l0,-123Z" class="g1_1" />
<path fill-rule="evenodd" d="M1074,209l0,-123l8,0Z" class="g1_1" />
<path d="M1082.5,209.5l0,-123" class="g3_1" />
<path d="M1074.5,86.5l8,0l0,123l-238,0l0,-120" class="g3_1" />
<path d="M1074.5,209.5l0,-123" class="g3_1" />
<path d="M742.5,835.5l-21,0l0,-7l21,0l0,7Z" class="g3_1" />
<path d="M838.5,835.5l0,-7l169,0l0,-494l-104,0" class="g3_1" />
<path d="M825.5,334.5l0,-74l6,0l0,68l53,0" class="g3_1" />
<path d="M884.5,334.5l-59,0" class="g3_1" />
<path d="M903.5,328.5l104,0l0,-13l7,0l0,520l-176,0" class="g3_1" />
<path d="M1014.5,220.5l0,-11" class="g3_1" />
<path d="M1007.5,209.5l0,11l7,0" class="g3_1" />
<path d="M844.5,209.5l-13,0l0,5l-6,0l0,-11l19,0" class="g3_1" />
<path d="M831.5,203.5l0,-106l-6,0l0,106" class="g3_1" />
<path d="M844.5,97.5l-493,0" class="g3_1" />
<path d="M674.5,97.5l0,113l-6,0l0,-41l-3,0l0,-6l3,0l0,-66" class="g3_1" />
<path d="M627.5,97.5l0,3" class="g3_1" />
<path d="M622.5,100.5l0,-3" class="g3_1" />
<path d="M612.5,97.5l0,3" class="g3_1" />
<path d="M608.5,100.5l0,-3" class="g3_1" />
<path d="M605.5,169.5l-129,0l0,-72" class="g3_1" />
<path d="M482.5,97.5l0,66l123,0l0,6" class="g3_1" />
<path d="M411.5,828.5l18,0l0,-44l6,0l0,44l57,0l0,7l-81,0l0,-7Z" class="g3_1" />
<path d="M429.5,784.5l0,-53l8,0l0,46l177,0l0,-78l-185,0l0,-62l8,0l0,54l239,0l0,8l-54,0l0,85" class="g3_1" />
<path d="M627.5,699.5l0,81l-5,0" class="g3_1" />
<path d="M632.5,699.5l0,85l-197,0" class="g3_1" />
<path d="M429.5,762.5l-18,0l0,-6l18,0" class="g3_1" />
<path d="M524.5,784.5l0,51l165,0l0,-7l-159,0l0,-44" class="g3_1" />
<path d="M530.5,821.5l38,0l0,7" class="g3_1" />
<path d="M573.5,828.5l0,-11l-43,0" class="g3_1" />
<path d="M468.5,642.5l14,0l0,-58l50,0l0,25l4,0l0,-12l134,0l0,94" class="g3_1" />
<path d="M468.5,642.5l0,-5l10,0l0,-72l-10,0l0,-4l14,0l0,19l80,0l0,-26l4,0l0,19l104,0" class="g3_1" />
<path d="M536.5,593.5l0,-9l30,0l0,-7l104,0l0,16l-134,0Z" class="g3_1" />
<path d="M676.5,478.5l0,213" class="g3_1" />
<path d="M670.5,573.5l0,-87l-56,0l0,-8l62,0" class="g3_1" />
<path d="M670.5,486.5l6,0" class="g3_1" />
<path d="M620.5,478.5l0,-155" class="g3_1" />
<path d="M577.5,315.5l43,0l0,8l-43,0l0,-8Z" class="g3_1" />
<path d="M614.5,323.5l0,155" class="g3_1" />
<path d="M614.5,434.5l-93,0" class="g3_1" />
<path d="M521.5,430.5l93,0" class="g3_1" />
<path d="M614.5,412.5l-74,0" class="g3_1" />
<path d="M540.5,408.5l74,0" class="g3_1" />
<path d="M521.5,511.5l0,-99l19,0l0,-89l5,0l0,-8l-116,0l0,41l8,0l0,-33l96,0l0,82l-96,0l0,-10l-8,0l0,65l8,0l0,-48l76,0l0,91l-76,0l0,-9l-8,0l0,71l8,0l0,-54l84,0Z" class="g3_1" />
<path d="M905.9,154.2l117.2,-8.9" class="g3_1" />
<path d="M1023.1,154.2L905.9,145.3" class="g3_1" />
<path d="M944.5,142.5l0,-7" class="g3_1" />
<path d="M944.5,131.5l0,-8" class="g3_1" />
<path d="M944.5,119.5l0,-8" class="g3_1" />
<path d="M944.5,107.5l0,-8" class="g3_1" />
<path d="M935.5,142.5l0,-7" class="g3_1" />
<path d="M935.5,131.5l0,-8" class="g3_1" />
<path d="M935.5,119.5l0,-8" class="g3_1" />
<path d="M935.5,107.5l0,-8" class="g3_1" />
<path d="M926.5,142.5l0,-7" class="g3_1" />
<path d="M926.5,131.5l0,-8" class="g3_1" />
<path d="M926.5,119.5l0,-8" class="g3_1" />
<path d="M926.5,107.5l0,-8" class="g3_1" />
<path d="M917.5,142.5l0,-7" class="g3_1" />
<path d="M917.5,131.5l0,-8" class="g3_1" />
<path d="M917.5,119.5l0,-8" class="g3_1" />
<path d="M917.5,107.5l0,-8" class="g3_1" />
<path d="M943.5,154.5l-5,0" class="g3_1" />
<path d="M934.5,154.5l-8,0" class="g3_1" />
<path d="M922.5,154.5l-8,0" class="g3_1" />
<path d="M910.5,154.5l-5,0" class="g3_1" />
<path d="M943.5,154.5l-5,0" class="g3_1" />
<path d="M934.5,154.5l-8,0" class="g3_1" />
<path d="M922.5,154.5l-8,0" class="g3_1" />
<path d="M910.5,154.5l-5,0" class="g3_1" />
<path d="M905.5,154.5l0,-10l10,0" class="g3_1" />
<path d="M918.5,144.5l8,0" class="g3_1" />
<path d="M930.5,144.5l8,0" class="g3_1" />
<path d="M942.5,144.5l8,0" class="g3_1" />
<path d="M954.5,144.5l8,0" class="g3_1" />
<path d="M966.5,144.5l8,0" class="g3_1" />
<path d="M978.5,144.5l8,0" class="g3_1" />
<path d="M990.5,144.5l8,0" class="g3_1" />
<path d="M1002.5,144.5l7,0" class="g3_1" />
<path d="M1014.5,144.5l9,0" class="g3_1" />
<path d="M905.5,145.5l10,0" class="g3_1" />
<path d="M918.5,145.5l8,0" class="g3_1" />
<path d="M930.5,145.5l8,0" class="g3_1" />
<path d="M942.5,145.5l8,0" class="g3_1" />
<path d="M954.5,145.5l8,0" class="g3_1" />
<path d="M966.5,145.5l8,0" class="g3_1" />
<path d="M978.5,145.5l8,0" class="g3_1" />
<path d="M990.5,145.5l8,0" class="g3_1" />
<path d="M1002.5,145.5l7,0" class="g3_1" />
<path d="M1014.5,145.5l9,0" class="g3_1" />
<path d="M1023.5,144.5l0,10" class="g3_1" />
<path d="M1024.5,154.5l-75,0" class="g3_1" />
<path d="M1024.5,154.5l-75,0" class="g3_1" />
<path d="M944.5,156.5l-7,0" class="g3_1" />
<path d="M934.5,156.5l-8,0" class="g3_1" />
<path d="M922.5,156.5l-8,0" class="g3_1" />
<path d="M910.5,156.5l-6,0" class="g3_1" />
<path d="M944.5,156.5l-7,0" class="g3_1" />
<path d="M933.5,156.5l-7,0" class="g3_1" />
<path d="M922.5,156.5l-8,0" class="g3_1" />
<path d="M910.5,156.5l-7,0" class="g3_1" />
<path d="M904.5,156.5l0,-5" class="g3_1" />
<path d="M904.5,147.5l0,-4l4,0" class="g3_1" />
<path d="M912.5,143.5l8,0" class="g3_1" />
<path d="M924.5,143.5l8,0" class="g3_1" />
<path d="M936.5,143.5l8,0" class="g3_1" />
<path d="M948.5,143.5l8,0" class="g3_1" />
<path d="M960.5,143.5l8,0" class="g3_1" />
<path d="M972.5,143.5l8,0" class="g3_1" />
<path d="M984.5,143.5l8,0" class="g3_1" />
<path d="M996.5,143.5l8,0" class="g3_1" />
<path d="M1008.5,143.5l8,0" class="g3_1" />
<path d="M1020.5,143.5l4,0" class="g3_1" />
<path d="M903.5,142.5l5,0" class="g3_1" />
<path d="M912.5,142.5l8,0" class="g3_1" />
<path d="M924.5,142.5l8,0" class="g3_1" />
<path d="M936.5,142.5l8,0" class="g3_1" />
<path d="M948.5,142.5l8,0" class="g3_1" />
<path d="M960.5,142.5l8,0" class="g3_1" />
<path d="M972.5,142.5l8,0" class="g3_1" />
<path d="M984.5,142.5l8,0" class="g3_1" />
<path d="M996.5,142.5l8,0" class="g3_1" />
<path d="M1008.5,142.5l8,0" class="g3_1" />
<path d="M1020.5,142.5l5,0" class="g3_1" />
<path d="M1024.5,143.5l0,4" class="g3_1" />
<path d="M1024.5,151.5l0,5" class="g3_1" />
<path d="M1024.5,156.5l-74,0" class="g3_1" />
<path d="M1024.5,156.5l-74,0" class="g3_1" />
<path d="M970.5,156.5l0,35" class="g3_1" />
<path d="M979.5,156.5l0,43" class="g3_1" />
<path d="M988.5,156.5l0,43" class="g3_1" />
<path d="M997.5,156.5l0,43" class="g3_1" />
<path d="M1006.5,156.5l0,43" class="g3_1" />
<path d="M1015.5,156.5l0,43" class="g3_1" />
<path d="M961.5,156.5l0,17" class="g3_1" />
<path d="M961.5,186.5l0,5" class="g3_1" />
<path d="M961.5,195.5l0,4" class="g3_1" />
<path d="M953.5,156.5l0,4" class="g3_1" />
<path d="M953.5,171.5l0,5" class="g3_1" />
<path d="M953.5,177.5l0,9" class="g3_1" />
<path d="M953.5,190.5l0,9" class="g3_1" />
<path d="M944.5,156.5l0,8" class="g3_1" />
<path d="M944.5,168.5l0,7" class="g3_1" />
<path d="M944.5,180.5l0,7" class="g3_1" />
<path d="M944.5,191.5l0,8" class="g3_1" />
<path d="M935.5,156.5l0,8" class="g3_1" />
<path d="M935.5,168.5l0,7" class="g3_1" />
<path d="M935.5,180.5l0,7" class="g3_1" />
<path d="M935.5,191.5l0,8" class="g3_1" />
<path d="M926.5,156.5l0,8" class="g3_1" />
<path d="M926.5,168.5l0,7" class="g3_1" />
<path d="M926.5,179.5l0,8" class="g3_1" />
<path d="M926.5,191.5l0,8" class="g3_1" />
<path d="M917.5,156.5l0,8" class="g3_1" />
<path d="M917.5,168.5l0,7" class="g3_1" />
<path d="M917.5,179.5l0,8" class="g3_1" />
<path d="M917.5,191.5l0,8" class="g3_1" />
<path d="M962.5,142.5l0,-7" class="g3_1" />
<path d="M962.5,131.5l0,-8" class="g3_1" />
<path d="M962.5,119.5l0,-8" class="g3_1" />
<path d="M962.5,107.5l0,-8" class="g3_1" />
<path d="M970.5,142.5l0,-7" class="g3_1" />
<path d="M970.5,131.5l0,-8" class="g3_1" />
<path d="M970.5,119.5l0,-8" class="g3_1" />
<path d="M970.5,107.5l0,-8" class="g3_1" />
<path d="M979.5,142.5l0,-7" class="g3_1" />
<path d="M979.5,131.5l0,-8" class="g3_1" />
<path d="M979.5,119.5l0,-8" class="g3_1" />
<path d="M979.5,107.5l0,-8" class="g3_1" />
<path d="M988.5,142.5l0,-7" class="g3_1" />
<path d="M988.5,131.5l0,-8" class="g3_1" />
<path d="M988.5,119.5l0,-8" class="g3_1" />
<path d="M988.5,107.5l0,-8" class="g3_1" />
<path d="M997.5,142.5l0,-7" class="g3_1" />
<path d="M997.5,131.5l0,-8" class="g3_1" />
<path d="M997.5,119.5l0,-8" class="g3_1" />
<path d="M997.5,107.5l0,-8" class="g3_1" />
<path d="M1006.5,142.5l0,-7" class="g3_1" />
<path d="M1006.5,131.5l0,-8" class="g3_1" />
<path d="M1006.5,119.5l0,-8" class="g3_1" />
<path d="M1006.5,107.5l0,-8" class="g3_1" />
<path d="M953.5,142.5l0,-7" class="g3_1" />
<path d="M953.5,131.5l0,-8" class="g3_1" />
<path d="M953.5,119.5l0,-8" class="g3_1" />
<path d="M953.5,107.5l0,-8" class="g3_1" />
<path d="M1015.5,142.5l0,-7" class="g3_1" />
<path d="M1015.5,131.5l0,-8" class="g3_1" />
<path d="M1015.5,119.5l0,-8" class="g3_1" />
<path d="M1015.5,107.5l0,-8" class="g3_1" />
<path d="M905.7,100.5l-5.8,0.4l-3.2,0.6" class="g3_1" />
<path d="M892.8,102.6l-4.2,1.4l-3,1.4" class="g3_1" />
<path d="M881.9,107.4l-3.2,2.2l-3,2.6" class="g3_1" />
<path d="M872.9,115.1l-2.5,2.8l-2.2,3.4" class="g3_1" />
<path d="M866.2,124.7l-1.6,3.3l-1.4,4" class="g3_1" />
<path d="M862.4,135.8l-0.8,3.3l-0.4,5.8l0,9.5l0.4,5.8l0.8,3.3" class="g3_1" />
<path d="M863.2,167.3l1.4,4l1.6,3.3" class="g3_1" />
<path d="M868.2,178l2.2,3.4l2.5,2.8" class="g3_1" />
<path d="M875.7,187.1l3,2.6l3.2,2.2" class="g3_1" />
<path d="M885.6,193.9l3,1.4l4.2,1.4" class="g3_1" />
<path d="M896.7,197.7l3.2,0.6l5.8,0.5" class="g3_1" />
<path d="M975.5,199.5l58,0" class="g3_1" />
<path d="M1022.5,97.5l2,0l0,2l-7,0" class="g3_1" />
<path d="M1013.5,99.5l-8,0" class="g3_1" />
<path d="M1001.5,99.5l-8,0" class="g3_1" />
<path d="M989.5,99.5l-8,0" class="g3_1" />
<path d="M977.5,99.5l-8,0" class="g3_1" />
<path d="M965.5,99.5l-8,0" class="g3_1" />
<path d="M953.5,99.5l-8,0" class="g3_1" />
<path d="M942.5,99.5l-9,0" class="g3_1" />
<path d="M930.5,99.5l-8,0" class="g3_1" />
<path d="M918.5,99.5l-8,0" class="g3_1" />
<path d="M906.5,99.5l-7,0l0,-2l1,0l0,1l6,0" class="g3_1" />
<path d="M910.5,98.5l8,0" class="g3_1" />
<path d="M922.5,98.5l8,0" class="g3_1" />
<path d="M933.5,98.5l9,0" class="g3_1" />
<path d="M945.5,98.5l8,0" class="g3_1" />
<path d="M957.5,98.5l8,0" class="g3_1" />
<path d="M969.5,98.5l8,0" class="g3_1" />
<path d="M981.5,98.5l8,0" class="g3_1" />
<path d="M993.5,98.5l8,0" class="g3_1" />
<path d="M1005.5,98.5l8,0" class="g3_1" />
<path d="M1017.5,98.5l5,0l0,-1" class="g3_1" />
<path d="M1032.5,201.5l1,0l0,-2" class="g3_1" />
<path d="M969.5,199.5l-5,0" class="g3_1" />
<path d="M960.5,199.5l-8,0" class="g3_1" />
<path d="M949.5,199.5l-8,0" class="g3_1" />
<path d="M937.5,199.5l-8,0" class="g3_1" />
<path d="M925.5,199.5l-8,0" class="g3_1" />
<path d="M913.5,199.5l-5,0l0,2l2,0l0,-1l4,0" class="g3_1" />
<path d="M918.5,200.5l8,0" class="g3_1" />
<path d="M930.5,200.5l8,0" class="g3_1" />
<path d="M942.5,200.5l7,0" class="g3_1" />
<path d="M953.5,200.5l8,0" class="g3_1" />
<path d="M965.5,200.5l5,0" class="g3_1" />
<path d="M976.5,200.5l56,0l0,1" class="g3_1" />
<path d="M952.5,159.5l0,-3" class="g3_1" />
<path d="M961.5,173.5l0,-4" class="g3_1" />
<path d="M961.5,167.5l0,-4" class="g3_1" />
<path d="M961.5,161.5l0,-5" class="g3_1" />
<path d="M970.5,189.5l0,-3" class="g3_1" />
<path d="M970.5,184.5l0,-5" class="g3_1" />
<path d="M970.5,178.5l0,-4" class="g3_1" />
<path d="M970.5,172.5l0,-4" class="g3_1" />
<path d="M970.5,166.5l0,-4" class="g3_1" />
<path d="M970.5,160.5l0,-4" class="g3_1" />
<path d="M978.5,199.5l0,-3" class="g3_1" />
<path d="M978.5,194.5l0,-4" class="g3_1" />
<path d="M978.5,188.5l0,-4" class="g3_1" />
<path d="M978.5,183.5l0,-5" class="g3_1" />
<path d="M978.5,176.5l0,-4" class="g3_1" />
<path d="M978.5,171.5l0,-4" class="g3_1" />
<path d="M978.5,165.5l0,-4" class="g3_1" />
<path d="M978.5,159.5l0,-3" class="g3_1" />
<path d="M987.5,199.5l0,-3" class="g3_1" />
<path d="M987.5,194.5l0,-4" class="g3_1" />
<path d="M987.5,188.5l0,-4" class="g3_1" />
<path d="M987.5,183.5l0,-5" class="g3_1" />
<path d="M987.5,176.5l0,-4" class="g3_1" />
<path d="M987.5,171.5l0,-4" class="g3_1" />
<path d="M987.5,165.5l0,-4" class="g3_1" />
<path d="M987.5,159.5l0,-3" class="g3_1" />
<path d="M996.5,199.5l0,-3" class="g3_1" />
<path d="M996.5,194.5l0,-4" class="g3_1" />
<path d="M996.5,188.5l0,-4" class="g3_1" />
<path d="M996.5,183.5l0,-5" class="g3_1" />
<path d="M996.5,176.5l0,-4" class="g3_1" />
<path d="M996.5,171.5l0,-4" class="g3_1" />
<path d="M996.5,165.5l0,-4" class="g3_1" />
<path d="M996.5,159.5l0,-3" class="g3_1" />
<path d="M1005.5,199.5l0,-3" class="g3_1" />
<path d="M1005.5,194.5l0,-4" class="g3_1" />
<path d="M1005.5,188.5l0,-4" class="g3_1" />
<path d="M1005.5,183.5l0,-5" class="g3_1" />
<path d="M1005.5,176.5l0,-4" class="g3_1" />
<path d="M1005.5,171.5l0,-4" class="g3_1" />
<path d="M1005.5,165.5l0,-4" class="g3_1" />
<path d="M1005.5,159.5l0,-3" class="g3_1" />
<path d="M1014.5,199.5l0,-3" class="g3_1" />
<path d="M1014.5,194.5l0,-4" class="g3_1" />
<path d="M1014.5,188.5l0,-4" class="g3_1" />
<path d="M1014.5,183.5l0,-5" class="g3_1" />
<path d="M1014.5,176.5l0,-4" class="g3_1" />
<path d="M1014.5,171.5l0,-4" class="g3_1" />
<path d="M1014.5,165.5l0,-4" class="g3_1" />
<path d="M1014.5,159.5l0,-3" class="g3_1" />
<path d="M903.5,142.5l0,5" class="g3_1" />
<path d="M903.5,151.5l0,5" class="g3_1" />
<path d="M905.5,145.5l0,9" class="g3_1" />
<path d="M1025.5,142.5l0,5" class="g3_1" />
<path d="M1025.5,151.5l0,5" class="g3_1" />
<path d="M1023.5,145.5l0,9" class="g3_1" />
<path d="M1024.5,154.5l0,2l1,0" class="g3_1" />
<path d="M1015.5,178.5l0,-6" class="g3_1" />
<path d="M1012.5,175.5l6,0" class="g3_1" />
<path d="M1015.2,174.2l1.2,0.6l0.5,1l-0.5,1.2l-1.2,0.4l-1,-0.4l-0.4,-1.2l0.4,-1l1,-0.6Z" class="g3_1" />
<path d="M1018.5,175.8l-52.9,0l6.9,6.8" class="g3_1" />
<path d="M965.6,175.8l6.9,-6.7" class="g3_1" />
<path d="M977.9,203.2l-15.1,-26l-4.2,0l6,-2.2l-3,0L948.3,152" class="g3_1" />
<path d="M971.5,203.2l-14.9,-26l-4.3,0l5.9,-2.2l-2.9,0L942,152" class="g3_1" />
<path d="M1019.1,167.7l0,4.2l0.2,0.8l0.6,0.4l0.8,0.4l0.6,0l0.8,-0.4l0.4,-0.4l0.4,-0.8l0,-4.2" class="g3_1" />
<path d="M1024.9,173.5l0,-5.8l2.6,0l0.8,0.4l0.3,0.2l0.2,0.6l0,0.8l-0.5,0.8l-0.8,0.2l-2.6,0" class="g3_1" />
<path d="M542.7,779.2L530.8,758.6l-4.2,0l6.1,-2.2l-3.1,0l-10.3,-18" class="g3_1" />
<path d="M536.5,779.2L524.6,758.6l-4.3,0l5.9,-2.2l-3,0l-10.3,-18" class="g3_1" />
<path d="M482.5,723.5l0,-7" class="g3_1" />
<path d="M485.5,720.5l-6,0" class="g3_1" />
<path d="M482.2,718.4l-1,0.5l-0.6,1.2l0.6,1l1,0.6l1.2,-0.6l0.4,-1l-0.4,-1.2l-1.2,-0.5Z" class="g3_1" />
<path d="M540.7,763.2l-6.8,-6.6l6.8,-6.9" class="g3_1" />
<path d="M533.5,756.5l54,0l0,-36l-108,0" class="g3_1" />
<path d="M468.7,712l0,4l0.4,0.8l0.4,0.6l0.8,0.2l0.6,0l0.8,-0.2l0.7,-0.6l0.2,-0.8l0,-4" class="g3_1" />
<path d="M474.8,717.6l0,-5.6l2.4,0l0.8,0.2l0.2,0.2l0.4,0.6l0,0.8l-0.4,0.6l-0.2,0.2l-0.8,0.4l-2.4,0" class="g3_1" />
<path d="M208.5,92.5l6,0" class="g3_1" />
<path d="M222.5,92.5l4,0" class="g3_1" />
<path d="M532.5,585.5l-50,0l0,-1l50,0l0,1Z" class="g3_1" />
<path d="M562.5,578.5l-80,0l0,2l80,0l0,-2Z" class="g3_1" />
<path d="M482.5,584.5l50,0l0,19l-50,0l0,-19Z" class="g3_1" />
<path d="M482.5,561.5l80,0l0,19l-80,0l0,-19Z" class="g3_1" />
<path d="M674.5,97.5l151,0l0,4l-151,0l0,-4Z" class="g3_1" />
<path d="M482.5,97.5l126,0l0,4l-126,0l0,-4Z" class="g3_1" />
<path d="M351.5,97.5l125,0l0,4l-125,0l0,-4Z" class="g3_1" />
<path d="M226.5,96.5l106,0l0,5l-106,0l0,-5Z" class="g3_1" />
<path d="M1037.5,86.5l0,-5l-854,0l0,5" class="g3_1" />
<path d="M176.5,86.5l2,0l0,6l-2,0l0,-6Z" class="g3_1" />
<path d="M202.5,86.5l2,0l0,6l-2,0l0,-6Z" class="g3_1" />
<path d="M248.5,86.5l2,0l0,6l-2,0l0,-6Z" class="g3_1" />
<path d="M294.5,86.5l3,0l0,6l-3,0l0,-6Z" class="g3_1" />
<path d="M340.5,86.5l2,0l0,6l-2,0l0,-6Z" class="g3_1" />
<path d="M447.3,437.7l1.5,-0.8l2.4,-2.8l0,19" class="g3_1" />
<path d="M464.1,434.1l-2.2,1l-0.8,1.8l0,1.6l0.8,1.8l1.4,1.1l3,0.8l2.4,1l1.4,1.8l0.8,1.8l0,2.6l-0.8,1.8l-0.6,0.8l-2.4,1.1l-3,0L461.9,452l-0.8,-0.8l-0.8,-1.8l0,-2.6l0.8,-1.8l1.6,-1.8l2.2,-1l3,-0.8l1.6,-1.1l0.6,-1.8l0,-1.6l-0.6,-1.8l-2.4,-1l-3,0Z" class="g3_1" />
<path d="M480.2,434.1l-2.4,1l-1.4,2.6l-0.8,4.5l0,2.8l0.8,4.4l1.4,2.6l2.4,1.1l1.4,0l2.5,-1.1l1.4,-2.6l0.8,-4.4l0,-2.8l-0.8,-4.5l-1.4,-2.6l-2.5,-1l-1.4,0Z" class="g3_1" />
<path d="M491.7,438.5l0,-0.8l0.8,-1.8l0.6,-0.8l1.6,-1l3.1,0l1.6,1l0.6,0.8l0.8,1.8l0,1.8l-0.8,1.9l-1.4,2.6l-7.7,9.1l10.7,0" class="g3_1" />
<path d="M454.5,479.5l0,-20l11,0" class="g3_1" />
<path d="M454.5,468.5l7,0" class="g3_1" />
<path d="M454.5,479.5l11,0" class="g3_1" />
<path d="M469.5,459.5l0,20l10,0" class="g3_1" />
<path d="M481.2,459.3l6.5,20l6.4,-20" class="g3_1" />
<path d="M459.2,350.4l1.7,-0.8l2.2,-2.8l0,18.9" class="g3_1" />
<path d="M476.2,346.8l-2.4,1l-0.8,1.8l0,1.8l0.8,1.8l1.6,0.8l3,1l2.2,0.8l1.6,1.9l0.8,1.8l0,2.6l-0.8,1.8l-0.8,1l-2.2,0.8l-3,0l-2.4,-0.8l-0.8,-1l-0.6,-1.8l0,-2.6l0.6,-1.8l1.6,-1.9l2.2,-0.8l3.2,-1l1.4,-0.8l0.8,-1.8l0,-1.8l-0.8,-1.8l-2.2,-1l-3,0Z" class="g3_1" />
<path d="M492.1,346.8l-2.2,1l-1.6,2.6l-0.6,4.6l0,2.7l0.6,4.4l1.6,2.8l2.2,0.8l1.6,0l2.2,-0.8l1.7,-2.8l0.8,-4.4l0,-2.7l-0.8,-4.6l-1.7,-2.6l-2.2,-1l-1.6,0Z" class="g3_1" />
<path d="M505.2,350.4l1.4,-0.8l2.5,-2.8l0,18.9" class="g3_1" />
<path d="M464.5,391.5l0,-20l10,0" class="g3_1" />
<path d="M464.5,381.5l6,0" class="g3_1" />
<path d="M464.5,391.5l10,0" class="g3_1" />
<path d="M479.5,371.5l0,20l10,0" class="g3_1" />
<path d="M490.9,372l6.5,19.9L503.8,372" class="g3_1" />
<path d="M503,856.6l1.6,-0.8l2.2,-2.8l0,18.9" class="g3_1" />
<path d="M526,859.4l-0.8,2.6l-1.4,1.9l-2.4,0.8l-0.6,0l-2.5,-0.8L516.9,862l-0.8,-2.6l0,-1l0.8,-2.6l1.4,-1.8l2.5,-1l0.6,0l2.4,1l1.4,1.8l0.8,3.6l0,4.5l-0.8,4.4l-1.4,2.8l-2.4,0.8l-1.5,0l-2.4,-0.8l-0.6,-1.8" class="g3_1" />
<path d="M533.7,856.6l1.6,-0.8l2.2,-2.8l0,18.9" class="g3_1" />
<path d="M547.4,857.6l0,-1l0.8,-1.8L549,854l1.6,-1l3,0l1.4,1l0.8,0.8l0.8,1.8l0,1.8l-0.8,1.8l-1.6,2.8l-7.4,8.9l10.7,0" class="g3_1" />
<path d="M543.3,796.7l1.7,-1l2.2,-2.6l0,18.9" class="g3_1" />
<path d="M558.7,796.7l1.6,-1l2.2,-2.6l0,18.9" class="g3_1" />
<path d="M576.2,793.1l-2.2,0.8l-1.6,2.8l-0.8,4.4l0,2.9l0.8,4.4L574,811l2.2,1l1.6,0l2.2,-1l1.7,-2.6l0.8,-4.4l0,-2.9l-0.8,-4.4L580,793.9l-2.2,-0.8l-1.6,0Z" class="g3_1" />
<path d="M589.3,796.7l1.4,-1l2.5,-2.6l0,18.9" class="g3_1" />
<path d="M603.5,812.5l0,-19l9,0" class="g3_1" />
<path d="M603.5,802.5l6,0" class="g3_1" />
<path d="M603.5,812.5l9,0" class="g3_1" />
<path d="M640.7,906.2l1.7,-1l2.2,-2.6l0,18.9" class="g3_1" />
<path d="M657.7,902.6l-2.4,0.8l-0.6,1.8l0,1.8l0.6,1.8l1.6,1l3,0.8l2.2,0.8l1.6,1.9l0.8,1.8l0,2.8l-0.8,1.8l-0.8,0.8l-2.2,1l-3,0l-2.4,-1c-7.2,-14,13.1,-6.3,7.6,-17.1l-2.2,-0.8l-3,0Z" class="g3_1" />
<path d="M671.4,906.2l1.6,-1l2.2,-2.6l0,18.9" class="g3_1" />
<path d="M694.4,905.2l-0.8,-1.8l-2.2,-0.8l-1.6,0l-2.3,0.8l-1.6,2.8l-0.8,4.4l0,4.5l0.8,3.6l1.6,1.8l2.3,1l0.8,0l2.2,-1l1.6,-1.8l0.8,-2.6l0,-1l-0.8,-2.6l-1.6,-1.9l-2.2,-0.8l-0.8,0l-2.3,0.8l-1.6,1.9l-0.8,2.6" class="g3_1" />
<path d="M1094.1,635.2l-1,-1.7l-2.6,-2.2l18.9,0" class="g3_1" />
<path d="M1090.5,618.2l0.8,2.4l1.8,0.8l1.8,0l1.8,-0.8l1,-1.6l0.8,-3l1,-2.2l1.9,-1.6l1.8,-0.8l2.6,0l1.8,0.8l0.8,0.8l1,2.2l0,3l-1,2.4l-0.8,0.8l-1.8,0.7l-2.6,0l-1.8,-0.7l-1.9,-1.6l-1,-2.2l-0.8,-3.2l-1,-1.4l-1.8,-0.8l-1.8,0l-1.8,0.8l-0.8,2.2l0,3Z" class="g3_1" />
<path d="M1094.1,604.5l-1,-1.4l-2.6,-2.4l18.9,0" class="g3_1" />
<path d="M1090.5,583.9l12.7,7.7l0,-11.5" class="g3_1" />
<path d="M1090.5,583.5l19,0" class="g3_1" />
<path d="M196.9,636.2l1.4,-1l2.4,-2.7l0,19" class="g3_1" />
<path d="M214.4,632.5l-2.4,0.8l-1.4,2.9l-0.8,4.4l0,2.6l0.8,4.7l1.4,2.6l2.4,1l1.4,0l2.5,-1l1.4,-2.6l0.8,-4.7l0,-2.6l-0.8,-4.4l-1.4,-2.9l-2.5,-0.8l-1.4,0Z" class="g3_1" />
<path d="M229.7,632.5l-2.4,0.8l-1.4,2.9l-0.8,4.4l0,2.6l0.8,4.7l1.4,2.6l2.4,1l1.5,0l2.4,-1l1.4,-2.6l0.8,-4.7l0,-2.6L235,636.2l-1.4,-2.9l-2.4,-0.8l-1.5,0Z" class="g3_1" />
<path d="M241.2,637l0,-0.8l0.6,-1.9l0.9,-1l1.6,-0.8l3,0l1.6,0.8l0.6,1l0.8,1.9l0,1.8l-0.8,1.8l-1.4,2.6l-7.7,9.1l10.7,0" class="g3_1" />
<path d="M359,790.8l1.6,-1l2.2,-2.6l0,19" class="g3_1" />
<path d="M376,787.2l-2.5,0.8l-0.8,1.8l0,1.9l0.8,1.8l1.7,0.8l3,1l2.2,0.8l1.6,1.8l0.8,1.8l0,2.8l-0.8,1.9l-0.8,0.8l-2.2,1l-3,0l-2.5,-1l-0.8,-0.8l-0.6,-1.9l0,-2.8l0.6,-1.8l1.6,-1.8l2.3,-0.8l3.2,-1l1.4,-0.8l0.8,-1.8l0,-1.9L381.2,788L379,787.2l-3,0Z" class="g3_1" />
<path d="M389.7,790.8l1.6,-1l2.2,-2.6l0,19" class="g3_1" />
<path d="M407.2,787.2L405,788l-1.6,2.8l-0.8,4.5l0,2.6l0.8,4.6l1.6,2.7l2.2,1l1.6,0l2.2,-1l1.7,-2.7l0.8,-4.6l0,-2.6l-0.8,-4.5L411,788l-2.2,-0.8l-1.6,0Z" class="g3_1" />
<path d="M371.7,603.9l-0.8,-1.4l-2.8,-2.4l18.9,0" class="g3_1" />
<path d="M368.1,587.2l1,2.2l1.8,0.8l1.8,0l1.8,-0.8l0.9,-1.4l0.8,-3.3l1,-2.2l1.8,-1.6l1.8,-0.6l2.6,0l1.8,0.6l1,0.8l0.8,2.4l0,3.1l-0.8,2.2c-13.4,7.8,-7,-13.4,-17.1,-7.7l-1,2.4l0,3.1Z" class="g3_1" />
<path d="M371.7,573.2l-0.8,-1.4l-2.8,-2.2l18.9,0" class="g3_1" />
<path d="M368.1,558.7l0,-8.2l7.3,4.4l0,-2.2l0.8,-1.6l1,-0.6l2.6,-0.8l1.8,0l2.8,0.8l1.8,1.4l0.8,2.4l0,2.2l-0.8,2.2l-1,0.8l-1.8,0.8" class="g3_1" />
<path d="M246.1,364.1l1.6,-0.8l2.2,-2.8l0,18.9" class="g3_1" />
<path d="M263,360.5l-2.4,1l-0.6,1.8l0,1.6l0.6,1.8l1.6,1l3,0.9l2.5,1l1.4,1.8l0.8,1.8l0,2.6l-0.8,1.8l-0.8,0.8l-2.3,1l-3,0l-2.4,-1c-7.1,-13.4,13.1,-6.7,7.7,-16.9l-2.3,-1l-3,0Z" class="g3_1" />
<path d="M276.7,364.1l1.7,-0.8l2.2,-2.8l0,18.9" class="g3_1" />
<path d="M291.3,360.5l8.4,0l-4.6,7.2l2.4,0l1.4,0.9l0.8,1l0.8,2.6l0,1.8l-0.8,2.6l-1.6,1.8l-2.2,1l-2.2,0l-2.4,-1l-0.9,-0.8l-0.6,-1.8" class="g3_1" />
<path d="M398.1,625.5l-2,0.8l-1.8,1.6l-1,1.6l0,3l1,1.7l1.8,1.6l2,0.8l2.9,0.8l4.6,0c4.6,-0.6,10.6,-4.5,6.7,-9.5l-1.9,-1.6l-2,-0.8" class="g3_1" />
<path d="M393.3,615.8l1,1.6l1.8,1.6c5.4,2.8,14,2.7,17.2,-3.2l0,-3.2l-1,-1.6c-4,-4.5,-14.1,-4.5,-18,0l-1,1.6l0,3.2Z" class="g3_1" />
<path d="M413.3,602.1l-20,0l0,-7.3l1,-2.4l1,-0.8l1.8,-0.8l1.8,0l2.1,0.8l0.8,0.8l1,2.4l0,7.3" class="g3_1" />
<path d="M402.8,596.4l10.5,-5.6" class="g3_1" />
<path d="M413.3,585.1l-20,0l0,-7l1,-2.4l1,-0.8l1.8,-0.8l1.8,0l2.1,0.8l0.8,0.8l1,2.4l0,7" class="g3_1" />
<path d="M402.8,579.7l10.5,-5.6" class="g3_1" />
<path d="M393.5,568.5l20,0" class="g3_1" />
<path d="M413.3,562l-20,0l0,-5.7l1,-2.4l1.8,-1.6l2,-0.8l2.9,-0.8l4.6,0l2.8,0.8l2,0.8l1.9,1.6l1,2.4l0,5.7Z" class="g3_1" />
<path d="M393.3,541l1,1.6l1.8,1.6c5.4,2.7,14,2.7,17.2,-3.2l0,-3.2l-1,-1.7c-4,-4.5,-14.1,-4.5,-18,0l-1,1.7l0,3.2Z" class="g3_1" />
<path d="M413.3,527.5l-20,0l0,-7.3l1,-2.4l1,-0.8l1.8,-0.8l1.8,0L401,517l0.8,0.8l1,2.4l0,7.3" class="g3_1" />
<path d="M402.8,521.8l10.5,-5.6" class="g3_1" />
<path d="M150.1,206.4l-2.2,1l-0.8,1.6l0,1.9l0.8,1.8l1.4,1l3,0.8l2.4,1l1.4,1.8l0.8,1.8l0,2.6l-0.8,1.9l-0.6,0.8l-2.4,1l-3,0l-2.2,-1l-0.8,-0.8l-0.8,-1.9l0,-2.6l0.8,-1.8l1.4,-1.8l2.4,-1l3,-0.8l1.6,-1l0.6,-1.8l0,-1.9l-0.6,-1.6l-2.4,-1l-3,0Z" class="g3_1" />
<path d="M166.2,206.4l-2.4,1l-1.4,2.6l-0.8,4.5l0,2.8l0.8,4.4l1.4,2.7l2.4,1l1.4,0l2.5,-1l1.4,-2.7l0.8,-4.4l0,-2.8L171.5,210l-1.4,-2.6l-2.5,-1l-1.4,0Z" class="g3_1" />
<path d="M180.7,206.4l-2.4,1l-0.6,1.6l0,1.9l0.6,1.8l1.6,1l3.1,0.8l2.4,1l1.4,1.8l0.8,1.8l0,2.6l-0.8,1.9l-0.8,0.8l-2.2,1l-3.1,0l-2.4,-1l-0.6,-0.8l-0.8,-1.9l0,-2.6l0.8,-1.8l1.4,-1.8l2.4,-1l3.1,-0.8l1.4,-1l0.8,-1.8l0,-1.9L186,207.4l-2.2,-1l-3.1,0Z" class="g3_1" />
<path d="M317.5,210.9l1.4,-0.9l2.4,-2.8l0,19" class="g3_1" />
<path d="M332.8,210.9l1.4,-0.9l2.4,-2.8l0,19" class="g3_1" />
<path d="M350.3,207.2l-2.2,1l-1.6,2.7l-0.8,4.4l0,2.8l0.8,4.4l1.6,2.9l2.2,0.8l1.7,0l2.2,-0.8l1.6,-2.9l0.6,-4.4l0,-2.8l-0.6,-4.4l-1.6,-2.7l-2.2,-1l-1.7,0Z" class="g3_1" />
<path d="M363.3,210.9l1.6,-0.9l2.2,-2.8l0,19" class="g3_1" />
<path d="M528,126.8l1.6,-0.8l2.2,-2.9l0,19" class="g3_1" />
<path d="M543.3,126.8L545,126l2.2,-2.9l0,19" class="g3_1" />
<path d="M560.9,123.1l-2.2,1l-1.6,2.7l-0.9,4.4l0,2.8l0.9,4.5l1.6,2.6l2.2,1l1.6,0l2.2,-1l1.6,-2.6l0.8,-4.5l0,-2.8l-0.8,-4.4l-1.6,-2.7l-2.2,-1l-1.6,0Z" class="g3_1" />
<path d="M574,126.8l1.4,-0.8l2.4,-2.9l0,19" class="g3_1" />
<path d="M585.5,142.1l6,-19l6.1,19" class="g3_1" />
<path d="M587.5,135.5l8,0" class="g3_1" />
<path d="M551,358.7l1.6,-0.8l2.2,-2.9l0,19" class="g3_1" />
<path d="M574,361.5l-0.8,2.6l-1.4,1.8l-2.4,0.8l-0.6,0l-2.5,-0.8l-1.4,-1.8l-0.8,-2.6l0,-1l0.8,-2.6l1.4,-1.8l2.5,-1.1l0.6,0l2.4,1.1l1.4,1.8l0.8,3.6l0,4.4l-0.8,4.5l-1.4,2.8l-2.4,0.8l-1.5,0l-2.4,-0.8l-0.6,-1.8" class="g3_1" />
<path d="M583.9,355l-2.2,1.1l-1.7,2.6l-0.6,4.6l0,2.6l0.6,4.5l1.7,2.8l2.2,0.8l1.6,0l2.2,-0.8l1.6,-2.8l0.8,-4.5l0,-2.6l-0.8,-4.6l-1.6,-2.6L585.5,355l-1.6,0Z" class="g3_1" />
<path d="M596.2,355l8.4,0l-4.6,7.3l2.4,0l1.4,1l0.8,0.8l0.9,2.6l0,1.9l-0.9,2.8l-1.6,1.8l-2.2,0.8l-2.2,0l-2.4,-0.8l-0.8,-1l-0.6,-1.8" class="g3_1" />
<path d="M716.6,145.3l1.4,-1l2.4,-2.6l0,18.7" class="g3_1" />
<path d="M731.9,145.3l1.4,-1l2.4,-2.6l0,18.7" class="g3_1" />
<path d="M749.4,141.7l-2.2,0.8l-1.6,2.8l-0.8,4.4l0,2.7l0.8,4.6l1.6,2.6l2.2,0.8l1.7,0l2.2,-0.8l1.6,-2.6l0.6,-4.6l0,-2.7l-0.6,-4.4l-1.6,-2.8l-2.2,-0.8l-1.7,0Z" class="g3_1" />
<path d="M762.4,145.3l1.6,-1l2.2,-2.6l0,18.7" class="g3_1" />
<path d="M776.3,160.4l0,-18.7l6.8,0l2.2,0.8l0.8,1l0.9,1.8l0,1.8l-0.9,1.6l-0.8,1l-2.2,0.9l-6.8,0" class="g3_1" />
<path d="M783.1,150.6l2.2,1l0.8,0.8l0.9,1.8l0,2.8l-0.9,1.8l-0.8,0.8l-2.2,0.8l-6.8,0" class="g3_1" />
<path d="M886.6,261.5l1.6,-1l2.2,-2.7l0,19" class="g3_1" />
<path d="M901.9,261.5l1.6,-1l2.2,-2.7l0,19" class="g3_1" />
<path d="M919.4,257.8l-2.2,0.8l-1.6,2.9l-0.6,4.4l0,2.8l0.6,4.5l1.6,2.6l2.2,1l1.7,0l2.2,-1l1.6,-2.6l0.8,-4.5l0,-2.8l-0.8,-4.4l-1.6,-2.9l-2.2,-0.8l-1.7,0Z" class="g3_1" />
<path d="M932.6,261.5l1.4,-1l2.4,-2.7l0,19" class="g3_1" />
<path d="M957,262.3l-0.8,-1.8l-1.5,-1.9c-3.7,-2.4,-7.2,-0.4,-8.4,3.7l-0.8,2.8l0,4.4l0.8,2.7l0.8,1.8l1.4,1.8l1.6,1l3,0l1.6,-1l1.5,-1.8l0.8,-1.8" class="g3_1" />
<path d="M755.5,554.7l1.6,-1l2.2,-2.6l0,18.9" class="g3_1" />
<path d="M770.8,554.7l1.6,-1l2.3,-2.6l0,18.9" class="g3_1" />
<path d="M788.4,551.1l-2.3,0.8l-1.6,2.8l-0.6,4.4l0,2.9l0.6,4.4l1.6,2.6l2.3,1l1.6,0l2.2,-1l1.6,-2.6l0.8,-4.4l0,-2.9l-0.8,-4.4l-1.6,-2.8L790,551.1l-1.6,0Z" class="g3_1" />
<path d="M801.5,554.7l1.4,-1l2.4,-2.6l0,18.9" class="g3_1" />
<path d="M815.2,570l0,-18.9l5.4,0l2.3,0.8l1.6,1.8l0.6,1.8l0.8,2.8l0,4.5l-0.8,2.6l-0.6,1.8l-1.6,1.8l-2.3,1l-5.4,0Z" class="g3_1" />
<path d="M450.8,627.9l-1,-1.4l-2.7,-2.4l19,0" class="g3_1" />
<path d="M447.1,611.2l0.9,2.2l1.8,0.8l1.8,0l1.8,-0.8l1,-1.6l0.8,-3.1l1,-2.2l1.6,-1.6l1.8,-0.8l2.9,0l1.8,0.8l0.8,0.8l1,2.2l0,3.3l-1,2.2l-0.8,0.8l-1.8,0.8l-2.9,0l-1.8,-0.8l-1.6,-1.6l-1,-2.2l-0.8,-3.1l-1,-1.6l-1.8,-0.8l-1.8,0l-1.8,0.8l-0.9,2.2l0,3.3Z" class="g3_1" />
<path d="M450.8,597.2l-1,-1.4l-2.7,-2.4l19,0" class="g3_1" />
<path d="M451.6,583.5l-0.8,0L449,582.7l-1,-0.8l-0.9,-1.4l0,-3l0.9,-1.6l1,-0.8l1.8,-0.8l1.8,0l1.8,0.8l2.6,1.6l9.1,7.6l0,-10.6" class="g3_1" />
<path d="M958.6,23.1l1.6,-0.8l2.2,-2.8l0,18.9" class="g3_1" />
<path d="M975.5,19.5l-2.4,1l-0.8,1.8l0,1.6l0.8,1.8l1.6,1l3,0.8l2.2,1l1.7,1.9l0.8,1.8l0,2.6l-0.8,1.8l-0.8,0.8l-2.3,1l-3,0l-2.4,-1l-0.8,-0.8l-0.6,-1.8l0,-2.6l0.6,-1.8l1.6,-1.9l2.2,-1l3.2,-0.8l1.5,-1l0.8,-1.8l0,-1.6l-0.8,-1.8l-2.3,-1l-3,0Z" class="g3_1" />
<path d="M991.4,19.5l-2.2,1l-1.6,2.6l-0.8,4.4l0,2.9l0.8,4.4l1.6,2.6l2.2,1l1.7,0l2.2,-1l1.6,-2.6l0.8,-4.4l0,-2.9l-0.8,-4.4l-1.6,-2.6l-2.2,-1l-1.7,0Z" class="g3_1" />
<path d="M1005.4,38.4l7.4,-18.9l-10.7,0" class="g3_1" />
<path d="M949.1,47.5l-1.4,-1.8l-2.4,-1c-5.3,-0.9,-10.2,2.6,-5.7,7.6l1.6,0.8l4.9,2.1l1.6,0.8l0.6,1l0.8,1.8l0,3l-1.4,1.8l-2.4,1l-3.3,0l-2.4,-1L938,61.8" class="g3_1" />
<path d="M957.5,44.5l0,20" class="g3_1" />
<path d="M952.5,44.5l11,0" class="g3_1" />
<path d="M965.2,64.6l6.5,-19.9l6.4,19.9" class="g3_1" />
<path d="M967.5,57.5l8,0" class="g3_1" />
<path d="M982.5,44.5l0,20" class="g3_1" />
<path d="M988.6,64.6l0,-19.9l7.3,0l2.4,1l0.8,1l0.6,1.8l0,1.8l-0.6,2l-0.8,0.8l-2.4,1.1l-7.3,0" class="g3_1" />
<path d="M994.3,54.2l5.4,10.4" class="g3_1" />
<path d="M1022.3,64.6l0,-19.9l5.6,0l2.5,1l1.6,1.8l0.8,2l0.8,2.8l0,4.7l-0.8,2.8l-0.8,2l-1.6,1.8l-2.5,1l-5.6,0Z" class="g3_1" />
<path d="M541.1,500l1.6,-1l2.3,-2.6l0,19" class="g3_1" />
<path d="M564.1,502.7l-0.8,2.8l-1.4,1.8l-2.4,0.8l-0.8,0l-2.3,-0.8l-1.6,-1.8l-0.6,-2.8l0,-0.8l0.6,-2.9l1.6,-1.6l2.3,-1l0.8,0l2.4,1l1.4,1.6l0.8,3.7l0,4.6l-0.8,4.4l-1.4,2.7l-2.4,1l-1.4,0l-2.5,-1l-0.8,-1.9" class="g3_1" />
<path d="M574,496.4l-2.2,1l-1.6,2.6l-0.6,4.5l0,2.8l0.6,4.4l1.6,2.7l2.2,1l1.6,0l2.2,-1l1.6,-2.7l0.8,-4.4l0,-2.8L579.4,500l-1.6,-2.6l-2.2,-1l-1.6,0Z" class="g3_1" />
<path d="M587.1,500l1.4,-1l2.4,-2.6l0,19" class="g3_1" />
<path d="M559.7,541.6l0,-20l6.2,20l6.5,-20l0,20" class="g3_1" />
<path d="M482,661.6l1.6,-0.8l2.3,-2.7l0,18.8" class="g3_1" />
<path d="M505,664.4l-0.8,2.6l-1.4,1.8l-2.4,1l-0.6,0l-2.4,-1L495.9,667l-0.8,-2.6l0,-1l0.8,-2.6l1.5,-1.8l2.4,-0.9l0.6,0l2.4,0.9l1.4,1.8l0.8,3.6l0,4.4l-0.8,4.7l-1.4,2.6l-2.4,0.8l-1.4,0l-2.4,-0.8l-0.7,-1.8" class="g3_1" />
<path d="M515.1,658.1l-2.4,0.9l-1.4,2.6l-0.8,4.6l0,2.6l0.8,4.7l1.4,2.6l2.4,0.8l1.4,0l2.4,-0.8l1.5,-2.6l0.8,-4.7l0,-2.6l-0.8,-4.6L518.9,659l-2.4,-0.9l-1.4,0Z" class="g3_1" />
<path d="M526.4,662.6l0,-1l0.8,-1.6l0.8,-1l1.6,-0.9l3.1,0l1.4,0.9l0.8,1l0.8,1.6l0,1.8l-0.8,1.8l-1.4,2.8l-7.7,8.9l10.7,0" class="g3_1" />
<path d="M501,631.9l4,20l4.1,-20l4,20l4,-20" class="g3_1" />
<path d="M680.7,724.3l1.4,-1l2.4,-2.6l0,18.9" class="g3_1" />
<path d="M697.4,720.7l-2.2,0.8l-0.8,1.8l0,1.8l0.8,1.8l1.4,1l3,0.8l2.5,1l1.4,1.7l0.8,1.8l0,2.8l-0.8,1.8l-0.6,0.8l-2.5,1l-3,0l-2.2,-1l-0.8,-0.8L693.6,736l0,-2.8l0.8,-1.8l1.6,-1.7l2.2,-1l3,-0.8l1.7,-1l0.6,-1.8l0,-1.8l-0.6,-1.8l-2.5,-0.8l-3,0Z" class="g3_1" />
<path d="M713.5,720.7l-2.4,0.8l-1.4,2.8l-0.8,4.4l0,2.7l0.8,4.6l1.4,2.6l2.4,1l1.5,0l2.4,-1l1.4,-2.6l0.8,-4.6l0,-2.7l-0.8,-4.4l-1.4,-2.8L715,720.7l-1.5,0Z" class="g3_1" />
<path d="M725.6,720.7l8.5,0l-4.6,7.2l2.4,0l1.4,0.8l0.8,1l0.8,2.7l0,1.8l-0.8,2.6l-1.6,1.8l-2.2,1l-2.2,0l-2.5,-1l-0.8,-0.8L724.2,736" class="g3_1" />
<path d="M671.6,748.7l-1.6,-2l-2.4,-0.8l-3.3,0l-2.4,0.8l-1.6,2l0,1.8l0.8,2l0.8,0.8l1.6,1l4.9,1.9l1.6,1l0.8,1l0.8,1.8l0,2.8l-1.6,1.8l-2.4,1l-3.3,0l-2.4,-1l-1.6,-1.8" class="g3_1" />
<path d="M680.5,745.5l0,20" class="g3_1" />
<path d="M674.5,745.5l12,0" class="g3_1" />
<path d="M687.7,765.6l6.5,-19.7l6.2,19.7" class="g3_1" />
<path d="M690.5,758.5l8,0" class="g3_1" />
<path d="M704.5,745.5l0,20" class="g3_1" />
<path d="M710.9,765.6l0,-19.7l7.3,0l2.4,0.8l0.8,1l0.8,1.8l0,2l-0.8,1.8l-0.8,1l-2.4,1.1l-7.3,0" class="g3_1" />
<path d="M716.6,755.4l5.6,10.2" class="g3_1" />
<path d="M742.4,765.6l6.2,-19.7l6.5,19.7" class="g3_1" />
<path d="M744.5,758.5l8,0" class="g3_1" />
<path fill-rule="evenodd" d="M480.6,819.5l-3.8,-22.6L473,819.5Z" class="g1_1" />
<path d="M476.5,819.5l0,44l19,0" class="g3_1" />
<path fill-rule="evenodd" d="M609.1,727.7l-22.8,3.7l22.8,3.8Z" class="g1_1" />
<path d="M609.5,731.5l63,0" class="g3_1" />
<path fill-rule="evenodd" d="M1051.9,127.4l3.9,22.5l3.8,-22.5Z" class="g1_1" />
<path d="M1055.5,127.5l0,-98l-32,0" class="g3_1" />
<path d="M164.5,405.5l0,-19l11,0" class="g3_1" />
<path d="M164.5,395.5l7,0" class="g3_1" />
<path d="M164.5,405.5l11,0" class="g3_1" />
<path d="M179.5,386.5l0,19l10,0" class="g3_1" />
<path d="M193.5,405.5l0,-19l11,0" class="g3_1" />
<path d="M193.5,395.5l7,0" class="g3_1" />
<path d="M193.5,405.5l11,0" class="g3_1" />
<path d="M206.6,386.1l6.4,19.8l6.5,-19.8" class="g3_1" />
<path d="M221.1,405.9l6.2,-19.8l6.5,19.8" class="g3_1" />
<path d="M223.5,399.5l8,0" class="g3_1" />
<path d="M241.5,386.5l0,19" class="g3_1" />
<path d="M235.5,386.5l11,0" class="g3_1" />
<path d="M254.8,386.1l-1.7,0.8l-1.6,2c-2.9,4.9,-2.4,14.4,3.3,17l3.2,0l1.6,-1c4.6,-4,4.4,-13.9,0,-18L258,386.1l-3.2,0Z" class="g3_1" />
<path d="M268.5,405.9l0,-19.8l7.2,0l2.2,0.8l0.9,1l0.8,1.8l0,2l-0.8,1.9l-0.9,1l-2.2,1l-7.2,0" class="g3_1" />
<path d="M274.1,395.6l5.5,10.3" class="g3_1" />
<path d="M302.5,386.5l0,19l9,0" class="g3_1" />
<path d="M319.9,386.1l-1.6,0.8l-1.6,2c-3,4.9,-2.5,14.4,3.2,17l3.2,0l1.6,-1c4.7,-4,4.5,-13.9,0,-18l-1.6,-0.8l-3.2,0Z" class="g3_1" />
<path d="M333.4,405.9l0,-19.8l7.3,0l2.4,0.8l0.8,1l0.8,1.8l0,2l-0.8,1.9l-0.8,1l-2.4,1l-7.3,0" class="g3_1" />
<path d="M340.7,395.6l2.4,0.8l0.8,1l0.8,1.8l0,2.8l-0.8,2l-0.8,0.9l-2.4,1l-7.3,0" class="g3_1" />
<path d="M350.3,405.9l0,-19.8l7.3,0l2.4,0.8l0.8,1l0.8,1.8l0,2l-0.8,1.9l-0.8,1l-2.4,1l-7.3,0" class="g3_1" />
<path d="M357.6,395.6l2.4,0.8l0.8,1l0.8,1.8l0,2.8l-0.8,2l-0.8,0.9l-2.4,1l-7.3,0" class="g3_1" />
<path d="M364.9,386.1l6.4,9.5l0,10.3" class="g3_1" />
<path d="M377.8,386.1l-6.5,9.5" class="g3_1" />

</svg>
